{"glyphs":{"0":{"ha":921,"x_min":65,"x_max":856,"o":"m 460 -17 q 303 23 375 -17 q 178 133 232 63 q 95 298 125 204 q 65 500 65 392 q 95 702 65 608 q 178 867 125 796 q 303 977 232 938 q 460 1017 375 1017 q 617 977 544 1017 q 742 867 689 938 q 826 702 796 796 q 856 500 856 608 q 826 298 856 392 q 742 133 796 204 q 617 23 689 63 q 460 -17 544 -17 m 460 25 q 549 45 513 25 q 606 117 585 65 q 638 262 628 169 q 647 500 647 354 q 638 738 647 644 q 606 883 628 831 q 549 955 585 935 q 460 975 513 975 q 370 955 406 975 q 313 883 335 935 q 283 738 292 831 q 274 500 274 644 q 283 262 274 354 q 313 117 292 169 q 370 45 335 65 q 460 25 406 25 z "},"1":{"ha":599,"x_min":15,"x_max":583,"o":"m 15 0 l 15 35 l 224 35 l 224 960 l 15 960 l 15 994 l 389 994 l 389 35 l 583 35 l 583 0 l 15 0 z "},"2":{"ha":792,"x_min":49,"x_max":715,"o":"m 49 0 l 49 107 l 347 385 q 458 502 418 451 q 513 601 497 553 q 529 707 529 649 q 480 888 529 822 q 336 954 431 954 q 231 931 279 954 q 154 874 183 908 q 125 800 125 839 q 130 779 125 785 q 143 774 135 774 q 172 782 157 774 q 214 790 188 790 q 270 771 249 790 q 292 711 292 751 q 264 644 292 664 q 197 624 236 624 q 128 644 156 624 q 88 699 101 665 q 75 771 75 732 q 121 905 75 850 q 240 988 167 960 q 393 1017 313 1017 q 508 1001 451 1017 q 613 953 565 985 q 688 872 660 921 q 715 754 715 822 q 704 681 715 721 q 662 595 693 642 q 568 493 631 549 l 172 139 l 172 133 l 596 133 q 647 142 629 133 q 673 181 665 150 q 681 278 681 213 l 715 278 l 715 0 l 49 0 z "},"3":{"ha":767,"x_min":36,"x_max":710,"o":"m 331 -17 q 177 8 243 -17 q 74 74 111 32 q 36 171 36 117 q 62 244 36 217 q 126 271 88 271 q 172 260 151 271 q 203 231 192 250 q 215 188 215 213 q 206 153 215 165 q 186 132 197 140 q 166 116 175 124 q 157 93 157 108 q 184 53 157 68 q 248 32 211 39 q 314 25 285 25 q 463 90 411 25 q 515 278 515 156 q 463 454 515 393 q 286 515 410 515 l 422 547 q 573 499 508 538 q 674 404 638 461 q 710 278 710 347 q 665 135 710 203 q 535 26 619 68 q 331 -17 450 -17 m 178 515 l 178 557 l 422 557 l 422 515 l 178 515 m 340 542 l 260 557 q 421 620 372 557 q 469 794 469 683 q 452 904 469 865 q 402 959 435 943 q 324 975 369 975 q 238 960 272 975 q 203 918 203 944 q 214 893 203 903 q 236 870 225 883 q 247 831 247 857 q 224 777 247 794 q 172 760 200 760 q 113 785 138 760 q 89 846 89 810 q 120 925 89 886 q 211 990 151 964 q 356 1017 271 1017 q 515 985 449 1017 q 615 901 581 953 q 650 792 650 850 q 612 676 650 729 q 504 587 574 622 q 340 542 435 551 z "},"4":{"ha":826,"x_min":25,"x_max":785,"o":"m 297 0 l 297 35 l 435 35 l 435 278 l 25 278 l 25 317 l 497 1017 l 599 1017 l 599 315 l 749 315 l 749 425 l 785 425 l 785 164 l 749 164 l 749 278 l 600 278 l 600 35 l 718 35 l 718 0 l 297 0 m 78 315 l 433 315 l 433 832 l 428 832 l 78 321 l 78 315 z "},"5":{"ha":765,"x_min":44,"x_max":718,"o":"m 332 -17 q 186 7 251 -17 q 83 73 121 31 q 44 171 44 115 q 70 245 44 217 q 135 274 96 274 q 198 253 172 274 q 224 196 224 232 q 214 159 224 172 q 191 137 204 146 q 168 118 178 128 q 158 92 158 108 q 179 56 158 71 q 233 33 200 40 q 303 25 265 25 q 467 91 408 25 q 526 289 526 157 q 462 498 526 432 q 297 564 397 564 q 209 553 254 564 q 138 524 164 542 l 147 576 q 182 589 157 582 q 244 601 207 596 q 329 607 282 607 q 538 568 451 607 q 672 462 625 529 q 718 308 718 394 q 666 142 718 215 q 526 26 614 68 q 332 -17 439 -17 m 138 524 l 115 538 l 167 994 l 215 994 l 164 550 l 138 524 m 201 861 l 167 994 l 536 994 q 602 1003 582 994 q 636 1039 622 1013 l 671 1039 l 621 861 l 201 861 z "},"6":{"ha":842,"x_min":68,"x_max":800,"o":"m 431 -17 q 247 35 329 -17 q 117 182 165 88 q 68 403 68 276 q 121 649 68 535 q 265 851 174 764 q 472 990 356 939 q 714 1044 588 1040 l 714 1004 q 502 942 594 996 q 353 798 410 888 q 279 592 296 708 l 283 590 q 365 641 321 624 q 464 658 408 658 q 633 615 557 658 q 754 497 708 571 q 800 331 800 424 q 769 192 800 256 q 687 81 739 128 q 569 9 635 35 q 431 -17 503 -17 m 428 25 q 530 49 493 25 q 583 138 567 74 q 599 321 599 201 q 584 506 599 442 q 540 593 569 569 q 461 617 510 617 q 350 588 397 617 q 274 511 303 558 q 263 406 265 461 q 260 307 260 350 q 276 131 260 192 q 329 47 292 69 q 428 25 367 25 z "},"7":{"ha":700,"x_min":56,"x_max":690,"o":"m 374 -17 q 296 13 325 -17 q 267 106 267 42 q 274 160 267 131 q 301 242 281 190 q 363 383 322 294 l 583 861 l 236 861 q 174 851 199 861 q 131 811 150 842 q 90 719 113 781 l 56 719 l 119 994 l 690 994 l 690 978 l 503 567 q 442 398 457 467 q 426 274 426 329 q 433 203 426 231 q 449 158 440 176 q 464 122 457 140 q 471 78 471 104 q 444 7 471 31 q 374 -17 418 -17 z "},"8":{"ha":851,"x_min":58,"x_max":793,"o":"m 425 -17 q 220 21 301 -17 q 99 122 139 58 q 58 264 58 186 q 94 372 58 319 q 192 465 129 425 q 333 519 254 504 l 333 525 l 519 525 l 519 519 q 660 463 599 503 q 758 372 722 424 q 793 264 793 319 q 753 122 793 186 q 631 21 713 58 q 425 -17 549 -17 m 425 25 q 559 81 519 25 q 599 264 599 136 q 559 440 599 379 q 425 501 519 501 q 292 440 331 501 q 253 264 253 379 q 292 81 253 136 q 425 25 331 25 m 426 536 q 538 595 506 536 q 571 764 571 654 q 538 926 571 878 q 426 975 506 975 q 314 926 347 975 q 281 764 281 878 q 314 595 281 654 q 426 536 347 536 m 426 515 q 262 547 336 515 q 144 635 188 578 q 100 771 100 693 q 137 894 100 839 q 246 983 174 950 q 426 1017 318 1017 q 607 983 535 1017 q 715 894 679 950 q 751 771 751 839 q 708 635 751 693 q 590 547 664 578 q 426 515 517 515 z "},"9":{"ha":842,"x_min":61,"x_max":793,"o":"m 147 -44 l 147 -4 q 359 60 267 6 q 509 203 451 114 q 582 408 567 293 l 578 410 q 497 359 540 376 q 397 342 454 342 q 229 385 306 342 q 107 503 153 429 q 61 669 61 578 q 92 808 61 744 q 174 919 122 872 q 292 991 226 965 q 431 1017 358 1017 q 614 965 532 1017 q 744 819 696 913 q 793 597 793 725 q 740 351 793 465 q 597 149 688 236 q 390 10 506 61 q 147 -44 274 -40 m 400 383 q 511 413 464 383 q 588 489 558 442 q 599 594 596 539 q 601 693 601 650 q 585 869 601 808 q 533 953 569 931 q 433 975 496 975 q 332 951 369 975 q 278 863 294 926 q 263 679 263 799 q 277 495 263 560 q 322 407 292 431 q 400 383 353 383 z "},"A":{"ha":953,"x_min":-22,"x_max":974,"o":"m 664 21 l 408 785 l 403 785 l 393 825 l 460 1064 l 501 1064 l 850 21 l 664 21 m -22 0 l -22 35 l 311 35 l 311 0 l -22 0 m 249 328 l 249 363 l 699 363 l 699 328 l 249 328 m 497 0 l 497 35 l 974 35 l 974 0 l 497 0 m 97 21 l 460 1064 l 501 1064 l 417 825 l 143 21 l 97 21 z "},"Á":{"ha":953,"x_min":-22,"x_max":974,"o":"m 664 21 l 408 785 l 403 785 l 393 825 l 460 1064 l 501 1064 l 850 21 l 664 21 m -22 0 l -22 35 l 311 35 l 311 0 l -22 0 m 249 328 l 249 363 l 699 363 l 699 328 l 249 328 m 497 0 l 497 35 l 974 35 l 974 0 l 497 0 m 97 21 l 460 1064 l 501 1064 l 417 825 l 143 21 l 97 21 m 290 1169 l 500 1303 q 568 1344 549 1335 q 601 1353 588 1353 q 647 1337 631 1353 q 663 1293 663 1321 q 645 1247 663 1267 q 593 1219 628 1226 l 350 1169 l 290 1169 z "},"Ă":{"ha":953,"x_min":-22,"x_max":974,"o":"m 664 21 l 408 785 l 403 785 l 393 825 l 460 1064 l 501 1064 l 850 21 l 664 21 m -22 0 l -22 35 l 311 35 l 311 0 l -22 0 m 249 328 l 249 363 l 699 363 l 699 328 l 249 328 m 497 0 l 497 35 l 974 35 l 974 0 l 497 0 m 97 21 l 460 1064 l 501 1064 l 417 825 l 143 21 l 97 21 m 476 1169 q 314 1219 369 1169 q 258 1353 258 1268 l 306 1353 q 355 1285 308 1306 q 474 1264 401 1264 q 595 1285 547 1264 q 646 1353 643 1307 l 693 1353 q 640 1221 693 1272 q 476 1169 588 1169 z "},"Ắ":{"ha":953,"x_min":-22,"x_max":974,"o":"m 664 21 l 408 785 l 403 785 l 393 825 l 460 1064 l 501 1064 l 850 21 l 664 21 m -22 0 l -22 35 l 311 35 l 311 0 l -22 0 m 249 328 l 249 363 l 699 363 l 699 328 l 249 328 m 497 0 l 497 35 l 974 35 l 974 0 l 497 0 m 97 21 l 460 1064 l 501 1064 l 417 825 l 143 21 l 97 21 m 476 1139 q 328 1188 369 1139 q 286 1322 286 1238 l 333 1322 q 369 1254 336 1275 q 474 1233 401 1233 q 581 1255 547 1233 q 618 1322 615 1276 l 665 1322 q 649 1228 665 1269 q 591 1163 632 1186 q 476 1139 550 1139 m 290 1382 l 500 1515 q 568 1556 549 1547 q 601 1565 588 1565 q 647 1549 631 1565 q 663 1506 663 1533 q 645 1459 663 1479 q 593 1432 628 1439 l 350 1382 l 290 1382 z "},"Ặ":{"ha":953,"x_min":-22,"x_max":974,"o":"m 664 21 l 408 785 l 403 785 l 393 825 l 460 1064 l 501 1064 l 850 21 l 664 21 m -22 0 l -22 35 l 311 35 l 311 0 l -22 0 m 249 328 l 249 363 l 699 363 l 699 328 l 249 328 m 497 0 l 497 35 l 974 35 l 974 0 l 497 0 m 97 21 l 460 1064 l 501 1064 l 417 825 l 143 21 l 97 21 m 476 -321 q 412 -294 439 -321 q 385 -229 385 -267 q 412 -165 385 -192 q 476 -137 439 -137 q 541 -165 514 -137 q 568 -229 568 -192 q 541 -294 568 -267 q 476 -321 514 -321 m 476 1169 q 314 1219 369 1169 q 258 1353 258 1268 l 306 1353 q 355 1285 308 1306 q 474 1264 401 1264 q 595 1285 547 1264 q 646 1353 643 1307 l 693 1353 q 640 1221 693 1272 q 476 1169 588 1169 z "},"Ằ":{"ha":953,"x_min":-22,"x_max":974,"o":"m 664 21 l 408 785 l 403 785 l 393 825 l 460 1064 l 501 1064 l 850 21 l 664 21 m -22 0 l -22 35 l 311 35 l 311 0 l -22 0 m 249 328 l 249 363 l 699 363 l 699 328 l 249 328 m 497 0 l 497 35 l 974 35 l 974 0 l 497 0 m 97 21 l 460 1064 l 501 1064 l 417 825 l 143 21 l 97 21 m 476 1139 q 328 1188 369 1139 q 286 1322 286 1238 l 333 1322 q 369 1254 336 1275 q 474 1233 401 1233 q 581 1255 547 1233 q 618 1322 615 1276 l 665 1322 q 649 1228 665 1269 q 591 1163 632 1186 q 476 1139 550 1139 m 603 1375 l 360 1425 q 308 1452 325 1432 q 290 1499 290 1472 q 306 1542 290 1526 q 351 1558 322 1558 q 385 1549 367 1558 q 453 1508 404 1540 l 663 1375 l 603 1375 z "},"Ẳ":{"ha":953,"x_min":-22,"x_max":974,"o":"m 664 21 l 408 785 l 403 785 l 393 825 l 460 1064 l 501 1064 l 850 21 l 664 21 m -22 0 l -22 35 l 311 35 l 311 0 l -22 0 m 249 328 l 249 363 l 699 363 l 699 328 l 249 328 m 497 0 l 497 35 l 974 35 l 974 0 l 497 0 m 97 21 l 460 1064 l 501 1064 l 417 825 l 143 21 l 97 21 m 476 1139 q 328 1188 369 1139 q 286 1322 286 1238 l 333 1322 q 369 1254 336 1275 q 474 1233 401 1233 q 581 1255 547 1233 q 618 1322 615 1276 l 665 1322 q 649 1228 665 1269 q 591 1163 632 1186 q 476 1139 550 1139 m 467 1328 q 474 1361 467 1347 q 492 1388 482 1375 q 510 1413 503 1400 q 518 1444 518 1426 q 501 1483 518 1474 q 464 1493 485 1493 q 427 1483 442 1493 q 413 1458 413 1474 q 417 1447 413 1450 q 426 1438 422 1443 q 431 1419 431 1432 q 419 1397 431 1406 q 386 1389 408 1389 q 347 1403 363 1389 q 332 1438 332 1417 q 351 1503 332 1479 q 401 1538 371 1528 q 461 1549 431 1549 q 562 1522 524 1549 q 600 1447 600 1496 q 588 1404 600 1421 q 558 1375 575 1388 q 526 1352 542 1363 q 504 1328 511 1342 l 467 1328 z "},"Ẵ":{"ha":953,"x_min":-22,"x_max":974,"o":"m 664 21 l 408 785 l 403 785 l 393 825 l 460 1064 l 501 1064 l 850 21 l 664 21 m -22 0 l -22 35 l 311 35 l 311 0 l -22 0 m 249 328 l 249 363 l 699 363 l 699 328 l 249 328 m 497 0 l 497 35 l 974 35 l 974 0 l 497 0 m 97 21 l 460 1064 l 501 1064 l 417 825 l 143 21 l 97 21 m 476 1139 q 328 1188 369 1139 q 286 1322 286 1238 l 333 1322 q 369 1254 336 1275 q 474 1233 401 1233 q 581 1255 547 1233 q 618 1322 615 1276 l 665 1322 q 649 1228 665 1269 q 591 1163 632 1186 q 476 1139 550 1139 m 232 1375 q 260 1458 239 1418 q 316 1523 282 1497 q 396 1549 350 1549 q 465 1532 433 1549 q 525 1499 496 1515 q 586 1482 554 1482 q 647 1506 626 1482 q 674 1553 667 1531 l 721 1553 q 690 1469 711 1510 q 637 1402 669 1428 q 556 1376 604 1376 q 486 1393 517 1376 q 427 1426 456 1410 q 365 1443 399 1443 q 308 1424 331 1443 q 278 1375 285 1404 l 232 1375 z "},"Â":{"ha":953,"x_min":-22,"x_max":974,"o":"m 664 21 l 408 785 l 403 785 l 393 825 l 460 1064 l 501 1064 l 850 21 l 664 21 m -22 0 l -22 35 l 311 35 l 311 0 l -22 0 m 249 328 l 249 363 l 699 363 l 699 328 l 249 328 m 497 0 l 497 35 l 974 35 l 974 0 l 497 0 m 97 21 l 460 1064 l 501 1064 l 417 825 l 143 21 l 97 21 m 251 1169 l 433 1353 l 519 1353 l 701 1169 l 642 1169 l 476 1254 l 311 1169 l 251 1169 z "},"Ấ":{"ha":953,"x_min":-22,"x_max":974,"o":"m 664 21 l 408 785 l 403 785 l 393 825 l 460 1064 l 501 1064 l 850 21 l 664 21 m -22 0 l -22 35 l 311 35 l 311 0 l -22 0 m 249 328 l 249 363 l 699 363 l 699 328 l 249 328 m 497 0 l 497 35 l 974 35 l 974 0 l 497 0 m 97 21 l 460 1064 l 501 1064 l 417 825 l 143 21 l 97 21 m 265 1150 l 433 1306 l 519 1306 l 688 1150 l 628 1150 l 476 1221 l 325 1150 l 265 1150 m 290 1331 l 500 1464 q 568 1505 549 1496 q 601 1514 588 1514 q 647 1498 631 1514 q 663 1454 663 1482 q 645 1408 663 1428 q 593 1381 628 1388 l 350 1331 l 290 1331 z "},"Ậ":{"ha":953,"x_min":-22,"x_max":974,"o":"m 664 21 l 408 785 l 403 785 l 393 825 l 460 1064 l 501 1064 l 850 21 l 664 21 m -22 0 l -22 35 l 311 35 l 311 0 l -22 0 m 249 328 l 249 363 l 699 363 l 699 328 l 249 328 m 497 0 l 497 35 l 974 35 l 974 0 l 497 0 m 97 21 l 460 1064 l 501 1064 l 417 825 l 143 21 l 97 21 m 476 -321 q 412 -294 439 -321 q 385 -229 385 -267 q 412 -165 385 -192 q 476 -137 439 -137 q 541 -165 514 -137 q 568 -229 568 -192 q 541 -294 568 -267 q 476 -321 514 -321 m 251 1169 l 433 1353 l 519 1353 l 701 1169 l 642 1169 l 476 1254 l 311 1169 l 251 1169 z "},"Ầ":{"ha":953,"x_min":-22,"x_max":974,"o":"m 664 21 l 408 785 l 403 785 l 393 825 l 460 1064 l 501 1064 l 850 21 l 664 21 m -22 0 l -22 35 l 311 35 l 311 0 l -22 0 m 249 328 l 249 363 l 699 363 l 699 328 l 249 328 m 497 0 l 497 35 l 974 35 l 974 0 l 497 0 m 97 21 l 460 1064 l 501 1064 l 417 825 l 143 21 l 97 21 m 265 1150 l 433 1306 l 519 1306 l 688 1150 l 628 1150 l 476 1221 l 325 1150 l 265 1150 m 603 1324 l 360 1374 q 308 1401 325 1381 q 290 1447 290 1421 q 306 1491 290 1475 q 351 1507 322 1507 q 385 1498 367 1507 q 453 1457 404 1489 l 663 1324 l 603 1324 z "},"Ẩ":{"ha":953,"x_min":-22,"x_max":974,"o":"m 664 21 l 408 785 l 403 785 l 393 825 l 460 1064 l 501 1064 l 850 21 l 664 21 m -22 0 l -22 35 l 311 35 l 311 0 l -22 0 m 249 328 l 249 363 l 699 363 l 699 328 l 249 328 m 497 0 l 497 35 l 974 35 l 974 0 l 497 0 m 97 21 l 460 1064 l 501 1064 l 417 825 l 143 21 l 97 21 m 265 1150 l 433 1306 l 519 1306 l 688 1150 l 628 1150 l 476 1221 l 325 1150 l 265 1150 m 640 1301 q 648 1334 640 1321 q 666 1359 656 1347 q 684 1381 676 1371 q 692 1404 692 1392 q 675 1456 692 1444 q 638 1467 658 1467 q 601 1457 615 1467 q 586 1432 586 1447 q 591 1420 586 1424 q 600 1411 596 1417 q 604 1393 604 1406 q 593 1371 604 1379 q 560 1363 582 1363 q 521 1376 536 1363 q 506 1411 506 1390 q 525 1477 506 1453 q 574 1512 544 1501 q 635 1522 604 1522 q 735 1494 697 1522 q 774 1407 774 1467 q 761 1372 774 1386 q 732 1347 749 1358 q 700 1326 715 1336 q 678 1301 685 1315 l 640 1301 z "},"Ẫ":{"ha":953,"x_min":-22,"x_max":974,"o":"m 664 21 l 408 785 l 403 785 l 393 825 l 460 1064 l 501 1064 l 850 21 l 664 21 m -22 0 l -22 35 l 311 35 l 311 0 l -22 0 m 249 328 l 249 363 l 699 363 l 699 328 l 249 328 m 497 0 l 497 35 l 974 35 l 974 0 l 497 0 m 97 21 l 460 1064 l 501 1064 l 417 825 l 143 21 l 97 21 m 265 1142 l 433 1297 l 519 1297 l 688 1142 l 628 1142 l 476 1213 l 325 1142 l 265 1142 m 232 1371 q 260 1453 239 1414 q 316 1519 282 1493 q 396 1544 350 1544 q 465 1528 433 1544 q 525 1494 496 1511 q 586 1478 554 1478 q 647 1502 626 1478 q 674 1549 667 1526 l 721 1549 q 690 1465 711 1506 q 637 1398 669 1424 q 556 1372 604 1372 q 486 1389 517 1372 q 427 1422 456 1406 q 365 1439 399 1439 q 308 1419 331 1439 q 278 1371 285 1400 l 232 1371 z "},"Ȁ":{"ha":953,"x_min":-22,"x_max":974,"o":"m 664 21 l 408 785 l 403 785 l 393 825 l 460 1064 l 501 1064 l 850 21 l 664 21 m -22 0 l -22 35 l 311 35 l 311 0 l -22 0 m 249 328 l 249 363 l 699 363 l 699 328 l 249 328 m 497 0 l 497 35 l 974 35 l 974 0 l 497 0 m 97 21 l 460 1064 l 501 1064 l 417 825 l 143 21 l 97 21 m 699 1169 l 511 1219 q 459 1248 476 1229 q 442 1293 442 1267 q 458 1337 442 1321 q 503 1353 474 1353 q 533 1343 518 1353 q 594 1297 549 1333 l 758 1169 l 699 1169 m 451 1169 l 264 1219 q 212 1248 229 1229 q 194 1293 194 1267 q 210 1337 194 1321 q 256 1353 226 1353 q 286 1343 271 1353 q 347 1297 301 1333 l 511 1169 l 451 1169 z "},"Ä":{"ha":953,"x_min":-22,"x_max":974,"o":"m 664 21 l 408 785 l 403 785 l 393 825 l 460 1064 l 501 1064 l 850 21 l 664 21 m -22 0 l -22 35 l 311 35 l 311 0 l -22 0 m 249 328 l 249 363 l 699 363 l 699 328 l 249 328 m 497 0 l 497 35 l 974 35 l 974 0 l 497 0 m 97 21 l 460 1064 l 501 1064 l 417 825 l 143 21 l 97 21 m 617 1149 q 559 1172 583 1149 q 535 1229 535 1196 q 559 1286 535 1263 q 617 1310 583 1310 q 674 1286 650 1310 q 697 1229 697 1263 q 674 1172 697 1196 q 617 1149 650 1149 m 336 1149 q 279 1172 303 1149 q 256 1229 256 1196 q 279 1286 256 1263 q 336 1310 303 1310 q 394 1286 369 1310 q 418 1229 418 1263 q 394 1172 418 1196 q 336 1149 369 1149 z "},"Ạ":{"ha":953,"x_min":-22,"x_max":974,"o":"m 664 21 l 408 785 l 403 785 l 393 825 l 460 1064 l 501 1064 l 850 21 l 664 21 m -22 0 l -22 35 l 311 35 l 311 0 l -22 0 m 249 328 l 249 363 l 699 363 l 699 328 l 249 328 m 497 0 l 497 35 l 974 35 l 974 0 l 497 0 m 97 21 l 460 1064 l 501 1064 l 417 825 l 143 21 l 97 21 m 476 -321 q 412 -294 439 -321 q 385 -229 385 -267 q 412 -165 385 -192 q 476 -137 439 -137 q 541 -165 514 -137 q 568 -229 568 -192 q 541 -294 568 -267 q 476 -321 514 -321 z "},"À":{"ha":953,"x_min":-22,"x_max":974,"o":"m 664 21 l 408 785 l 403 785 l 393 825 l 460 1064 l 501 1064 l 850 21 l 664 21 m -22 0 l -22 35 l 311 35 l 311 0 l -22 0 m 249 328 l 249 363 l 699 363 l 699 328 l 249 328 m 497 0 l 497 35 l 974 35 l 974 0 l 497 0 m 97 21 l 460 1064 l 501 1064 l 417 825 l 143 21 l 97 21 m 603 1169 l 360 1219 q 308 1247 325 1226 q 290 1293 290 1267 q 306 1337 290 1321 q 351 1353 322 1353 q 385 1344 367 1353 q 453 1303 404 1335 l 663 1169 l 603 1169 z "},"Ả":{"ha":953,"x_min":-22,"x_max":974,"o":"m 664 21 l 408 785 l 403 785 l 393 825 l 460 1064 l 501 1064 l 850 21 l 664 21 m -22 0 l -22 35 l 311 35 l 311 0 l -22 0 m 249 328 l 249 363 l 699 363 l 699 328 l 249 328 m 497 0 l 497 35 l 974 35 l 974 0 l 497 0 m 97 21 l 460 1064 l 501 1064 l 417 825 l 143 21 l 97 21 m 476 1142 q 484 1175 476 1161 q 502 1201 492 1189 q 520 1225 513 1213 q 528 1254 528 1238 q 511 1297 528 1286 q 474 1307 494 1307 q 437 1297 451 1307 q 422 1272 422 1288 q 427 1260 422 1264 q 436 1251 432 1257 q 440 1233 440 1246 q 429 1211 440 1219 q 396 1203 418 1203 q 357 1217 372 1203 q 342 1251 342 1231 q 361 1317 342 1293 q 410 1352 381 1342 q 471 1363 440 1363 q 572 1336 533 1363 q 610 1257 610 1310 q 597 1216 610 1232 q 568 1188 585 1200 q 536 1166 551 1176 q 514 1142 521 1156 l 476 1142 z "},"Ȃ":{"ha":953,"x_min":-22,"x_max":974,"o":"m 664 21 l 408 785 l 403 785 l 393 825 l 460 1064 l 501 1064 l 850 21 l 664 21 m -22 0 l -22 35 l 311 35 l 311 0 l -22 0 m 249 328 l 249 363 l 699 363 l 699 328 l 249 328 m 497 0 l 497 35 l 974 35 l 974 0 l 497 0 m 97 21 l 460 1064 l 501 1064 l 417 825 l 143 21 l 97 21 m 258 1169 q 314 1303 258 1254 q 476 1353 369 1353 q 640 1301 588 1353 q 693 1169 693 1250 l 646 1169 q 595 1237 643 1215 q 474 1258 547 1258 q 355 1238 401 1258 q 306 1169 308 1218 l 258 1169 z "},"Ā":{"ha":953,"x_min":-22,"x_max":974,"o":"m 664 21 l 408 785 l 403 785 l 393 825 l 460 1064 l 501 1064 l 850 21 l 664 21 m -22 0 l -22 35 l 311 35 l 311 0 l -22 0 m 249 328 l 249 363 l 699 363 l 699 328 l 249 328 m 497 0 l 497 35 l 974 35 l 974 0 l 497 0 m 97 21 l 460 1064 l 501 1064 l 417 825 l 143 21 l 97 21 m 254 1182 l 254 1274 l 699 1274 l 699 1182 l 254 1182 z "},"Ą":{"ha":953,"x_min":-22,"x_max":974,"o":"m 664 21 l 408 785 l 403 785 l 393 825 l 460 1064 l 501 1064 l 850 21 l 664 21 m -22 0 l -22 35 l 311 35 l 311 0 l -22 0 m 249 328 l 249 363 l 699 363 l 699 328 l 249 328 m 497 0 l 497 35 l 974 35 l 974 0 l 497 0 m 97 21 l 460 1064 l 501 1064 l 417 825 l 143 21 l 97 21 m 685 -290 q 594 -258 629 -290 q 560 -174 560 -226 q 579 -103 560 -137 q 644 -28 599 -68 q 765 61 689 11 l 815 61 q 697 -52 736 3 q 657 -160 657 -107 q 721 -233 657 -233 q 762 -224 740 -233 q 814 -193 783 -215 l 819 -193 l 819 -231 q 761 -274 797 -257 q 685 -290 725 -290 z "},"Å":{"ha":953,"x_min":-22,"x_max":974,"o":"m 664 21 l 408 785 l 403 785 l 393 825 l 460 1064 l 501 1064 l 850 21 l 664 21 m -22 0 l -22 35 l 311 35 l 311 0 l -22 0 m 249 328 l 249 363 l 699 363 l 699 328 l 249 328 m 497 0 l 497 35 l 974 35 l 974 0 l 497 0 m 97 21 l 460 1064 l 501 1064 l 417 825 l 143 21 l 97 21 m 476 1142 q 404 1172 435 1142 q 374 1246 374 1203 q 404 1317 374 1288 q 476 1346 435 1346 q 548 1317 518 1346 q 578 1246 578 1289 q 549 1172 578 1203 q 476 1142 519 1142 m 476 1188 q 516 1206 500 1188 q 532 1246 532 1224 q 515 1284 532 1268 q 476 1300 499 1300 q 437 1284 454 1300 q 419 1246 419 1268 q 437 1206 419 1224 q 476 1188 454 1188 z "},"Ǻ":{"ha":953,"x_min":-22,"x_max":974,"o":"m 664 21 l 408 785 l 403 785 l 393 825 l 460 1064 l 501 1064 l 850 21 l 664 21 m -22 0 l -22 35 l 311 35 l 311 0 l -22 0 m 249 328 l 249 363 l 699 363 l 699 328 l 249 328 m 497 0 l 497 35 l 974 35 l 974 0 l 497 0 m 97 21 l 460 1064 l 501 1064 l 417 825 l 143 21 l 97 21 m 476 1142 q 404 1172 435 1142 q 374 1246 374 1203 q 404 1317 374 1288 q 476 1346 435 1346 q 548 1317 518 1346 q 578 1246 578 1289 q 549 1172 578 1203 q 476 1142 519 1142 m 476 1188 q 516 1206 500 1188 q 532 1246 532 1224 q 515 1284 532 1268 q 476 1300 499 1300 q 437 1284 454 1300 q 419 1246 419 1268 q 437 1206 419 1224 q 476 1188 454 1188 m 290 1408 l 500 1542 q 568 1583 549 1574 q 601 1592 588 1592 q 647 1576 631 1592 q 663 1532 663 1560 q 645 1485 663 1506 q 593 1458 628 1465 l 350 1408 l 290 1408 z "},"Ã":{"ha":953,"x_min":-22,"x_max":974,"o":"m 664 21 l 408 785 l 403 785 l 393 825 l 460 1064 l 501 1064 l 850 21 l 664 21 m -22 0 l -22 35 l 311 35 l 311 0 l -22 0 m 249 328 l 249 363 l 699 363 l 699 328 l 249 328 m 497 0 l 497 35 l 974 35 l 974 0 l 497 0 m 97 21 l 460 1064 l 501 1064 l 417 825 l 143 21 l 97 21 m 232 1169 q 260 1252 239 1213 q 316 1317 282 1292 q 396 1343 350 1343 q 465 1326 433 1343 q 525 1293 496 1310 q 586 1276 554 1276 q 647 1301 626 1276 q 674 1347 667 1325 l 721 1347 q 690 1263 711 1304 q 637 1197 669 1222 q 556 1171 604 1171 q 486 1188 517 1171 q 427 1221 456 1204 q 365 1238 399 1238 q 308 1218 331 1238 q 278 1169 285 1199 l 232 1169 z "},"Æ":{"ha":1454,"x_min":14,"x_max":1403,"o":"m 14 0 l 14 35 l 150 35 l 614 1013 l 471 1013 l 471 1047 l 1361 1047 l 1361 763 l 1313 763 q 1285 887 1311 831 q 1210 978 1258 943 q 1093 1013 1163 1013 l 876 1013 l 876 539 q 1008 556 961 539 q 1073 615 1054 572 q 1092 731 1092 657 l 1140 731 l 1140 300 l 1092 300 q 1072 422 1090 378 q 1007 485 1053 465 q 876 504 961 504 l 876 35 l 1135 35 q 1252 75 1204 35 q 1326 182 1300 115 q 1354 326 1353 249 l 1403 326 l 1403 0 l 526 0 l 526 35 l 690 35 l 690 328 l 331 328 l 192 35 l 353 35 l 353 0 l 14 0 m 347 363 l 690 363 l 690 1013 l 657 1013 l 347 363 z "},"Ǽ":{"ha":1454,"x_min":14,"x_max":1403,"o":"m 14 0 l 14 35 l 150 35 l 614 1013 l 471 1013 l 471 1047 l 1361 1047 l 1361 763 l 1313 763 q 1285 887 1311 831 q 1210 978 1258 943 q 1093 1013 1163 1013 l 876 1013 l 876 539 q 1008 556 961 539 q 1073 615 1054 572 q 1092 731 1092 657 l 1140 731 l 1140 300 l 1092 300 q 1072 422 1090 378 q 1007 485 1053 465 q 876 504 961 504 l 876 35 l 1135 35 q 1252 75 1204 35 q 1326 182 1300 115 q 1354 326 1353 249 l 1403 326 l 1403 0 l 526 0 l 526 35 l 690 35 l 690 328 l 331 328 l 192 35 l 353 35 l 353 0 l 14 0 m 347 363 l 690 363 l 690 1013 l 657 1013 l 347 363 m 708 1169 l 918 1303 q 986 1344 967 1335 q 1019 1353 1006 1353 q 1065 1337 1049 1353 q 1081 1293 1081 1321 q 1063 1247 1081 1267 q 1011 1219 1046 1226 l 768 1169 l 708 1169 z "},"B":{"ha":976,"x_min":-8,"x_max":893,"o":"m -8 0 l -8 35 l 472 35 q 584 55 538 35 q 656 131 631 75 q 681 290 681 186 q 657 437 681 385 q 579 510 633 489 q 431 531 525 531 l 389 572 q 647 541 533 572 q 827 446 761 510 q 893 283 893 382 q 845 136 893 200 q 715 36 797 72 q 528 0 632 0 l -8 0 m 144 21 l 144 1047 l 331 1047 l 331 21 l 144 21 m 288 531 l 288 572 l 472 572 q 576 590 536 572 q 634 653 615 607 q 653 789 653 700 q 633 931 653 883 q 574 996 614 979 q 472 1013 533 1013 l -8 1013 l -8 1047 l 528 1047 q 693 1015 619 1047 q 810 925 767 982 q 854 794 854 868 q 803 657 854 717 q 665 564 751 597 q 472 531 579 531 l 288 531 z "},"C":{"ha":954,"x_min":64,"x_max":885,"o":"m 546 -17 q 356 27 444 -17 q 203 147 268 71 q 101 319 138 222 q 64 524 64 417 q 101 728 64 631 q 205 901 139 825 q 360 1020 271 976 q 550 1064 449 1064 q 673 1043 615 1064 q 783 978 731 1022 l 838 1047 l 872 1047 l 872 733 l 838 733 q 789 877 822 811 q 698 983 756 943 q 549 1022 640 1022 q 441 1001 489 1022 q 358 924 393 979 q 305 772 324 869 q 286 524 286 675 q 304 275 286 372 q 356 123 322 178 q 438 47 390 68 q 546 25 486 25 q 703 61 642 25 q 799 158 764 97 q 850 294 833 219 l 885 294 l 885 0 l 850 0 l 803 64 q 681 3 747 22 q 546 -17 614 -17 z "},"Ć":{"ha":954,"x_min":64,"x_max":885,"o":"m 546 -17 q 356 27 444 -17 q 203 147 268 71 q 101 319 138 222 q 64 524 64 417 q 101 728 64 631 q 205 901 139 825 q 360 1020 271 976 q 550 1064 449 1064 q 673 1043 615 1064 q 783 978 731 1022 l 838 1047 l 872 1047 l 872 733 l 838 733 q 789 877 822 811 q 698 983 756 943 q 549 1022 640 1022 q 441 1001 489 1022 q 358 924 393 979 q 305 772 324 869 q 286 524 286 675 q 304 275 286 372 q 356 123 322 178 q 438 47 390 68 q 546 25 486 25 q 703 61 642 25 q 799 158 764 97 q 850 294 833 219 l 885 294 l 885 0 l 850 0 l 803 64 q 681 3 747 22 q 546 -17 614 -17 m 365 1169 l 575 1303 q 643 1344 624 1335 q 676 1353 663 1353 q 722 1337 706 1353 q 738 1293 738 1321 q 720 1247 738 1267 q 668 1219 703 1226 l 425 1169 l 365 1169 z "},"Č":{"ha":954,"x_min":64,"x_max":885,"o":"m 546 -17 q 356 27 444 -17 q 203 147 268 71 q 101 319 138 222 q 64 524 64 417 q 101 728 64 631 q 205 901 139 825 q 360 1020 271 976 q 550 1064 449 1064 q 673 1043 615 1064 q 783 978 731 1022 l 838 1047 l 872 1047 l 872 733 l 838 733 q 789 877 822 811 q 698 983 756 943 q 549 1022 640 1022 q 441 1001 489 1022 q 358 924 393 979 q 305 772 324 869 q 286 524 286 675 q 304 275 286 372 q 356 123 322 178 q 438 47 390 68 q 546 25 486 25 q 703 61 642 25 q 799 158 764 97 q 850 294 833 219 l 885 294 l 885 0 l 850 0 l 803 64 q 681 3 747 22 q 546 -17 614 -17 m 508 1169 l 326 1353 l 386 1353 l 551 1268 l 717 1353 l 776 1353 l 594 1169 l 508 1169 z "},"Ç":{"ha":954,"x_min":64,"x_max":885,"o":"m 546 -17 q 356 27 444 -17 q 203 147 268 71 q 101 319 138 222 q 64 524 64 417 q 101 728 64 631 q 205 901 139 825 q 360 1020 271 976 q 550 1064 449 1064 q 673 1043 615 1064 q 783 978 731 1022 l 838 1047 l 872 1047 l 872 733 l 838 733 q 789 877 822 811 q 698 983 756 943 q 549 1022 640 1022 q 441 1001 489 1022 q 358 924 393 979 q 305 772 324 869 q 286 524 286 675 q 304 275 286 372 q 356 123 322 178 q 438 47 390 68 q 546 25 486 25 q 703 61 642 25 q 799 158 764 97 q 850 294 833 219 l 885 294 l 885 0 l 850 0 l 803 64 q 681 3 747 22 q 546 -17 614 -17 m 513 -314 q 442 -306 471 -314 q 401 -290 413 -297 l 417 -256 q 451 -266 428 -261 q 494 -271 474 -271 q 556 -253 533 -271 q 578 -201 578 -236 q 474 -125 578 -126 l 521 14 l 563 14 l 529 -92 l 556 -92 q 652 -117 615 -92 q 689 -192 689 -143 q 640 -281 689 -247 q 513 -314 590 -314 z "},"Ĉ":{"ha":954,"x_min":64,"x_max":885,"o":"m 546 -17 q 356 27 444 -17 q 203 147 268 71 q 101 319 138 222 q 64 524 64 417 q 101 728 64 631 q 205 901 139 825 q 360 1020 271 976 q 550 1064 449 1064 q 673 1043 615 1064 q 783 978 731 1022 l 838 1047 l 872 1047 l 872 733 l 838 733 q 789 877 822 811 q 698 983 756 943 q 549 1022 640 1022 q 441 1001 489 1022 q 358 924 393 979 q 305 772 324 869 q 286 524 286 675 q 304 275 286 372 q 356 123 322 178 q 438 47 390 68 q 546 25 486 25 q 703 61 642 25 q 799 158 764 97 q 850 294 833 219 l 885 294 l 885 0 l 850 0 l 803 64 q 681 3 747 22 q 546 -17 614 -17 m 326 1169 l 508 1353 l 594 1353 l 776 1169 l 717 1169 l 551 1254 l 386 1169 l 326 1169 z "},"Ċ":{"ha":954,"x_min":64,"x_max":885,"o":"m 546 -17 q 356 27 444 -17 q 203 147 268 71 q 101 319 138 222 q 64 524 64 417 q 101 728 64 631 q 205 901 139 825 q 360 1020 271 976 q 550 1064 449 1064 q 673 1043 615 1064 q 783 978 731 1022 l 838 1047 l 872 1047 l 872 733 l 838 733 q 789 877 822 811 q 698 983 756 943 q 549 1022 640 1022 q 441 1001 489 1022 q 358 924 393 979 q 305 772 324 869 q 286 524 286 675 q 304 275 286 372 q 356 123 322 178 q 438 47 390 68 q 546 25 486 25 q 703 61 642 25 q 799 158 764 97 q 850 294 833 219 l 885 294 l 885 0 l 850 0 l 803 64 q 681 3 747 22 q 546 -17 614 -17 m 551 1149 q 487 1176 514 1149 q 460 1240 460 1203 q 487 1305 460 1278 q 551 1332 514 1332 q 616 1305 589 1332 q 643 1240 643 1278 q 616 1176 643 1203 q 551 1149 589 1149 z "},"D":{"ha":1079,"x_min":15,"x_max":1018,"o":"m 15 0 l 15 35 l 481 35 q 626 56 567 35 q 724 130 686 76 q 778 279 761 183 q 796 524 796 375 q 778 768 796 672 q 723 917 761 864 q 625 992 685 971 q 479 1013 565 1013 l 15 1013 l 15 1047 l 524 1047 q 717 1005 628 1047 q 875 889 807 963 q 981 721 943 815 q 1018 524 1018 626 q 980 326 1018 421 q 874 158 942 232 q 717 42 807 85 q 522 0 626 0 l 15 0 m 168 21 l 168 1047 l 354 1047 l 354 21 l 168 21 z "},"Ǳ":{"ha":1983,"x_min":15,"x_max":1924,"o":"m 15 0 l 15 35 l 481 35 q 626 56 567 35 q 724 130 686 76 q 778 279 761 183 q 796 524 796 375 q 778 768 796 672 q 723 917 761 864 q 625 992 685 971 q 479 1013 565 1013 l 15 1013 l 15 1047 l 524 1047 q 717 1005 628 1047 q 875 889 807 963 q 981 721 943 815 q 1018 524 1018 626 q 980 326 1018 421 q 874 158 942 232 q 717 42 807 85 q 522 0 626 0 l 15 0 m 168 21 l 168 1047 l 354 1047 l 354 21 l 168 21 m 1118 10 l 1118 44 l 1699 1007 l 1699 1015 l 1924 1024 l 1924 999 l 1347 40 l 1347 25 l 1118 10 m 1118 0 l 1118 35 l 1656 35 q 1773 77 1725 35 q 1847 190 1821 119 q 1875 340 1874 260 l 1924 340 l 1924 0 l 1118 0 m 1174 763 l 1174 1047 l 1924 1047 l 1924 1013 l 1442 1013 q 1325 978 1374 1013 q 1250 887 1276 943 q 1222 763 1224 831 l 1174 763 z "},"Ǆ":{"ha":1983,"x_min":15,"x_max":1924,"o":"m 15 0 l 15 35 l 481 35 q 626 56 567 35 q 724 130 686 76 q 778 279 761 183 q 796 524 796 375 q 778 768 796 672 q 723 917 761 864 q 625 992 685 971 q 479 1013 565 1013 l 15 1013 l 15 1047 l 524 1047 q 717 1005 628 1047 q 875 889 807 963 q 981 721 943 815 q 1018 524 1018 626 q 980 326 1018 421 q 874 158 942 232 q 717 42 807 85 q 522 0 626 0 l 15 0 m 168 21 l 168 1047 l 354 1047 l 354 21 l 168 21 m 1118 10 l 1118 44 l 1699 1007 l 1699 1015 l 1924 1024 l 1924 999 l 1347 40 l 1347 25 l 1118 10 m 1118 0 l 1118 35 l 1656 35 q 1773 77 1725 35 q 1847 190 1821 119 q 1875 340 1874 260 l 1924 340 l 1924 0 l 1118 0 m 1174 763 l 1174 1047 l 1924 1047 l 1924 1013 l 1442 1013 q 1325 978 1374 1013 q 1250 887 1276 943 q 1222 763 1224 831 l 1174 763 m 1489 1169 l 1307 1353 l 1367 1353 l 1532 1268 l 1697 1353 l 1757 1353 l 1575 1169 l 1489 1169 z "},"Ð":{"ha":1079,"x_min":3,"x_max":1018,"o":"m 15 0 l 15 35 l 481 35 q 626 56 567 35 q 724 130 686 76 q 778 279 761 183 q 796 524 796 375 q 778 768 796 672 q 723 917 761 864 q 625 992 685 971 q 479 1013 565 1013 l 15 1013 l 15 1047 l 524 1047 q 717 1005 628 1047 q 875 889 807 963 q 981 721 943 815 q 1018 524 1018 626 q 980 326 1018 421 q 874 158 942 232 q 717 42 807 85 q 522 0 626 0 l 15 0 m 168 21 l 168 1047 l 354 1047 l 354 21 l 168 21 m 3 515 l 3 564 l 510 564 l 510 515 l 3 515 z "},"Ď":{"ha":1079,"x_min":15,"x_max":1018,"o":"m 15 0 l 15 35 l 481 35 q 626 56 567 35 q 724 130 686 76 q 778 279 761 183 q 796 524 796 375 q 778 768 796 672 q 723 917 761 864 q 625 992 685 971 q 479 1013 565 1013 l 15 1013 l 15 1047 l 524 1047 q 717 1005 628 1047 q 875 889 807 963 q 981 721 943 815 q 1018 524 1018 626 q 980 326 1018 421 q 874 158 942 232 q 717 42 807 85 q 522 0 626 0 l 15 0 m 168 21 l 168 1047 l 354 1047 l 354 21 l 168 21 m 497 1169 l 315 1353 l 375 1353 l 540 1268 l 706 1353 l 765 1353 l 583 1169 l 497 1169 z "},"Đ":{"ha":1079,"x_min":3,"x_max":1018,"o":"m 15 0 l 15 35 l 481 35 q 626 56 567 35 q 724 130 686 76 q 778 279 761 183 q 796 524 796 375 q 778 768 796 672 q 723 917 761 864 q 625 992 685 971 q 479 1013 565 1013 l 15 1013 l 15 1047 l 524 1047 q 717 1005 628 1047 q 875 889 807 963 q 981 721 943 815 q 1018 524 1018 626 q 980 326 1018 421 q 874 158 942 232 q 717 42 807 85 q 522 0 626 0 l 15 0 m 168 21 l 168 1047 l 354 1047 l 354 21 l 168 21 m 3 515 l 3 564 l 510 564 l 510 515 l 3 515 z "},"Ḍ":{"ha":1079,"x_min":15,"x_max":1018,"o":"m 15 0 l 15 35 l 481 35 q 626 56 567 35 q 724 130 686 76 q 778 279 761 183 q 796 524 796 375 q 778 768 796 672 q 723 917 761 864 q 625 992 685 971 q 479 1013 565 1013 l 15 1013 l 15 1047 l 524 1047 q 717 1005 628 1047 q 875 889 807 963 q 981 721 943 815 q 1018 524 1018 626 q 980 326 1018 421 q 874 158 942 232 q 717 42 807 85 q 522 0 626 0 l 15 0 m 168 21 l 168 1047 l 354 1047 l 354 21 l 168 21 m 540 -321 q 476 -294 503 -321 q 449 -229 449 -267 q 476 -165 449 -192 q 540 -137 503 -137 q 605 -165 578 -137 q 632 -229 632 -192 q 605 -294 632 -267 q 540 -321 578 -321 z "},"ǲ":{"ha":1746,"x_min":15,"x_max":1678,"o":"m 15 0 l 15 35 l 481 35 q 626 56 567 35 q 724 130 686 76 q 778 279 761 183 q 796 524 796 375 q 778 768 796 672 q 723 917 761 864 q 625 992 685 971 q 479 1013 565 1013 l 15 1013 l 15 1047 l 524 1047 q 717 1005 628 1047 q 875 889 807 963 q 981 721 943 815 q 1018 524 1018 626 q 980 326 1018 421 q 874 158 942 232 q 717 42 807 85 q 522 0 626 0 l 15 0 m 168 21 l 168 1047 l 354 1047 l 354 21 l 168 21 m 1147 21 l 1143 49 l 1515 611 l 1646 611 l 1665 576 l 1303 21 l 1147 21 m 1143 0 l 1143 49 l 1154 35 l 1451 35 q 1583 85 1529 35 q 1642 235 1638 135 l 1643 257 l 1678 257 l 1678 0 l 1143 0 m 1174 382 l 1174 625 l 1665 625 l 1665 576 l 1654 590 l 1400 590 q 1298 562 1340 590 q 1233 486 1256 533 q 1208 382 1210 439 l 1174 382 z "},"ǅ":{"ha":1746,"x_min":15,"x_max":1678,"o":"m 15 0 l 15 35 l 481 35 q 626 56 567 35 q 724 130 686 76 q 778 279 761 183 q 796 524 796 375 q 778 768 796 672 q 723 917 761 864 q 625 992 685 971 q 479 1013 565 1013 l 15 1013 l 15 1047 l 524 1047 q 717 1005 628 1047 q 875 889 807 963 q 981 721 943 815 q 1018 524 1018 626 q 980 326 1018 421 q 874 158 942 232 q 717 42 807 85 q 522 0 626 0 l 15 0 m 168 21 l 168 1047 l 354 1047 l 354 21 l 168 21 m 1147 21 l 1143 49 l 1515 611 l 1646 611 l 1665 576 l 1303 21 l 1147 21 m 1143 0 l 1143 49 l 1154 35 l 1451 35 q 1583 85 1529 35 q 1642 235 1638 135 l 1643 257 l 1678 257 l 1678 0 l 1143 0 m 1174 382 l 1174 625 l 1665 625 l 1665 576 l 1654 590 l 1400 590 q 1298 562 1340 590 q 1233 486 1256 533 q 1208 382 1210 439 l 1174 382 m 1369 728 l 1188 1006 l 1247 1006 l 1413 858 l 1578 1006 l 1638 1006 l 1456 728 l 1369 728 z "},"E":{"ha":960,"x_min":11,"x_max":888,"o":"m 11 0 l 11 35 l 619 35 q 737 75 689 35 q 811 182 785 115 q 839 326 838 249 l 888 326 l 888 0 l 11 0 m 175 21 l 175 1033 l 361 1033 l 361 21 l 175 21 m 576 300 q 556 422 575 378 q 490 485 536 467 q 357 504 443 504 l 357 539 q 491 556 443 539 q 558 614 539 572 q 576 731 576 656 l 625 731 l 625 300 l 576 300 m 797 763 q 769 887 796 831 q 695 978 743 943 q 578 1013 647 1013 l 11 1013 l 11 1047 l 846 1047 l 846 763 l 797 763 z "},"É":{"ha":960,"x_min":11,"x_max":888,"o":"m 11 0 l 11 35 l 619 35 q 737 75 689 35 q 811 182 785 115 q 839 326 838 249 l 888 326 l 888 0 l 11 0 m 175 21 l 175 1033 l 361 1033 l 361 21 l 175 21 m 576 300 q 556 422 575 378 q 490 485 536 467 q 357 504 443 504 l 357 539 q 491 556 443 539 q 558 614 539 572 q 576 731 576 656 l 625 731 l 625 300 l 576 300 m 797 763 q 769 887 796 831 q 695 978 743 943 q 578 1013 647 1013 l 11 1013 l 11 1047 l 846 1047 l 846 763 l 797 763 m 294 1169 l 504 1303 q 572 1344 553 1335 q 606 1353 592 1353 q 651 1337 635 1353 q 667 1293 667 1321 q 649 1247 667 1267 q 597 1219 632 1226 l 354 1169 l 294 1169 z "},"Ĕ":{"ha":960,"x_min":11,"x_max":888,"o":"m 11 0 l 11 35 l 619 35 q 737 75 689 35 q 811 182 785 115 q 839 326 838 249 l 888 326 l 888 0 l 11 0 m 175 21 l 175 1033 l 361 1033 l 361 21 l 175 21 m 576 300 q 556 422 575 378 q 490 485 536 467 q 357 504 443 504 l 357 539 q 491 556 443 539 q 558 614 539 572 q 576 731 576 656 l 625 731 l 625 300 l 576 300 m 797 763 q 769 887 796 831 q 695 978 743 943 q 578 1013 647 1013 l 11 1013 l 11 1047 l 846 1047 l 846 763 l 797 763 m 481 1169 q 318 1219 374 1169 q 263 1353 263 1268 l 310 1353 q 359 1285 313 1306 q 478 1264 406 1264 q 599 1285 551 1264 q 650 1353 647 1307 l 697 1353 q 644 1221 697 1272 q 481 1169 592 1169 z "},"Ě":{"ha":960,"x_min":11,"x_max":888,"o":"m 11 0 l 11 35 l 619 35 q 737 75 689 35 q 811 182 785 115 q 839 326 838 249 l 888 326 l 888 0 l 11 0 m 175 21 l 175 1033 l 361 1033 l 361 21 l 175 21 m 576 300 q 556 422 575 378 q 490 485 536 467 q 357 504 443 504 l 357 539 q 491 556 443 539 q 558 614 539 572 q 576 731 576 656 l 625 731 l 625 300 l 576 300 m 797 763 q 769 887 796 831 q 695 978 743 943 q 578 1013 647 1013 l 11 1013 l 11 1047 l 846 1047 l 846 763 l 797 763 m 438 1169 l 256 1353 l 315 1353 l 481 1268 l 646 1353 l 706 1353 l 524 1169 l 438 1169 z "},"Ê":{"ha":960,"x_min":11,"x_max":888,"o":"m 11 0 l 11 35 l 619 35 q 737 75 689 35 q 811 182 785 115 q 839 326 838 249 l 888 326 l 888 0 l 11 0 m 175 21 l 175 1033 l 361 1033 l 361 21 l 175 21 m 576 300 q 556 422 575 378 q 490 485 536 467 q 357 504 443 504 l 357 539 q 491 556 443 539 q 558 614 539 572 q 576 731 576 656 l 625 731 l 625 300 l 576 300 m 797 763 q 769 887 796 831 q 695 978 743 943 q 578 1013 647 1013 l 11 1013 l 11 1047 l 846 1047 l 846 763 l 797 763 m 256 1169 l 438 1353 l 524 1353 l 706 1169 l 646 1169 l 481 1254 l 315 1169 l 256 1169 z "},"Ế":{"ha":960,"x_min":11,"x_max":888,"o":"m 11 0 l 11 35 l 619 35 q 737 75 689 35 q 811 182 785 115 q 839 326 838 249 l 888 326 l 888 0 l 11 0 m 175 21 l 175 1033 l 361 1033 l 361 21 l 175 21 m 576 300 q 556 422 575 378 q 490 485 536 467 q 357 504 443 504 l 357 539 q 491 556 443 539 q 558 614 539 572 q 576 731 576 656 l 625 731 l 625 300 l 576 300 m 797 763 q 769 887 796 831 q 695 978 743 943 q 578 1013 647 1013 l 11 1013 l 11 1047 l 846 1047 l 846 763 l 797 763 m 269 1150 l 438 1306 l 524 1306 l 692 1150 l 632 1150 l 481 1221 l 329 1150 l 269 1150 m 294 1331 l 504 1464 q 572 1505 553 1496 q 606 1514 592 1514 q 651 1498 635 1514 q 667 1454 667 1482 q 649 1408 667 1428 q 597 1381 632 1388 l 354 1331 l 294 1331 z "},"Ệ":{"ha":960,"x_min":11,"x_max":888,"o":"m 11 0 l 11 35 l 619 35 q 737 75 689 35 q 811 182 785 115 q 839 326 838 249 l 888 326 l 888 0 l 11 0 m 175 21 l 175 1033 l 361 1033 l 361 21 l 175 21 m 576 300 q 556 422 575 378 q 490 485 536 467 q 357 504 443 504 l 357 539 q 491 556 443 539 q 558 614 539 572 q 576 731 576 656 l 625 731 l 625 300 l 576 300 m 797 763 q 769 887 796 831 q 695 978 743 943 q 578 1013 647 1013 l 11 1013 l 11 1047 l 846 1047 l 846 763 l 797 763 m 481 -321 q 416 -294 443 -321 q 389 -229 389 -267 q 416 -165 389 -192 q 481 -137 443 -137 q 545 -165 518 -137 q 572 -229 572 -192 q 545 -294 572 -267 q 481 -321 518 -321 m 256 1169 l 438 1353 l 524 1353 l 706 1169 l 646 1169 l 481 1254 l 315 1169 l 256 1169 z "},"Ề":{"ha":960,"x_min":11,"x_max":888,"o":"m 11 0 l 11 35 l 619 35 q 737 75 689 35 q 811 182 785 115 q 839 326 838 249 l 888 326 l 888 0 l 11 0 m 175 21 l 175 1033 l 361 1033 l 361 21 l 175 21 m 576 300 q 556 422 575 378 q 490 485 536 467 q 357 504 443 504 l 357 539 q 491 556 443 539 q 558 614 539 572 q 576 731 576 656 l 625 731 l 625 300 l 576 300 m 797 763 q 769 887 796 831 q 695 978 743 943 q 578 1013 647 1013 l 11 1013 l 11 1047 l 846 1047 l 846 763 l 797 763 m 269 1150 l 438 1306 l 524 1306 l 692 1150 l 632 1150 l 481 1221 l 329 1150 l 269 1150 m 607 1324 l 364 1374 q 312 1401 329 1381 q 294 1447 294 1421 q 310 1491 294 1475 q 356 1507 326 1507 q 390 1498 371 1507 q 457 1457 408 1489 l 667 1324 l 607 1324 z "},"Ể":{"ha":960,"x_min":11,"x_max":888,"o":"m 11 0 l 11 35 l 619 35 q 737 75 689 35 q 811 182 785 115 q 839 326 838 249 l 888 326 l 888 0 l 11 0 m 175 21 l 175 1033 l 361 1033 l 361 21 l 175 21 m 576 300 q 556 422 575 378 q 490 485 536 467 q 357 504 443 504 l 357 539 q 491 556 443 539 q 558 614 539 572 q 576 731 576 656 l 625 731 l 625 300 l 576 300 m 797 763 q 769 887 796 831 q 695 978 743 943 q 578 1013 647 1013 l 11 1013 l 11 1047 l 846 1047 l 846 763 l 797 763 m 269 1150 l 438 1306 l 524 1306 l 692 1150 l 632 1150 l 481 1221 l 329 1150 l 269 1150 m 644 1301 q 652 1334 644 1321 q 670 1359 660 1347 q 688 1381 681 1371 q 696 1404 696 1392 q 679 1456 696 1444 q 642 1467 663 1467 q 605 1457 619 1467 q 590 1432 590 1447 q 595 1420 590 1424 q 604 1411 600 1417 q 608 1393 608 1406 q 597 1371 608 1379 q 564 1363 586 1363 q 525 1376 540 1363 q 510 1411 510 1390 q 529 1477 510 1453 q 578 1512 549 1501 q 639 1522 608 1522 q 740 1494 701 1522 q 778 1407 778 1467 q 765 1372 778 1386 q 736 1347 753 1358 q 704 1326 719 1336 q 682 1301 689 1315 l 644 1301 z "},"Ễ":{"ha":960,"x_min":11,"x_max":888,"o":"m 11 0 l 11 35 l 619 35 q 737 75 689 35 q 811 182 785 115 q 839 326 838 249 l 888 326 l 888 0 l 11 0 m 175 21 l 175 1033 l 361 1033 l 361 21 l 175 21 m 576 300 q 556 422 575 378 q 490 485 536 467 q 357 504 443 504 l 357 539 q 491 556 443 539 q 558 614 539 572 q 576 731 576 656 l 625 731 l 625 300 l 576 300 m 797 763 q 769 887 796 831 q 695 978 743 943 q 578 1013 647 1013 l 11 1013 l 11 1047 l 846 1047 l 846 763 l 797 763 m 269 1142 l 438 1297 l 524 1297 l 692 1142 l 632 1142 l 481 1213 l 329 1142 l 269 1142 m 236 1371 q 265 1453 243 1414 q 320 1519 286 1493 q 400 1544 354 1544 q 469 1528 438 1544 q 529 1494 500 1511 q 590 1478 558 1478 q 651 1502 631 1478 q 678 1549 671 1526 l 725 1549 q 694 1465 715 1506 q 641 1398 674 1424 q 560 1372 608 1372 q 490 1389 521 1372 q 431 1422 460 1406 q 369 1439 403 1439 q 312 1419 335 1439 q 282 1371 289 1400 l 236 1371 z "},"Ȅ":{"ha":960,"x_min":11,"x_max":888,"o":"m 11 0 l 11 35 l 619 35 q 737 75 689 35 q 811 182 785 115 q 839 326 838 249 l 888 326 l 888 0 l 11 0 m 175 21 l 175 1033 l 361 1033 l 361 21 l 175 21 m 576 300 q 556 422 575 378 q 490 485 536 467 q 357 504 443 504 l 357 539 q 491 556 443 539 q 558 614 539 572 q 576 731 576 656 l 625 731 l 625 300 l 576 300 m 797 763 q 769 887 796 831 q 695 978 743 943 q 578 1013 647 1013 l 11 1013 l 11 1047 l 846 1047 l 846 763 l 797 763 m 703 1169 l 515 1219 q 463 1248 481 1229 q 446 1293 446 1267 q 462 1337 446 1321 q 507 1353 478 1353 q 538 1343 522 1353 q 599 1297 553 1333 l 763 1169 l 703 1169 m 456 1169 l 268 1219 q 216 1248 233 1229 q 199 1293 199 1267 q 215 1337 199 1321 q 260 1353 231 1353 q 290 1343 275 1353 q 351 1297 306 1333 l 515 1169 l 456 1169 z "},"Ë":{"ha":960,"x_min":11,"x_max":888,"o":"m 11 0 l 11 35 l 619 35 q 737 75 689 35 q 811 182 785 115 q 839 326 838 249 l 888 326 l 888 0 l 11 0 m 175 21 l 175 1033 l 361 1033 l 361 21 l 175 21 m 576 300 q 556 422 575 378 q 490 485 536 467 q 357 504 443 504 l 357 539 q 491 556 443 539 q 558 614 539 572 q 576 731 576 656 l 625 731 l 625 300 l 576 300 m 797 763 q 769 887 796 831 q 695 978 743 943 q 578 1013 647 1013 l 11 1013 l 11 1047 l 846 1047 l 846 763 l 797 763 m 621 1149 q 563 1172 588 1149 q 539 1229 539 1196 q 563 1286 539 1263 q 621 1310 588 1310 q 678 1286 654 1310 q 701 1229 701 1263 q 678 1172 701 1196 q 621 1149 654 1149 m 340 1149 q 283 1172 307 1149 q 260 1229 260 1196 q 283 1286 260 1263 q 340 1310 307 1310 q 398 1286 374 1310 q 422 1229 422 1263 q 398 1172 422 1196 q 340 1149 374 1149 z "},"Ė":{"ha":960,"x_min":11,"x_max":888,"o":"m 11 0 l 11 35 l 619 35 q 737 75 689 35 q 811 182 785 115 q 839 326 838 249 l 888 326 l 888 0 l 11 0 m 175 21 l 175 1033 l 361 1033 l 361 21 l 175 21 m 576 300 q 556 422 575 378 q 490 485 536 467 q 357 504 443 504 l 357 539 q 491 556 443 539 q 558 614 539 572 q 576 731 576 656 l 625 731 l 625 300 l 576 300 m 797 763 q 769 887 796 831 q 695 978 743 943 q 578 1013 647 1013 l 11 1013 l 11 1047 l 846 1047 l 846 763 l 797 763 m 481 1149 q 416 1176 443 1149 q 389 1240 389 1203 q 416 1305 389 1278 q 481 1332 443 1332 q 545 1305 518 1332 q 572 1240 572 1278 q 545 1176 572 1203 q 481 1149 518 1149 z "},"Ẹ":{"ha":960,"x_min":11,"x_max":888,"o":"m 11 0 l 11 35 l 619 35 q 737 75 689 35 q 811 182 785 115 q 839 326 838 249 l 888 326 l 888 0 l 11 0 m 175 21 l 175 1033 l 361 1033 l 361 21 l 175 21 m 576 300 q 556 422 575 378 q 490 485 536 467 q 357 504 443 504 l 357 539 q 491 556 443 539 q 558 614 539 572 q 576 731 576 656 l 625 731 l 625 300 l 576 300 m 797 763 q 769 887 796 831 q 695 978 743 943 q 578 1013 647 1013 l 11 1013 l 11 1047 l 846 1047 l 846 763 l 797 763 m 481 -321 q 416 -294 443 -321 q 389 -229 389 -267 q 416 -165 389 -192 q 481 -137 443 -137 q 545 -165 518 -137 q 572 -229 572 -192 q 545 -294 572 -267 q 481 -321 518 -321 z "},"È":{"ha":960,"x_min":11,"x_max":888,"o":"m 11 0 l 11 35 l 619 35 q 737 75 689 35 q 811 182 785 115 q 839 326 838 249 l 888 326 l 888 0 l 11 0 m 175 21 l 175 1033 l 361 1033 l 361 21 l 175 21 m 576 300 q 556 422 575 378 q 490 485 536 467 q 357 504 443 504 l 357 539 q 491 556 443 539 q 558 614 539 572 q 576 731 576 656 l 625 731 l 625 300 l 576 300 m 797 763 q 769 887 796 831 q 695 978 743 943 q 578 1013 647 1013 l 11 1013 l 11 1047 l 846 1047 l 846 763 l 797 763 m 607 1169 l 364 1219 q 312 1247 329 1226 q 294 1293 294 1267 q 310 1337 294 1321 q 356 1353 326 1353 q 390 1344 371 1353 q 457 1303 408 1335 l 667 1169 l 607 1169 z "},"Ẻ":{"ha":960,"x_min":11,"x_max":888,"o":"m 11 0 l 11 35 l 619 35 q 737 75 689 35 q 811 182 785 115 q 839 326 838 249 l 888 326 l 888 0 l 11 0 m 175 21 l 175 1033 l 361 1033 l 361 21 l 175 21 m 576 300 q 556 422 575 378 q 490 485 536 467 q 357 504 443 504 l 357 539 q 491 556 443 539 q 558 614 539 572 q 576 731 576 656 l 625 731 l 625 300 l 576 300 m 797 763 q 769 887 796 831 q 695 978 743 943 q 578 1013 647 1013 l 11 1013 l 11 1047 l 846 1047 l 846 763 l 797 763 m 481 1142 q 488 1175 481 1161 q 506 1201 496 1189 q 524 1225 517 1213 q 532 1254 532 1238 q 515 1297 532 1286 q 478 1307 499 1307 q 441 1297 456 1307 q 426 1272 426 1288 q 431 1260 426 1264 q 440 1251 436 1257 q 444 1233 444 1246 q 433 1211 444 1219 q 400 1203 422 1203 q 361 1217 376 1203 q 346 1251 346 1231 q 365 1317 346 1293 q 415 1352 385 1342 q 475 1363 444 1363 q 576 1336 538 1363 q 614 1257 614 1310 q 601 1216 614 1232 q 572 1188 589 1200 q 540 1166 556 1176 q 518 1142 525 1156 l 481 1142 z "},"Ȇ":{"ha":960,"x_min":11,"x_max":888,"o":"m 11 0 l 11 35 l 619 35 q 737 75 689 35 q 811 182 785 115 q 839 326 838 249 l 888 326 l 888 0 l 11 0 m 175 21 l 175 1033 l 361 1033 l 361 21 l 175 21 m 576 300 q 556 422 575 378 q 490 485 536 467 q 357 504 443 504 l 357 539 q 491 556 443 539 q 558 614 539 572 q 576 731 576 656 l 625 731 l 625 300 l 576 300 m 797 763 q 769 887 796 831 q 695 978 743 943 q 578 1013 647 1013 l 11 1013 l 11 1047 l 846 1047 l 846 763 l 797 763 m 263 1169 q 318 1303 263 1254 q 481 1353 374 1353 q 644 1301 592 1353 q 697 1169 697 1250 l 650 1169 q 599 1237 647 1215 q 478 1258 551 1258 q 359 1238 406 1258 q 310 1169 313 1218 l 263 1169 z "},"Ē":{"ha":960,"x_min":11,"x_max":888,"o":"m 11 0 l 11 35 l 619 35 q 737 75 689 35 q 811 182 785 115 q 839 326 838 249 l 888 326 l 888 0 l 11 0 m 175 21 l 175 1033 l 361 1033 l 361 21 l 175 21 m 576 300 q 556 422 575 378 q 490 485 536 467 q 357 504 443 504 l 357 539 q 491 556 443 539 q 558 614 539 572 q 576 731 576 656 l 625 731 l 625 300 l 576 300 m 797 763 q 769 887 796 831 q 695 978 743 943 q 578 1013 647 1013 l 11 1013 l 11 1047 l 846 1047 l 846 763 l 797 763 m 258 1182 l 258 1274 l 703 1274 l 703 1182 l 258 1182 z "},"Ę":{"ha":960,"x_min":11,"x_max":888,"o":"m 11 0 l 11 35 l 619 35 q 737 75 689 35 q 811 182 785 115 q 839 326 838 249 l 888 326 l 888 0 l 11 0 m 175 21 l 175 1033 l 361 1033 l 361 21 l 175 21 m 576 300 q 556 422 575 378 q 490 485 536 467 q 357 504 443 504 l 357 539 q 491 556 443 539 q 558 614 539 572 q 576 731 576 656 l 625 731 l 625 300 l 576 300 m 797 763 q 769 887 796 831 q 695 978 743 943 q 578 1013 647 1013 l 11 1013 l 11 1047 l 846 1047 l 846 763 l 797 763 m 729 -337 q 639 -306 674 -337 q 604 -221 604 -274 q 624 -150 604 -185 q 688 -76 643 -115 q 810 14 733 -36 l 860 14 q 741 -99 781 -44 q 701 -207 701 -154 q 765 -281 701 -281 q 806 -272 785 -281 q 858 -240 828 -262 l 864 -240 l 864 -278 q 806 -321 842 -304 q 729 -337 769 -337 z "},"Ẽ":{"ha":960,"x_min":11,"x_max":888,"o":"m 11 0 l 11 35 l 619 35 q 737 75 689 35 q 811 182 785 115 q 839 326 838 249 l 888 326 l 888 0 l 11 0 m 175 21 l 175 1033 l 361 1033 l 361 21 l 175 21 m 576 300 q 556 422 575 378 q 490 485 536 467 q 357 504 443 504 l 357 539 q 491 556 443 539 q 558 614 539 572 q 576 731 576 656 l 625 731 l 625 300 l 576 300 m 797 763 q 769 887 796 831 q 695 978 743 943 q 578 1013 647 1013 l 11 1013 l 11 1047 l 846 1047 l 846 763 l 797 763 m 236 1169 q 265 1252 243 1213 q 320 1317 286 1292 q 400 1343 354 1343 q 469 1326 438 1343 q 529 1293 500 1310 q 590 1276 558 1276 q 651 1301 631 1276 q 678 1347 671 1325 l 725 1347 q 694 1263 715 1304 q 641 1197 674 1222 q 560 1171 608 1171 q 490 1188 521 1171 q 431 1221 460 1204 q 369 1238 403 1238 q 312 1218 335 1238 q 282 1169 289 1199 l 236 1169 z "},"Ə":{"ha":1046,"x_min":72,"x_max":1004,"o":"m 524 -18 q 353 15 435 -18 q 209 111 272 49 q 109 263 146 174 q 72 463 72 351 l 72 476 l 828 476 l 828 429 l 299 429 l 299 254 q 356 80 299 136 q 528 24 413 24 q 642 45 594 24 q 722 121 690 67 q 767 272 753 175 q 782 519 782 369 q 758 815 782 706 q 678 971 733 924 q 531 1018 624 1018 q 360 980 440 1018 q 219 873 279 942 q 126 713 158 804 l 79 713 q 177 896 110 818 q 335 1017 244 974 q 524 1061 425 1061 q 711 1017 624 1061 q 865 899 799 974 q 967 727 931 824 q 1004 525 1004 631 q 970 328 1004 425 q 873 153 936 232 q 722 28 810 75 q 524 -18 633 -18 z "},"F":{"ha":914,"x_min":15,"x_max":864,"o":"m 815 707 q 788 858 814 789 q 713 970 761 928 q 596 1013 665 1013 l 15 1013 l 15 1047 l 864 1047 l 864 707 l 815 707 m 15 0 l 15 35 l 518 35 l 518 0 l 15 0 m 179 21 l 179 1047 l 365 1047 l 365 21 l 179 21 m 581 300 q 560 422 579 378 q 494 485 540 467 q 361 504 447 504 l 361 539 q 495 556 447 539 q 562 614 543 572 q 581 731 581 656 l 629 731 l 629 300 l 581 300 z "},"G":{"ha":1024,"x_min":63,"x_max":1004,"o":"m 529 -17 q 335 28 421 -17 q 188 148 249 72 q 95 319 128 224 q 63 514 63 414 q 99 722 63 622 q 201 898 136 821 q 355 1019 267 975 q 547 1064 443 1064 q 668 1043 613 1064 q 775 978 724 1022 l 836 1047 l 871 1047 l 871 733 l 836 733 q 788 877 821 811 q 697 983 754 943 q 547 1022 639 1022 q 441 1000 489 1022 q 358 922 393 978 q 303 765 322 865 q 285 507 285 664 q 301 269 285 363 q 349 122 318 175 q 424 49 379 69 q 525 28 469 28 q 666 72 615 28 q 717 194 717 115 l 717 393 l 924 393 l 924 360 q 869 158 924 242 q 724 28 814 74 q 529 -17 635 -17 m 546 372 l 546 407 l 1004 407 l 1004 372 l 546 372 z "},"Ǵ":{"ha":1024,"x_min":63,"x_max":1004,"o":"m 529 -17 q 335 28 421 -17 q 188 148 249 72 q 95 319 128 224 q 63 514 63 414 q 99 722 63 622 q 201 898 136 821 q 355 1019 267 975 q 547 1064 443 1064 q 668 1043 613 1064 q 775 978 724 1022 l 836 1047 l 871 1047 l 871 733 l 836 733 q 788 877 821 811 q 697 983 754 943 q 547 1022 639 1022 q 441 1000 489 1022 q 358 922 393 978 q 303 765 322 865 q 285 507 285 664 q 301 269 285 363 q 349 122 318 175 q 424 49 379 69 q 525 28 469 28 q 666 72 615 28 q 717 194 717 115 l 717 393 l 924 393 l 924 360 q 869 158 924 242 q 724 28 814 74 q 529 -17 635 -17 m 546 372 l 546 407 l 1004 407 l 1004 372 l 546 372 m 326 1169 l 536 1303 q 604 1344 585 1335 q 638 1353 624 1353 q 683 1337 667 1353 q 699 1293 699 1321 q 681 1247 699 1267 q 629 1219 664 1226 l 386 1169 l 326 1169 z "},"Ğ":{"ha":1024,"x_min":63,"x_max":1004,"o":"m 529 -17 q 335 28 421 -17 q 188 148 249 72 q 95 319 128 224 q 63 514 63 414 q 99 722 63 622 q 201 898 136 821 q 355 1019 267 975 q 547 1064 443 1064 q 668 1043 613 1064 q 775 978 724 1022 l 836 1047 l 871 1047 l 871 733 l 836 733 q 788 877 821 811 q 697 983 754 943 q 547 1022 639 1022 q 441 1000 489 1022 q 358 922 393 978 q 303 765 322 865 q 285 507 285 664 q 301 269 285 363 q 349 122 318 175 q 424 49 379 69 q 525 28 469 28 q 666 72 615 28 q 717 194 717 115 l 717 393 l 924 393 l 924 360 q 869 158 924 242 q 724 28 814 74 q 529 -17 635 -17 m 546 372 l 546 407 l 1004 407 l 1004 372 l 546 372 m 513 1169 q 350 1219 406 1169 q 294 1353 294 1268 l 342 1353 q 391 1285 344 1306 q 510 1264 438 1264 q 631 1285 583 1264 q 682 1353 679 1307 l 729 1353 q 676 1221 729 1272 q 513 1169 624 1169 z "},"Ĝ":{"ha":1024,"x_min":63,"x_max":1004,"o":"m 529 -17 q 335 28 421 -17 q 188 148 249 72 q 95 319 128 224 q 63 514 63 414 q 99 722 63 622 q 201 898 136 821 q 355 1019 267 975 q 547 1064 443 1064 q 668 1043 613 1064 q 775 978 724 1022 l 836 1047 l 871 1047 l 871 733 l 836 733 q 788 877 821 811 q 697 983 754 943 q 547 1022 639 1022 q 441 1000 489 1022 q 358 922 393 978 q 303 765 322 865 q 285 507 285 664 q 301 269 285 363 q 349 122 318 175 q 424 49 379 69 q 525 28 469 28 q 666 72 615 28 q 717 194 717 115 l 717 393 l 924 393 l 924 360 q 869 158 924 242 q 724 28 814 74 q 529 -17 635 -17 m 546 372 l 546 407 l 1004 407 l 1004 372 l 546 372 m 288 1169 l 469 1353 l 556 1353 l 738 1169 l 678 1169 l 513 1254 l 347 1169 l 288 1169 z "},"Ģ":{"ha":1024,"x_min":63,"x_max":1004,"o":"m 529 -17 q 335 28 421 -17 q 188 148 249 72 q 95 319 128 224 q 63 514 63 414 q 99 722 63 622 q 201 898 136 821 q 355 1019 267 975 q 547 1064 443 1064 q 668 1043 613 1064 q 775 978 724 1022 l 836 1047 l 871 1047 l 871 733 l 836 733 q 788 877 821 811 q 697 983 754 943 q 547 1022 639 1022 q 441 1000 489 1022 q 358 922 393 978 q 303 765 322 865 q 285 507 285 664 q 301 269 285 363 q 349 122 318 175 q 424 49 379 69 q 525 28 469 28 q 666 72 615 28 q 717 194 717 115 l 717 393 l 924 393 l 924 360 q 869 158 924 242 q 724 28 814 74 q 529 -17 635 -17 m 546 372 l 546 407 l 1004 407 l 1004 372 l 546 372 m 467 -429 l 439 -397 q 537 -325 507 -361 q 567 -250 567 -289 q 565 -237 567 -240 q 561 -233 564 -233 q 544 -243 556 -233 q 515 -262 532 -253 q 474 -272 497 -272 q 427 -253 447 -272 q 407 -199 407 -235 q 433 -133 407 -157 q 501 -110 460 -110 q 585 -144 551 -110 q 618 -239 618 -179 q 579 -346 618 -301 q 467 -429 540 -390 z "},"Ġ":{"ha":1024,"x_min":63,"x_max":1004,"o":"m 529 -17 q 335 28 421 -17 q 188 148 249 72 q 95 319 128 224 q 63 514 63 414 q 99 722 63 622 q 201 898 136 821 q 355 1019 267 975 q 547 1064 443 1064 q 668 1043 613 1064 q 775 978 724 1022 l 836 1047 l 871 1047 l 871 733 l 836 733 q 788 877 821 811 q 697 983 754 943 q 547 1022 639 1022 q 441 1000 489 1022 q 358 922 393 978 q 303 765 322 865 q 285 507 285 664 q 301 269 285 363 q 349 122 318 175 q 424 49 379 69 q 525 28 469 28 q 666 72 615 28 q 717 194 717 115 l 717 393 l 924 393 l 924 360 q 869 158 924 242 q 724 28 814 74 q 529 -17 635 -17 m 546 372 l 546 407 l 1004 407 l 1004 372 l 546 372 m 513 1149 q 448 1176 475 1149 q 421 1240 421 1203 q 448 1305 421 1278 q 513 1332 475 1332 q 577 1305 550 1332 q 604 1240 604 1278 q 577 1176 604 1203 q 513 1149 550 1149 z "},"H":{"ha":1113,"x_min":18,"x_max":1096,"o":"m 18 0 l 18 35 l 171 35 l 171 1013 l 18 1013 l 18 1047 l 510 1047 l 510 1013 l 357 1013 l 357 556 l 757 556 l 757 1013 l 604 1013 l 604 1047 l 1096 1047 l 1096 1013 l 943 1013 l 943 35 l 1096 35 l 1096 0 l 604 0 l 604 35 l 757 35 l 757 521 l 357 521 l 357 35 l 510 35 l 510 0 l 18 0 z "},"Ħ":{"ha":1113,"x_min":18,"x_max":1096,"o":"m 28 761 l 28 803 l 1096 803 l 1096 761 l 28 761 m 18 0 l 18 35 l 171 35 l 171 1013 l 18 1013 l 18 1047 l 510 1047 l 510 1013 l 357 1013 l 357 556 l 757 556 l 757 1013 l 604 1013 l 604 1047 l 1096 1047 l 1096 1013 l 943 1013 l 943 35 l 1096 35 l 1096 0 l 604 0 l 604 35 l 757 35 l 757 521 l 357 521 l 357 35 l 510 35 l 510 0 l 18 0 z "},"Ĥ":{"ha":1113,"x_min":18,"x_max":1096,"o":"m 18 0 l 18 35 l 171 35 l 171 1013 l 18 1013 l 18 1047 l 510 1047 l 510 1013 l 357 1013 l 357 556 l 757 556 l 757 1013 l 604 1013 l 604 1047 l 1096 1047 l 1096 1013 l 943 1013 l 943 35 l 1096 35 l 1096 0 l 604 0 l 604 35 l 757 35 l 757 521 l 357 521 l 357 35 l 510 35 l 510 0 l 18 0 m 332 1169 l 514 1353 l 600 1353 l 782 1169 l 722 1169 l 557 1254 l 392 1169 l 332 1169 z "},"Ḥ":{"ha":1113,"x_min":18,"x_max":1096,"o":"m 18 0 l 18 35 l 171 35 l 171 1013 l 18 1013 l 18 1047 l 510 1047 l 510 1013 l 357 1013 l 357 556 l 757 556 l 757 1013 l 604 1013 l 604 1047 l 1096 1047 l 1096 1013 l 943 1013 l 943 35 l 1096 35 l 1096 0 l 604 0 l 604 35 l 757 35 l 757 521 l 357 521 l 357 35 l 510 35 l 510 0 l 18 0 m 557 -321 q 492 -294 519 -321 q 465 -229 465 -267 q 492 -165 465 -192 q 557 -137 519 -137 q 622 -165 594 -137 q 649 -229 649 -192 q 622 -294 649 -267 q 557 -321 594 -321 z "},"I":{"ha":526,"x_min":18,"x_max":510,"o":"m 171 21 l 171 1047 l 357 1047 l 357 21 l 171 21 m 18 0 l 18 35 l 510 35 l 510 0 l 18 0 m 18 1013 l 18 1047 l 510 1047 l 510 1013 l 18 1013 z "},"Ĳ":{"ha":1165,"x_min":18,"x_max":1082,"o":"m 171 21 l 171 1047 l 357 1047 l 357 21 l 171 21 m 18 0 l 18 35 l 510 35 l 510 0 l 18 0 m 18 1013 l 18 1047 l 510 1047 l 510 1013 l 18 1013 m 653 -150 q 531 -108 576 -150 q 486 -7 486 -67 q 515 71 486 44 q 581 97 544 97 q 643 72 618 97 q 668 10 668 46 q 656 -38 668 -19 q 643 -76 643 -57 q 653 -97 643 -90 q 676 -104 663 -104 q 723 -81 701 -104 q 758 3 744 -57 q 771 174 771 64 l 771 1047 l 957 1047 l 957 174 q 932 50 957 108 q 864 -53 907 -8 q 766 -124 821 -99 q 653 -150 711 -150 m 590 1013 l 590 1047 l 1082 1047 l 1082 1013 l 590 1013 z "},"Í":{"ha":526,"x_min":18,"x_max":510,"o":"m 171 21 l 171 1047 l 357 1047 l 357 21 l 171 21 m 18 0 l 18 35 l 510 35 l 510 0 l 18 0 m 18 1013 l 18 1047 l 510 1047 l 510 1013 l 18 1013 m 78 1169 l 288 1303 q 356 1344 336 1335 q 389 1353 375 1353 q 434 1337 418 1353 q 450 1293 450 1321 q 433 1247 450 1267 q 381 1219 415 1226 l 138 1169 l 78 1169 z "},"Ĭ":{"ha":526,"x_min":18,"x_max":510,"o":"m 171 21 l 171 1047 l 357 1047 l 357 21 l 171 21 m 18 0 l 18 35 l 510 35 l 510 0 l 18 0 m 18 1013 l 18 1047 l 510 1047 l 510 1013 l 18 1013 m 264 1169 q 101 1219 157 1169 q 46 1353 46 1268 l 93 1353 q 142 1285 96 1306 q 261 1264 189 1264 q 383 1285 335 1264 q 433 1353 431 1307 l 481 1353 q 428 1221 481 1272 q 264 1169 375 1169 z "},"Î":{"ha":526,"x_min":18,"x_max":510,"o":"m 171 21 l 171 1047 l 357 1047 l 357 21 l 171 21 m 18 0 l 18 35 l 510 35 l 510 0 l 18 0 m 18 1013 l 18 1047 l 510 1047 l 510 1013 l 18 1013 m 39 1169 l 221 1353 l 307 1353 l 489 1169 l 429 1169 l 264 1254 l 99 1169 l 39 1169 z "},"Ȉ":{"ha":526,"x_min":-18,"x_max":546,"o":"m 171 21 l 171 1047 l 357 1047 l 357 21 l 171 21 m 18 0 l 18 35 l 510 35 l 510 0 l 18 0 m 18 1013 l 18 1047 l 510 1047 l 510 1013 l 18 1013 m 486 1169 l 299 1219 q 247 1248 264 1229 q 229 1293 229 1267 q 245 1337 229 1321 q 290 1353 261 1353 q 321 1343 306 1353 q 382 1297 336 1333 l 546 1169 l 486 1169 m 239 1169 l 51 1219 q -1 1248 17 1229 q -18 1293 -18 1267 q -2 1337 -18 1321 q 43 1353 14 1353 q 74 1343 58 1353 q 135 1297 89 1333 l 299 1169 l 239 1169 z "},"Ï":{"ha":526,"x_min":18,"x_max":510,"o":"m 171 21 l 171 1047 l 357 1047 l 357 21 l 171 21 m 18 0 l 18 35 l 510 35 l 510 0 l 18 0 m 18 1013 l 18 1047 l 510 1047 l 510 1013 l 18 1013 m 404 1149 q 347 1172 371 1149 q 322 1229 322 1196 q 347 1286 322 1263 q 404 1310 371 1310 q 461 1286 438 1310 q 485 1229 485 1263 q 461 1172 485 1196 q 404 1149 438 1149 m 124 1149 q 67 1172 90 1149 q 43 1229 43 1196 q 67 1286 43 1263 q 124 1310 90 1310 q 181 1286 157 1310 q 206 1229 206 1263 q 181 1172 206 1196 q 124 1149 157 1149 z "},"İ":{"ha":526,"x_min":18,"x_max":510,"o":"m 171 21 l 171 1047 l 357 1047 l 357 21 l 171 21 m 18 0 l 18 35 l 510 35 l 510 0 l 18 0 m 18 1013 l 18 1047 l 510 1047 l 510 1013 l 18 1013 m 264 1149 q 199 1176 226 1149 q 172 1240 172 1203 q 199 1305 172 1278 q 264 1332 226 1332 q 328 1305 301 1332 q 356 1240 356 1278 q 328 1176 356 1203 q 264 1149 301 1149 z "},"Ị":{"ha":526,"x_min":18,"x_max":510,"o":"m 171 21 l 171 1047 l 357 1047 l 357 21 l 171 21 m 18 0 l 18 35 l 510 35 l 510 0 l 18 0 m 18 1013 l 18 1047 l 510 1047 l 510 1013 l 18 1013 m 264 -321 q 199 -294 226 -321 q 172 -229 172 -267 q 199 -165 172 -192 q 264 -137 226 -137 q 328 -165 301 -137 q 356 -229 356 -192 q 328 -294 356 -267 q 264 -321 301 -321 z "},"Ì":{"ha":526,"x_min":18,"x_max":510,"o":"m 171 21 l 171 1047 l 357 1047 l 357 21 l 171 21 m 18 0 l 18 35 l 510 35 l 510 0 l 18 0 m 18 1013 l 18 1047 l 510 1047 l 510 1013 l 18 1013 m 390 1169 l 147 1219 q 95 1247 113 1226 q 78 1293 78 1267 q 94 1337 78 1321 q 139 1353 110 1353 q 173 1344 154 1353 q 240 1303 192 1335 l 450 1169 l 390 1169 z "},"Ỉ":{"ha":526,"x_min":18,"x_max":510,"o":"m 171 21 l 171 1047 l 357 1047 l 357 21 l 171 21 m 18 0 l 18 35 l 510 35 l 510 0 l 18 0 m 18 1013 l 18 1047 l 510 1047 l 510 1013 l 18 1013 m 264 1142 q 272 1175 264 1161 q 290 1201 279 1189 q 308 1225 300 1213 q 315 1254 315 1238 q 299 1297 315 1286 q 261 1307 282 1307 q 224 1297 239 1307 q 210 1272 210 1288 q 215 1260 210 1264 q 224 1251 219 1257 q 228 1233 228 1246 q 217 1211 228 1219 q 183 1203 206 1203 q 144 1217 160 1203 q 129 1251 129 1231 q 149 1317 129 1293 q 198 1352 168 1342 q 258 1363 228 1363 q 359 1336 321 1363 q 397 1257 397 1310 q 385 1216 397 1232 q 356 1188 372 1200 q 324 1166 339 1176 q 301 1142 308 1156 l 264 1142 z "},"Ȋ":{"ha":526,"x_min":18,"x_max":510,"o":"m 171 21 l 171 1047 l 357 1047 l 357 21 l 171 21 m 18 0 l 18 35 l 510 35 l 510 0 l 18 0 m 18 1013 l 18 1047 l 510 1047 l 510 1013 l 18 1013 m 46 1169 q 101 1303 46 1254 q 264 1353 157 1353 q 428 1301 375 1353 q 481 1169 481 1250 l 433 1169 q 383 1237 431 1215 q 261 1258 335 1258 q 142 1238 189 1258 q 93 1169 96 1218 l 46 1169 z "},"Ī":{"ha":526,"x_min":18,"x_max":510,"o":"m 171 21 l 171 1047 l 357 1047 l 357 21 l 171 21 m 18 0 l 18 35 l 510 35 l 510 0 l 18 0 m 18 1013 l 18 1047 l 510 1047 l 510 1013 l 18 1013 m 42 1182 l 42 1274 l 486 1274 l 486 1182 l 42 1182 z "},"Į":{"ha":526,"x_min":18,"x_max":510,"o":"m 171 21 l 171 1047 l 357 1047 l 357 21 l 171 21 m 18 0 l 18 35 l 510 35 l 510 0 l 18 0 m 18 1013 l 18 1047 l 510 1047 l 510 1013 l 18 1013 m 339 -337 q 249 -306 283 -337 q 214 -221 214 -274 q 233 -150 214 -185 q 298 -76 253 -115 q 419 14 343 -36 l 469 14 q 351 -99 390 -44 q 311 -207 311 -154 q 375 -281 311 -281 q 416 -272 394 -281 q 468 -240 438 -262 l 474 -240 l 474 -278 q 415 -321 451 -304 q 339 -337 379 -337 z "},"Ĩ":{"ha":526,"x_min":18,"x_max":510,"o":"m 171 21 l 171 1047 l 357 1047 l 357 21 l 171 21 m 18 0 l 18 35 l 510 35 l 510 0 l 18 0 m 18 1013 l 18 1047 l 510 1047 l 510 1013 l 18 1013 m 19 1169 q 48 1252 26 1213 q 103 1317 69 1292 q 183 1343 138 1343 q 252 1326 221 1343 q 313 1293 283 1310 q 374 1276 342 1276 q 434 1301 414 1276 q 461 1347 454 1325 l 508 1347 q 478 1263 499 1304 q 424 1197 457 1222 q 343 1171 392 1171 q 274 1188 304 1171 q 215 1221 243 1204 q 153 1238 186 1238 q 95 1218 118 1238 q 65 1169 72 1199 l 19 1169 z "},"J":{"ha":639,"x_min":-40,"x_max":556,"o":"m 126 -150 q 5 -108 50 -150 q -40 -7 -40 -67 q -11 71 -40 44 q 54 97 18 97 q 117 72 92 97 q 142 10 142 46 q 129 -38 142 -19 q 117 -76 117 -57 q 126 -97 117 -90 q 150 -104 136 -104 q 197 -81 175 -104 q 231 3 218 -57 q 244 174 244 64 l 244 1047 l 431 1047 l 431 174 q 406 50 431 108 q 338 -53 381 -8 q 240 -124 294 -99 q 126 -150 185 -150 m 64 1013 l 64 1047 l 556 1047 l 556 1013 l 64 1013 z "},"Ĵ":{"ha":639,"x_min":-40,"x_max":556,"o":"m 126 -150 q 5 -108 50 -150 q -40 -7 -40 -67 q -11 71 -40 44 q 54 97 18 97 q 117 72 92 97 q 142 10 142 46 q 129 -38 142 -19 q 117 -76 117 -57 q 126 -97 117 -90 q 150 -104 136 -104 q 197 -81 175 -104 q 231 3 218 -57 q 244 174 244 64 l 244 1047 l 431 1047 l 431 174 q 406 50 431 108 q 338 -53 381 -8 q 240 -124 294 -99 q 126 -150 185 -150 m 64 1013 l 64 1047 l 556 1047 l 556 1013 l 64 1013 m 94 1169 l 276 1353 l 363 1353 l 544 1169 l 485 1169 l 319 1254 l 154 1169 l 94 1169 z "},"K":{"ha":1013,"x_min":18,"x_max":1089,"o":"m 18 0 l 18 35 l 171 35 l 171 1013 l 18 1013 l 18 1047 l 496 1047 l 496 1013 l 357 1013 l 357 35 l 496 35 l 496 0 l 18 0 m 606 0 l 606 35 l 1089 35 l 1089 0 l 606 0 m 771 21 l 371 533 l 503 651 l 1004 21 l 771 21 m 326 431 l 326 501 l 790 1022 l 850 1022 l 326 431 m 608 1013 l 608 1047 l 1001 1047 l 1001 1013 l 608 1013 z "},"Ķ":{"ha":1013,"x_min":18,"x_max":1089,"o":"m 18 0 l 18 35 l 171 35 l 171 1013 l 18 1013 l 18 1047 l 496 1047 l 496 1013 l 357 1013 l 357 35 l 496 35 l 496 0 l 18 0 m 606 0 l 606 35 l 1089 35 l 1089 0 l 606 0 m 771 21 l 371 533 l 503 651 l 1004 21 l 771 21 m 326 431 l 326 501 l 790 1022 l 850 1022 l 326 431 m 608 1013 l 608 1047 l 1001 1047 l 1001 1013 l 608 1013 m 461 -429 l 433 -397 q 531 -325 501 -361 q 561 -250 561 -289 q 560 -237 561 -240 q 556 -233 558 -233 q 538 -243 550 -233 q 509 -262 526 -253 q 468 -272 492 -272 q 422 -253 442 -272 q 401 -199 401 -235 q 428 -133 401 -157 q 496 -110 454 -110 q 579 -144 546 -110 q 613 -239 613 -179 q 574 -346 613 -301 q 461 -429 535 -390 z "},"L":{"ha":919,"x_min":18,"x_max":874,"o":"m 18 0 l 18 35 l 606 35 q 723 75 675 35 q 797 182 771 115 q 825 326 824 249 l 874 326 l 874 0 l 18 0 m 182 21 l 182 1047 l 368 1047 l 368 21 l 182 21 m 18 1013 l 18 1047 l 536 1047 l 536 1013 l 18 1013 z "},"Ǉ":{"ha":1597,"x_min":18,"x_max":1514,"o":"m 18 0 l 18 35 l 606 35 q 723 75 675 35 q 797 182 771 115 q 825 326 824 249 l 874 326 l 874 0 l 18 0 m 182 21 l 182 1047 l 368 1047 l 368 21 l 182 21 m 18 1013 l 18 1047 l 536 1047 l 536 1013 l 18 1013 m 1085 -150 q 963 -108 1008 -150 q 918 -7 918 -67 q 947 71 918 44 q 1013 97 976 97 q 1075 72 1050 97 q 1100 10 1100 46 q 1088 -38 1100 -19 q 1075 -76 1075 -57 q 1085 -97 1075 -90 q 1108 -104 1094 -104 q 1155 -81 1133 -104 q 1190 3 1176 -57 q 1203 174 1203 64 l 1203 1047 l 1389 1047 l 1389 174 q 1364 50 1389 108 q 1296 -53 1339 -8 q 1198 -124 1253 -99 q 1085 -150 1143 -150 m 1022 1013 l 1022 1047 l 1514 1047 l 1514 1013 l 1022 1013 z "},"Ĺ":{"ha":919,"x_min":18,"x_max":874,"o":"m 18 0 l 18 35 l 606 35 q 723 75 675 35 q 797 182 771 115 q 825 326 824 249 l 874 326 l 874 0 l 18 0 m 182 21 l 182 1047 l 368 1047 l 368 21 l 182 21 m 18 1013 l 18 1047 l 536 1047 l 536 1013 l 18 1013 m 81 1169 l 290 1303 q 358 1344 339 1335 q 392 1353 378 1353 q 437 1337 421 1353 q 453 1293 453 1321 q 435 1247 453 1267 q 383 1219 418 1226 l 140 1169 l 81 1169 z "},"Ľ":{"ha":919,"x_min":18,"x_max":894,"o":"m 18 0 l 18 35 l 606 35 q 723 75 675 35 q 797 182 771 115 q 825 326 824 249 l 874 326 l 874 0 l 18 0 m 182 21 l 182 1047 l 368 1047 l 368 21 l 182 21 m 18 1013 l 18 1047 l 536 1047 l 536 1013 l 18 1013 m 743 690 l 715 722 q 810 812 778 764 q 843 907 843 860 q 841 922 843 918 q 836 926 839 926 q 819 917 831 926 q 791 899 807 908 q 753 889 775 889 q 699 911 715 889 q 683 958 683 933 q 710 1021 683 994 q 781 1047 736 1047 q 864 1009 833 1047 q 894 914 894 971 q 851 788 894 844 q 743 690 808 731 z "},"Ļ":{"ha":919,"x_min":18,"x_max":874,"o":"m 18 0 l 18 35 l 606 35 q 723 75 675 35 q 797 182 771 115 q 825 326 824 249 l 874 326 l 874 0 l 18 0 m 182 21 l 182 1047 l 368 1047 l 368 21 l 182 21 m 18 1013 l 18 1047 l 536 1047 l 536 1013 l 18 1013 m 414 -429 l 386 -397 q 484 -325 454 -361 q 514 -250 514 -289 q 513 -237 514 -240 q 508 -233 511 -233 q 491 -243 503 -233 q 462 -262 479 -253 q 421 -272 444 -272 q 374 -253 394 -272 q 354 -199 354 -235 q 381 -133 354 -157 q 449 -110 407 -110 q 532 -144 499 -110 q 565 -239 565 -179 q 526 -346 565 -301 q 414 -429 488 -390 z "},"Ŀ":{"ha":919,"x_min":18,"x_max":874,"o":"m 18 0 l 18 35 l 606 35 q 723 75 675 35 q 797 182 771 115 q 825 326 824 249 l 874 326 l 874 0 l 18 0 m 182 21 l 182 1047 l 368 1047 l 368 21 l 182 21 m 18 1013 l 18 1047 l 536 1047 l 536 1013 l 18 1013 m 593 396 q 522 426 551 396 q 492 497 492 456 q 522 569 492 539 q 593 599 551 599 q 665 569 635 599 q 694 497 694 539 q 665 426 694 456 q 593 396 635 396 z "},"ǈ":{"ha":1378,"x_min":18,"x_max":1243,"o":"m 18 0 l 18 35 l 606 35 q 723 75 675 35 q 797 182 771 115 q 825 326 824 249 l 874 326 l 874 0 l 18 0 m 182 21 l 182 1047 l 368 1047 l 368 21 l 182 21 m 18 1013 l 18 1047 l 536 1047 l 536 1013 l 18 1013 m 985 -453 l 985 -453 q 893 -424 925 -453 q 861 -356 861 -396 q 883 -297 861 -319 q 938 -275 906 -275 q 987 -292 965 -275 q 1008 -336 1008 -308 q 1006 -359 1008 -346 q 1004 -381 1004 -372 q 1013 -401 1004 -394 q 1029 -407 1021 -407 q 1062 -380 1046 -407 q 1078 -274 1078 -353 l 1078 590 l 954 590 l 954 625 l 1231 625 l 1231 -65 q 1198 -282 1231 -196 q 1110 -410 1165 -368 q 985 -453 1054 -453 m 1151 831 q 1087 858 1114 831 q 1060 922 1060 885 q 1087 987 1060 960 q 1151 1014 1114 1014 q 1216 987 1189 1014 q 1243 922 1243 960 q 1216 858 1243 885 q 1151 831 1189 831 z "},"Ł":{"ha":919,"x_min":18,"x_max":874,"o":"m 39 329 l 39 385 l 576 699 l 576 643 l 39 329 m 18 0 l 18 35 l 606 35 q 723 75 675 35 q 797 182 771 115 q 825 326 824 249 l 874 326 l 874 0 l 18 0 m 182 21 l 182 1047 l 368 1047 l 368 21 l 182 21 m 18 1013 l 18 1047 l 536 1047 l 536 1013 l 18 1013 z "},"M":{"ha":1228,"x_min":17,"x_max":1211,"o":"m 526 -12 l 229 924 l 224 924 l 224 35 l 376 35 l 376 0 l 17 0 l 17 35 l 169 35 l 169 1013 l 17 1013 l 17 1047 l 393 1047 l 614 314 l 619 314 l 846 1047 l 1211 1047 l 1211 1013 l 1058 1013 l 1058 35 l 1211 35 l 1211 0 l 719 0 l 719 35 l 872 35 l 872 924 l 867 924 l 576 -12 l 526 -12 z "},"N":{"ha":1033,"x_min":18,"x_max":1018,"o":"m 836 -17 l 231 949 l 225 949 l 225 35 l 378 35 l 378 0 l 18 0 l 18 35 l 171 35 l 171 1013 l 18 1013 l 18 1047 l 394 1047 l 819 372 l 825 372 l 825 1013 l 686 1013 l 686 1047 l 1018 1047 l 1018 1013 l 879 1013 l 879 -17 l 836 -17 z "},"Ǌ":{"ha":1672,"x_min":18,"x_max":1589,"o":"m 836 -17 l 231 949 l 225 949 l 225 35 l 378 35 l 378 0 l 18 0 l 18 35 l 171 35 l 171 1013 l 18 1013 l 18 1047 l 394 1047 l 819 372 l 825 372 l 825 1013 l 686 1013 l 686 1047 l 1018 1047 l 1018 1013 l 879 1013 l 879 -17 l 836 -17 m 1160 -150 q 1038 -108 1083 -150 q 993 -7 993 -67 q 1022 71 993 44 q 1088 97 1051 97 q 1150 72 1125 97 q 1175 10 1175 46 q 1163 -38 1175 -19 q 1150 -76 1150 -57 q 1160 -97 1150 -90 q 1183 -104 1169 -104 q 1230 -81 1208 -104 q 1265 3 1251 -57 q 1278 174 1278 64 l 1278 1047 l 1464 1047 l 1464 174 q 1439 50 1464 108 q 1371 -53 1414 -8 q 1273 -124 1328 -99 q 1160 -150 1218 -150 m 1097 1013 l 1097 1047 l 1589 1047 l 1589 1013 l 1097 1013 z "},"Ń":{"ha":1033,"x_min":18,"x_max":1018,"o":"m 836 -17 l 231 949 l 225 949 l 225 35 l 378 35 l 378 0 l 18 0 l 18 35 l 171 35 l 171 1013 l 18 1013 l 18 1047 l 394 1047 l 819 372 l 825 372 l 825 1013 l 686 1013 l 686 1047 l 1018 1047 l 1018 1013 l 879 1013 l 879 -17 l 836 -17 m 331 1169 l 540 1303 q 608 1344 589 1335 q 642 1353 628 1353 q 687 1337 671 1353 q 703 1293 703 1321 q 685 1247 703 1267 q 633 1219 668 1226 l 390 1169 l 331 1169 z "},"Ň":{"ha":1033,"x_min":18,"x_max":1018,"o":"m 836 -17 l 231 949 l 225 949 l 225 35 l 378 35 l 378 0 l 18 0 l 18 35 l 171 35 l 171 1013 l 18 1013 l 18 1047 l 394 1047 l 819 372 l 825 372 l 825 1013 l 686 1013 l 686 1047 l 1018 1047 l 1018 1013 l 879 1013 l 879 -17 l 836 -17 m 474 1169 l 292 1353 l 351 1353 l 517 1268 l 682 1353 l 742 1353 l 560 1169 l 474 1169 z "},"Ņ":{"ha":1033,"x_min":18,"x_max":1018,"o":"m 836 -17 l 231 949 l 225 949 l 225 35 l 378 35 l 378 0 l 18 0 l 18 35 l 171 35 l 171 1013 l 18 1013 l 18 1047 l 394 1047 l 819 372 l 825 372 l 825 1013 l 686 1013 l 686 1047 l 1018 1047 l 1018 1013 l 879 1013 l 879 -17 l 836 -17 m 471 -429 l 443 -397 q 541 -325 511 -361 q 571 -250 571 -289 q 569 -237 571 -240 q 565 -233 568 -233 q 548 -243 560 -233 q 519 -262 536 -253 q 478 -272 501 -272 q 431 -253 451 -272 q 411 -199 411 -235 q 438 -133 411 -157 q 506 -110 464 -110 q 589 -144 556 -110 q 622 -239 622 -179 q 583 -346 622 -301 q 471 -429 544 -390 z "},"Ṅ":{"ha":1033,"x_min":18,"x_max":1018,"o":"m 836 -17 l 231 949 l 225 949 l 225 35 l 378 35 l 378 0 l 18 0 l 18 35 l 171 35 l 171 1013 l 18 1013 l 18 1047 l 394 1047 l 819 372 l 825 372 l 825 1013 l 686 1013 l 686 1047 l 1018 1047 l 1018 1013 l 879 1013 l 879 -17 l 836 -17 m 517 1149 q 452 1176 479 1149 q 425 1240 425 1203 q 452 1305 425 1278 q 517 1332 479 1332 q 581 1305 554 1332 q 608 1240 608 1278 q 581 1176 608 1203 q 517 1149 554 1149 z "},"ǋ":{"ha":1492,"x_min":18,"x_max":1357,"o":"m 836 -17 l 231 949 l 225 949 l 225 35 l 378 35 l 378 0 l 18 0 l 18 35 l 171 35 l 171 1013 l 18 1013 l 18 1047 l 394 1047 l 819 372 l 825 372 l 825 1013 l 686 1013 l 686 1047 l 1018 1047 l 1018 1013 l 879 1013 l 879 -17 l 836 -17 m 1099 -453 l 1099 -453 q 1007 -424 1039 -453 q 975 -356 975 -396 q 997 -297 975 -319 q 1051 -275 1019 -275 q 1101 -292 1079 -275 q 1122 -336 1122 -308 q 1120 -359 1122 -346 q 1118 -381 1118 -372 q 1126 -401 1118 -394 q 1143 -407 1135 -407 q 1176 -380 1160 -407 q 1192 -274 1192 -353 l 1192 590 l 1068 590 l 1068 625 l 1344 625 l 1344 -65 q 1312 -282 1344 -196 q 1224 -410 1279 -368 q 1099 -453 1168 -453 m 1265 831 q 1201 858 1228 831 q 1174 922 1174 885 q 1201 987 1174 960 q 1265 1014 1228 1014 q 1330 987 1303 1014 q 1357 922 1357 960 q 1330 858 1357 885 q 1265 831 1303 831 z "},"Ñ":{"ha":1033,"x_min":18,"x_max":1018,"o":"m 836 -17 l 231 949 l 225 949 l 225 35 l 378 35 l 378 0 l 18 0 l 18 35 l 171 35 l 171 1013 l 18 1013 l 18 1047 l 394 1047 l 819 372 l 825 372 l 825 1013 l 686 1013 l 686 1047 l 1018 1047 l 1018 1013 l 879 1013 l 879 -17 l 836 -17 m 272 1169 q 301 1252 279 1213 q 356 1317 322 1292 q 436 1343 390 1343 q 505 1326 474 1343 q 565 1293 536 1310 q 626 1276 594 1276 q 687 1301 667 1276 q 714 1347 707 1325 l 761 1347 q 731 1263 751 1304 q 677 1197 710 1222 q 596 1171 644 1171 q 526 1188 557 1171 q 467 1221 496 1204 q 406 1238 439 1238 q 348 1218 371 1238 q 318 1169 325 1199 l 272 1169 z "},"Ŋ":{"ha":1032,"x_min":21,"x_max":1021,"o":"m 713 -218 l 713 -218 q 590 -176 635 -218 q 544 -75 544 -135 q 574 3 544 -24 q 639 29 603 29 q 701 3 676 29 q 726 -58 726 -22 q 714 -106 726 -87 q 701 -144 701 -125 q 711 -165 701 -158 q 735 -172 721 -172 q 778 -151 757 -172 q 815 -85 800 -131 q 829 35 829 -39 l 829 79 l 233 949 l 228 949 l 228 35 l 381 35 l 381 0 l 21 0 l 21 35 l 174 35 l 174 1013 l 21 1013 l 21 1047 l 397 1047 l 824 456 l 829 456 l 829 1013 l 689 1013 l 689 1047 l 1021 1047 l 1021 1013 l 882 1013 l 882 106 q 867 -65 882 0 q 828 -162 853 -129 q 774 -207 804 -196 q 713 -218 744 -218 z "},"O":{"ha":1086,"x_min":61,"x_max":1025,"o":"m 543 -17 q 354 26 442 -17 q 201 145 267 69 q 98 318 135 221 q 61 524 61 415 q 98 729 61 632 q 201 902 135 826 q 354 1021 267 978 q 543 1064 442 1064 q 732 1021 644 1064 q 885 902 819 978 q 988 729 951 826 q 1025 524 1025 632 q 988 318 1025 415 q 885 145 951 221 q 732 26 819 69 q 543 -17 644 -17 m 543 25 q 663 48 614 25 q 744 126 713 71 q 789 279 775 182 q 803 525 803 376 q 789 771 803 674 q 744 923 775 868 q 663 1000 713 978 q 543 1022 614 1022 q 423 1000 472 1022 q 342 922 374 978 q 297 769 311 867 q 283 524 283 672 q 297 278 283 375 q 342 125 311 181 q 423 47 374 69 q 543 25 472 25 z "},"Ó":{"ha":1086,"x_min":61,"x_max":1025,"o":"m 543 -17 q 354 26 442 -17 q 201 145 267 69 q 98 318 135 221 q 61 524 61 415 q 98 729 61 632 q 201 902 135 826 q 354 1021 267 978 q 543 1064 442 1064 q 732 1021 644 1064 q 885 902 819 978 q 988 729 951 826 q 1025 524 1025 632 q 988 318 1025 415 q 885 145 951 221 q 732 26 819 69 q 543 -17 644 -17 m 543 25 q 663 48 614 25 q 744 126 713 71 q 789 279 775 182 q 803 525 803 376 q 789 771 803 674 q 744 923 775 868 q 663 1000 713 978 q 543 1022 614 1022 q 423 1000 472 1022 q 342 922 374 978 q 297 769 311 867 q 283 524 283 672 q 297 278 283 375 q 342 125 311 181 q 423 47 374 69 q 543 25 472 25 m 357 1169 l 567 1303 q 635 1344 615 1335 q 668 1353 654 1353 q 713 1337 697 1353 q 729 1293 729 1321 q 712 1247 729 1267 q 660 1219 694 1226 l 417 1169 l 357 1169 z "},"Ŏ":{"ha":1086,"x_min":61,"x_max":1025,"o":"m 543 -17 q 354 26 442 -17 q 201 145 267 69 q 98 318 135 221 q 61 524 61 415 q 98 729 61 632 q 201 902 135 826 q 354 1021 267 978 q 543 1064 442 1064 q 732 1021 644 1064 q 885 902 819 978 q 988 729 951 826 q 1025 524 1025 632 q 988 318 1025 415 q 885 145 951 221 q 732 26 819 69 q 543 -17 644 -17 m 543 25 q 663 48 614 25 q 744 126 713 71 q 789 279 775 182 q 803 525 803 376 q 789 771 803 674 q 744 923 775 868 q 663 1000 713 978 q 543 1022 614 1022 q 423 1000 472 1022 q 342 922 374 978 q 297 769 311 867 q 283 524 283 672 q 297 278 283 375 q 342 125 311 181 q 423 47 374 69 q 543 25 472 25 m 543 1169 q 381 1219 436 1169 q 325 1353 325 1268 l 372 1353 q 422 1285 375 1306 q 540 1264 468 1264 q 662 1285 614 1264 q 713 1353 710 1307 l 760 1353 q 707 1221 760 1272 q 543 1169 654 1169 z "},"Ô":{"ha":1086,"x_min":61,"x_max":1025,"o":"m 543 -17 q 354 26 442 -17 q 201 145 267 69 q 98 318 135 221 q 61 524 61 415 q 98 729 61 632 q 201 902 135 826 q 354 1021 267 978 q 543 1064 442 1064 q 732 1021 644 1064 q 885 902 819 978 q 988 729 951 826 q 1025 524 1025 632 q 988 318 1025 415 q 885 145 951 221 q 732 26 819 69 q 543 -17 644 -17 m 543 25 q 663 48 614 25 q 744 126 713 71 q 789 279 775 182 q 803 525 803 376 q 789 771 803 674 q 744 923 775 868 q 663 1000 713 978 q 543 1022 614 1022 q 423 1000 472 1022 q 342 922 374 978 q 297 769 311 867 q 283 524 283 672 q 297 278 283 375 q 342 125 311 181 q 423 47 374 69 q 543 25 472 25 m 318 1169 l 500 1353 l 586 1353 l 768 1169 l 708 1169 l 543 1254 l 378 1169 l 318 1169 z "},"Ố":{"ha":1086,"x_min":61,"x_max":1025,"o":"m 543 -17 q 354 26 442 -17 q 201 145 267 69 q 98 318 135 221 q 61 524 61 415 q 98 729 61 632 q 201 902 135 826 q 354 1021 267 978 q 543 1064 442 1064 q 732 1021 644 1064 q 885 902 819 978 q 988 729 951 826 q 1025 524 1025 632 q 988 318 1025 415 q 885 145 951 221 q 732 26 819 69 q 543 -17 644 -17 m 543 25 q 663 48 614 25 q 744 126 713 71 q 789 279 775 182 q 803 525 803 376 q 789 771 803 674 q 744 923 775 868 q 663 1000 713 978 q 543 1022 614 1022 q 423 1000 472 1022 q 342 922 374 978 q 297 769 311 867 q 283 524 283 672 q 297 278 283 375 q 342 125 311 181 q 423 47 374 69 q 543 25 472 25 m 332 1150 l 500 1306 l 586 1306 l 754 1150 l 694 1150 l 543 1221 l 392 1150 l 332 1150 m 357 1331 l 567 1464 q 635 1505 615 1496 q 668 1514 654 1514 q 713 1498 697 1514 q 729 1454 729 1482 q 712 1408 729 1428 q 660 1381 694 1388 l 417 1331 l 357 1331 z "},"Ộ":{"ha":1086,"x_min":61,"x_max":1025,"o":"m 543 -17 q 354 26 442 -17 q 201 145 267 69 q 98 318 135 221 q 61 524 61 415 q 98 729 61 632 q 201 902 135 826 q 354 1021 267 978 q 543 1064 442 1064 q 732 1021 644 1064 q 885 902 819 978 q 988 729 951 826 q 1025 524 1025 632 q 988 318 1025 415 q 885 145 951 221 q 732 26 819 69 q 543 -17 644 -17 m 543 25 q 663 48 614 25 q 744 126 713 71 q 789 279 775 182 q 803 525 803 376 q 789 771 803 674 q 744 923 775 868 q 663 1000 713 978 q 543 1022 614 1022 q 423 1000 472 1022 q 342 922 374 978 q 297 769 311 867 q 283 524 283 672 q 297 278 283 375 q 342 125 311 181 q 423 47 374 69 q 543 25 472 25 m 543 -321 q 478 -294 506 -321 q 451 -229 451 -267 q 478 -165 451 -192 q 543 -137 506 -137 q 608 -165 581 -137 q 635 -229 635 -192 q 608 -294 635 -267 q 543 -321 581 -321 m 318 1169 l 500 1353 l 586 1353 l 768 1169 l 708 1169 l 543 1254 l 378 1169 l 318 1169 z "},"Ồ":{"ha":1086,"x_min":61,"x_max":1025,"o":"m 543 -17 q 354 26 442 -17 q 201 145 267 69 q 98 318 135 221 q 61 524 61 415 q 98 729 61 632 q 201 902 135 826 q 354 1021 267 978 q 543 1064 442 1064 q 732 1021 644 1064 q 885 902 819 978 q 988 729 951 826 q 1025 524 1025 632 q 988 318 1025 415 q 885 145 951 221 q 732 26 819 69 q 543 -17 644 -17 m 543 25 q 663 48 614 25 q 744 126 713 71 q 789 279 775 182 q 803 525 803 376 q 789 771 803 674 q 744 923 775 868 q 663 1000 713 978 q 543 1022 614 1022 q 423 1000 472 1022 q 342 922 374 978 q 297 769 311 867 q 283 524 283 672 q 297 278 283 375 q 342 125 311 181 q 423 47 374 69 q 543 25 472 25 m 332 1150 l 500 1306 l 586 1306 l 754 1150 l 694 1150 l 543 1221 l 392 1150 l 332 1150 m 669 1324 l 426 1374 q 374 1401 392 1381 q 357 1447 357 1421 q 373 1491 357 1475 q 418 1507 389 1507 q 452 1498 433 1507 q 519 1457 471 1489 l 729 1324 l 669 1324 z "},"Ổ":{"ha":1086,"x_min":61,"x_max":1025,"o":"m 543 -17 q 354 26 442 -17 q 201 145 267 69 q 98 318 135 221 q 61 524 61 415 q 98 729 61 632 q 201 902 135 826 q 354 1021 267 978 q 543 1064 442 1064 q 732 1021 644 1064 q 885 902 819 978 q 988 729 951 826 q 1025 524 1025 632 q 988 318 1025 415 q 885 145 951 221 q 732 26 819 69 q 543 -17 644 -17 m 543 25 q 663 48 614 25 q 744 126 713 71 q 789 279 775 182 q 803 525 803 376 q 789 771 803 674 q 744 923 775 868 q 663 1000 713 978 q 543 1022 614 1022 q 423 1000 472 1022 q 342 922 374 978 q 297 769 311 867 q 283 524 283 672 q 297 278 283 375 q 342 125 311 181 q 423 47 374 69 q 543 25 472 25 m 332 1150 l 500 1306 l 586 1306 l 754 1150 l 694 1150 l 543 1221 l 392 1150 l 332 1150 m 707 1301 q 715 1334 707 1321 q 733 1359 722 1347 q 751 1381 743 1371 q 758 1404 758 1392 q 742 1456 758 1444 q 704 1467 725 1467 q 667 1457 682 1467 q 653 1432 653 1447 q 658 1420 653 1424 q 667 1411 663 1417 q 671 1393 671 1406 q 660 1371 671 1379 q 626 1363 649 1363 q 588 1376 603 1363 q 572 1411 572 1390 q 592 1477 572 1453 q 641 1512 611 1501 q 701 1522 671 1522 q 802 1494 764 1522 q 840 1407 840 1467 q 828 1372 840 1386 q 799 1347 815 1358 q 767 1326 782 1336 q 744 1301 751 1315 l 707 1301 z "},"Ỗ":{"ha":1086,"x_min":61,"x_max":1025,"o":"m 543 -17 q 354 26 442 -17 q 201 145 267 69 q 98 318 135 221 q 61 524 61 415 q 98 729 61 632 q 201 902 135 826 q 354 1021 267 978 q 543 1064 442 1064 q 732 1021 644 1064 q 885 902 819 978 q 988 729 951 826 q 1025 524 1025 632 q 988 318 1025 415 q 885 145 951 221 q 732 26 819 69 q 543 -17 644 -17 m 543 25 q 663 48 614 25 q 744 126 713 71 q 789 279 775 182 q 803 525 803 376 q 789 771 803 674 q 744 923 775 868 q 663 1000 713 978 q 543 1022 614 1022 q 423 1000 472 1022 q 342 922 374 978 q 297 769 311 867 q 283 524 283 672 q 297 278 283 375 q 342 125 311 181 q 423 47 374 69 q 543 25 472 25 m 332 1142 l 500 1297 l 586 1297 l 754 1142 l 694 1142 l 543 1213 l 392 1142 l 332 1142 m 299 1371 q 327 1453 306 1414 q 383 1519 349 1493 q 463 1544 417 1544 q 531 1528 500 1544 q 592 1494 563 1511 q 653 1478 621 1478 q 713 1502 693 1478 q 740 1549 733 1526 l 788 1549 q 757 1465 778 1506 q 703 1398 736 1424 q 622 1372 671 1372 q 553 1389 583 1372 q 494 1422 522 1406 q 432 1439 465 1439 q 374 1419 397 1439 q 344 1371 351 1400 l 299 1371 z "},"Ȍ":{"ha":1086,"x_min":61,"x_max":1025,"o":"m 543 -17 q 354 26 442 -17 q 201 145 267 69 q 98 318 135 221 q 61 524 61 415 q 98 729 61 632 q 201 902 135 826 q 354 1021 267 978 q 543 1064 442 1064 q 732 1021 644 1064 q 885 902 819 978 q 988 729 951 826 q 1025 524 1025 632 q 988 318 1025 415 q 885 145 951 221 q 732 26 819 69 q 543 -17 644 -17 m 543 25 q 663 48 614 25 q 744 126 713 71 q 789 279 775 182 q 803 525 803 376 q 789 771 803 674 q 744 923 775 868 q 663 1000 713 978 q 543 1022 614 1022 q 423 1000 472 1022 q 342 922 374 978 q 297 769 311 867 q 283 524 283 672 q 297 278 283 375 q 342 125 311 181 q 423 47 374 69 q 543 25 472 25 m 765 1169 l 578 1219 q 526 1248 543 1229 q 508 1293 508 1267 q 524 1337 508 1321 q 569 1353 540 1353 q 600 1343 585 1353 q 661 1297 615 1333 l 825 1169 l 765 1169 m 518 1169 l 331 1219 q 278 1248 296 1229 q 261 1293 261 1267 q 277 1337 261 1321 q 322 1353 293 1353 q 353 1343 338 1353 q 414 1297 368 1333 l 578 1169 l 518 1169 z "},"Ö":{"ha":1086,"x_min":61,"x_max":1025,"o":"m 543 -17 q 354 26 442 -17 q 201 145 267 69 q 98 318 135 221 q 61 524 61 415 q 98 729 61 632 q 201 902 135 826 q 354 1021 267 978 q 543 1064 442 1064 q 732 1021 644 1064 q 885 902 819 978 q 988 729 951 826 q 1025 524 1025 632 q 988 318 1025 415 q 885 145 951 221 q 732 26 819 69 q 543 -17 644 -17 m 543 25 q 663 48 614 25 q 744 126 713 71 q 789 279 775 182 q 803 525 803 376 q 789 771 803 674 q 744 923 775 868 q 663 1000 713 978 q 543 1022 614 1022 q 423 1000 472 1022 q 342 922 374 978 q 297 769 311 867 q 283 524 283 672 q 297 278 283 375 q 342 125 311 181 q 423 47 374 69 q 543 25 472 25 m 683 1149 q 626 1172 650 1149 q 601 1229 601 1196 q 626 1286 601 1263 q 683 1310 650 1310 q 740 1286 717 1310 q 764 1229 764 1263 q 740 1172 764 1196 q 683 1149 717 1149 m 403 1149 q 346 1172 369 1149 q 322 1229 322 1196 q 346 1286 322 1263 q 403 1310 369 1310 q 460 1286 436 1310 q 485 1229 485 1263 q 460 1172 485 1196 q 403 1149 436 1149 z "},"Ọ":{"ha":1086,"x_min":61,"x_max":1025,"o":"m 543 -17 q 354 26 442 -17 q 201 145 267 69 q 98 318 135 221 q 61 524 61 415 q 98 729 61 632 q 201 902 135 826 q 354 1021 267 978 q 543 1064 442 1064 q 732 1021 644 1064 q 885 902 819 978 q 988 729 951 826 q 1025 524 1025 632 q 988 318 1025 415 q 885 145 951 221 q 732 26 819 69 q 543 -17 644 -17 m 543 25 q 663 48 614 25 q 744 126 713 71 q 789 279 775 182 q 803 525 803 376 q 789 771 803 674 q 744 923 775 868 q 663 1000 713 978 q 543 1022 614 1022 q 423 1000 472 1022 q 342 922 374 978 q 297 769 311 867 q 283 524 283 672 q 297 278 283 375 q 342 125 311 181 q 423 47 374 69 q 543 25 472 25 m 543 -321 q 478 -294 506 -321 q 451 -229 451 -267 q 478 -165 451 -192 q 543 -137 506 -137 q 608 -165 581 -137 q 635 -229 635 -192 q 608 -294 635 -267 q 543 -321 581 -321 z "},"Ò":{"ha":1086,"x_min":61,"x_max":1025,"o":"m 543 -17 q 354 26 442 -17 q 201 145 267 69 q 98 318 135 221 q 61 524 61 415 q 98 729 61 632 q 201 902 135 826 q 354 1021 267 978 q 543 1064 442 1064 q 732 1021 644 1064 q 885 902 819 978 q 988 729 951 826 q 1025 524 1025 632 q 988 318 1025 415 q 885 145 951 221 q 732 26 819 69 q 543 -17 644 -17 m 543 25 q 663 48 614 25 q 744 126 713 71 q 789 279 775 182 q 803 525 803 376 q 789 771 803 674 q 744 923 775 868 q 663 1000 713 978 q 543 1022 614 1022 q 423 1000 472 1022 q 342 922 374 978 q 297 769 311 867 q 283 524 283 672 q 297 278 283 375 q 342 125 311 181 q 423 47 374 69 q 543 25 472 25 m 669 1169 l 426 1219 q 374 1247 392 1226 q 357 1293 357 1267 q 373 1337 357 1321 q 418 1353 389 1353 q 452 1344 433 1353 q 519 1303 471 1335 l 729 1169 l 669 1169 z "},"Ỏ":{"ha":1086,"x_min":61,"x_max":1025,"o":"m 543 -17 q 354 26 442 -17 q 201 145 267 69 q 98 318 135 221 q 61 524 61 415 q 98 729 61 632 q 201 902 135 826 q 354 1021 267 978 q 543 1064 442 1064 q 732 1021 644 1064 q 885 902 819 978 q 988 729 951 826 q 1025 524 1025 632 q 988 318 1025 415 q 885 145 951 221 q 732 26 819 69 q 543 -17 644 -17 m 543 25 q 663 48 614 25 q 744 126 713 71 q 789 279 775 182 q 803 525 803 376 q 789 771 803 674 q 744 923 775 868 q 663 1000 713 978 q 543 1022 614 1022 q 423 1000 472 1022 q 342 922 374 978 q 297 769 311 867 q 283 524 283 672 q 297 278 283 375 q 342 125 311 181 q 423 47 374 69 q 543 25 472 25 m 543 1142 q 551 1175 543 1161 q 569 1201 558 1189 q 587 1225 579 1213 q 594 1254 594 1238 q 578 1297 594 1286 q 540 1307 561 1307 q 503 1297 518 1307 q 489 1272 489 1288 q 494 1260 489 1264 q 503 1251 499 1257 q 507 1233 507 1246 q 496 1211 507 1219 q 463 1203 485 1203 q 424 1217 439 1203 q 408 1251 408 1231 q 428 1317 408 1293 q 477 1352 447 1342 q 538 1363 507 1363 q 638 1336 600 1363 q 676 1257 676 1310 q 664 1216 676 1232 q 635 1188 651 1200 q 603 1166 618 1176 q 581 1142 588 1156 l 543 1142 z "},"Ơ":{"ha":1086,"x_min":61,"x_max":1025,"o":"m 543 -17 q 354 26 442 -17 q 201 145 267 69 q 98 318 135 221 q 61 524 61 415 q 98 729 61 632 q 201 902 135 826 q 354 1021 267 978 q 543 1064 442 1064 q 732 1021 644 1064 q 885 902 819 978 q 988 729 951 826 q 1025 524 1025 632 q 988 318 1025 415 q 885 145 951 221 q 732 26 819 69 q 543 -17 644 -17 m 543 25 q 663 48 614 25 q 744 126 713 71 q 789 279 775 182 q 803 525 803 376 q 789 771 803 674 q 744 923 775 868 q 663 1000 713 978 q 543 1022 614 1022 q 423 1000 472 1022 q 342 922 374 978 q 297 769 311 867 q 283 524 283 672 q 297 278 283 375 q 342 125 311 181 q 423 47 374 69 q 543 25 472 25 m 651 1014 l 649 1049 q 743 1075 722 1049 q 767 1158 764 1101 l 856 1158 q 843 1069 856 1101 q 788 1025 831 1038 q 651 1014 744 1013 z "},"Ớ":{"ha":1086,"x_min":61,"x_max":1025,"o":"m 543 -17 q 354 26 442 -17 q 201 145 267 69 q 98 318 135 221 q 61 524 61 415 q 98 729 61 632 q 201 902 135 826 q 354 1021 267 978 q 543 1064 442 1064 q 732 1021 644 1064 q 885 902 819 978 q 988 729 951 826 q 1025 524 1025 632 q 988 318 1025 415 q 885 145 951 221 q 732 26 819 69 q 543 -17 644 -17 m 543 25 q 663 48 614 25 q 744 126 713 71 q 789 279 775 182 q 803 525 803 376 q 789 771 803 674 q 744 923 775 868 q 663 1000 713 978 q 543 1022 614 1022 q 423 1000 472 1022 q 342 922 374 978 q 297 769 311 867 q 283 524 283 672 q 297 278 283 375 q 342 125 311 181 q 423 47 374 69 q 543 25 472 25 m 651 1014 l 649 1049 q 743 1075 722 1049 q 767 1158 764 1101 l 856 1158 q 843 1069 856 1101 q 788 1025 831 1038 q 651 1014 744 1013 m 357 1169 l 567 1303 q 635 1344 615 1335 q 668 1353 654 1353 q 713 1337 697 1353 q 729 1293 729 1321 q 712 1247 729 1267 q 660 1219 694 1226 l 417 1169 l 357 1169 z "},"Ợ":{"ha":1086,"x_min":61,"x_max":1025,"o":"m 543 -17 q 354 26 442 -17 q 201 145 267 69 q 98 318 135 221 q 61 524 61 415 q 98 729 61 632 q 201 902 135 826 q 354 1021 267 978 q 543 1064 442 1064 q 732 1021 644 1064 q 885 902 819 978 q 988 729 951 826 q 1025 524 1025 632 q 988 318 1025 415 q 885 145 951 221 q 732 26 819 69 q 543 -17 644 -17 m 543 25 q 663 48 614 25 q 744 126 713 71 q 789 279 775 182 q 803 525 803 376 q 789 771 803 674 q 744 923 775 868 q 663 1000 713 978 q 543 1022 614 1022 q 423 1000 472 1022 q 342 922 374 978 q 297 769 311 867 q 283 524 283 672 q 297 278 283 375 q 342 125 311 181 q 423 47 374 69 q 543 25 472 25 m 651 1014 l 649 1049 q 743 1075 722 1049 q 767 1158 764 1101 l 856 1158 q 843 1069 856 1101 q 788 1025 831 1038 q 651 1014 744 1013 m 543 -321 q 478 -294 506 -321 q 451 -229 451 -267 q 478 -165 451 -192 q 543 -137 506 -137 q 608 -165 581 -137 q 635 -229 635 -192 q 608 -294 635 -267 q 543 -321 581 -321 z "},"Ờ":{"ha":1086,"x_min":61,"x_max":1025,"o":"m 543 -17 q 354 26 442 -17 q 201 145 267 69 q 98 318 135 221 q 61 524 61 415 q 98 729 61 632 q 201 902 135 826 q 354 1021 267 978 q 543 1064 442 1064 q 732 1021 644 1064 q 885 902 819 978 q 988 729 951 826 q 1025 524 1025 632 q 988 318 1025 415 q 885 145 951 221 q 732 26 819 69 q 543 -17 644 -17 m 543 25 q 663 48 614 25 q 744 126 713 71 q 789 279 775 182 q 803 525 803 376 q 789 771 803 674 q 744 923 775 868 q 663 1000 713 978 q 543 1022 614 1022 q 423 1000 472 1022 q 342 922 374 978 q 297 769 311 867 q 283 524 283 672 q 297 278 283 375 q 342 125 311 181 q 423 47 374 69 q 543 25 472 25 m 651 1014 l 649 1049 q 743 1075 722 1049 q 767 1158 764 1101 l 856 1158 q 843 1069 856 1101 q 788 1025 831 1038 q 651 1014 744 1013 m 669 1169 l 426 1219 q 374 1247 392 1226 q 357 1293 357 1267 q 373 1337 357 1321 q 418 1353 389 1353 q 452 1344 433 1353 q 519 1303 471 1335 l 729 1169 l 669 1169 z "},"Ở":{"ha":1086,"x_min":61,"x_max":1025,"o":"m 543 -17 q 354 26 442 -17 q 201 145 267 69 q 98 318 135 221 q 61 524 61 415 q 98 729 61 632 q 201 902 135 826 q 354 1021 267 978 q 543 1064 442 1064 q 732 1021 644 1064 q 885 902 819 978 q 988 729 951 826 q 1025 524 1025 632 q 988 318 1025 415 q 885 145 951 221 q 732 26 819 69 q 543 -17 644 -17 m 543 25 q 663 48 614 25 q 744 126 713 71 q 789 279 775 182 q 803 525 803 376 q 789 771 803 674 q 744 923 775 868 q 663 1000 713 978 q 543 1022 614 1022 q 423 1000 472 1022 q 342 922 374 978 q 297 769 311 867 q 283 524 283 672 q 297 278 283 375 q 342 125 311 181 q 423 47 374 69 q 543 25 472 25 m 651 1014 l 649 1049 q 743 1075 722 1049 q 767 1158 764 1101 l 856 1158 q 843 1069 856 1101 q 788 1025 831 1038 q 651 1014 744 1013 m 543 1142 q 551 1175 543 1161 q 569 1201 558 1189 q 587 1225 579 1213 q 594 1254 594 1238 q 578 1297 594 1286 q 540 1307 561 1307 q 503 1297 518 1307 q 489 1272 489 1288 q 494 1260 489 1264 q 503 1251 499 1257 q 507 1233 507 1246 q 496 1211 507 1219 q 463 1203 485 1203 q 424 1217 439 1203 q 408 1251 408 1231 q 428 1317 408 1293 q 477 1352 447 1342 q 538 1363 507 1363 q 638 1336 600 1363 q 676 1257 676 1310 q 664 1216 676 1232 q 635 1188 651 1200 q 603 1166 618 1176 q 581 1142 588 1156 l 543 1142 z "},"Ỡ":{"ha":1086,"x_min":61,"x_max":1025,"o":"m 543 -17 q 354 26 442 -17 q 201 145 267 69 q 98 318 135 221 q 61 524 61 415 q 98 729 61 632 q 201 902 135 826 q 354 1021 267 978 q 543 1064 442 1064 q 732 1021 644 1064 q 885 902 819 978 q 988 729 951 826 q 1025 524 1025 632 q 988 318 1025 415 q 885 145 951 221 q 732 26 819 69 q 543 -17 644 -17 m 543 25 q 663 48 614 25 q 744 126 713 71 q 789 279 775 182 q 803 525 803 376 q 789 771 803 674 q 744 923 775 868 q 663 1000 713 978 q 543 1022 614 1022 q 423 1000 472 1022 q 342 922 374 978 q 297 769 311 867 q 283 524 283 672 q 297 278 283 375 q 342 125 311 181 q 423 47 374 69 q 543 25 472 25 m 651 1014 l 649 1049 q 743 1075 722 1049 q 767 1158 764 1101 l 856 1158 q 843 1069 856 1101 q 788 1025 831 1038 q 651 1014 744 1013 m 299 1169 q 327 1252 306 1213 q 383 1317 349 1292 q 463 1343 417 1343 q 531 1326 500 1343 q 592 1293 563 1310 q 653 1276 621 1276 q 713 1301 693 1276 q 740 1347 733 1325 l 788 1347 q 757 1263 778 1304 q 703 1197 736 1222 q 622 1171 671 1171 q 553 1188 583 1171 q 494 1221 522 1204 q 432 1238 465 1238 q 374 1218 397 1238 q 344 1169 351 1199 l 299 1169 z "},"Ő":{"ha":1086,"x_min":61,"x_max":1025,"o":"m 543 -17 q 354 26 442 -17 q 201 145 267 69 q 98 318 135 221 q 61 524 61 415 q 98 729 61 632 q 201 902 135 826 q 354 1021 267 978 q 543 1064 442 1064 q 732 1021 644 1064 q 885 902 819 978 q 988 729 951 826 q 1025 524 1025 632 q 988 318 1025 415 q 885 145 951 221 q 732 26 819 69 q 543 -17 644 -17 m 543 25 q 663 48 614 25 q 744 126 713 71 q 789 279 775 182 q 803 525 803 376 q 789 771 803 674 q 744 923 775 868 q 663 1000 713 978 q 543 1022 614 1022 q 423 1000 472 1022 q 342 922 374 978 q 297 769 311 867 q 283 524 283 672 q 297 278 283 375 q 342 125 311 181 q 423 47 374 69 q 543 25 472 25 m 508 1169 l 672 1297 q 734 1343 718 1333 q 764 1353 750 1353 q 809 1337 793 1353 q 825 1293 825 1321 q 807 1248 825 1267 q 756 1219 789 1229 l 568 1169 l 508 1169 m 261 1169 l 425 1297 q 487 1343 471 1333 q 517 1353 503 1353 q 562 1337 546 1353 q 578 1293 578 1321 q 560 1248 578 1267 q 508 1219 542 1229 l 321 1169 l 261 1169 z "},"Ȏ":{"ha":1086,"x_min":61,"x_max":1025,"o":"m 543 -17 q 354 26 442 -17 q 201 145 267 69 q 98 318 135 221 q 61 524 61 415 q 98 729 61 632 q 201 902 135 826 q 354 1021 267 978 q 543 1064 442 1064 q 732 1021 644 1064 q 885 902 819 978 q 988 729 951 826 q 1025 524 1025 632 q 988 318 1025 415 q 885 145 951 221 q 732 26 819 69 q 543 -17 644 -17 m 543 25 q 663 48 614 25 q 744 126 713 71 q 789 279 775 182 q 803 525 803 376 q 789 771 803 674 q 744 923 775 868 q 663 1000 713 978 q 543 1022 614 1022 q 423 1000 472 1022 q 342 922 374 978 q 297 769 311 867 q 283 524 283 672 q 297 278 283 375 q 342 125 311 181 q 423 47 374 69 q 543 25 472 25 m 325 1169 q 381 1303 325 1254 q 543 1353 436 1353 q 707 1301 654 1353 q 760 1169 760 1250 l 713 1169 q 662 1237 710 1215 q 540 1258 614 1258 q 422 1238 468 1258 q 372 1169 375 1218 l 325 1169 z "},"Ō":{"ha":1086,"x_min":61,"x_max":1025,"o":"m 543 -17 q 354 26 442 -17 q 201 145 267 69 q 98 318 135 221 q 61 524 61 415 q 98 729 61 632 q 201 902 135 826 q 354 1021 267 978 q 543 1064 442 1064 q 732 1021 644 1064 q 885 902 819 978 q 988 729 951 826 q 1025 524 1025 632 q 988 318 1025 415 q 885 145 951 221 q 732 26 819 69 q 543 -17 644 -17 m 543 25 q 663 48 614 25 q 744 126 713 71 q 789 279 775 182 q 803 525 803 376 q 789 771 803 674 q 744 923 775 868 q 663 1000 713 978 q 543 1022 614 1022 q 423 1000 472 1022 q 342 922 374 978 q 297 769 311 867 q 283 524 283 672 q 297 278 283 375 q 342 125 311 181 q 423 47 374 69 q 543 25 472 25 m 321 1182 l 321 1274 l 765 1274 l 765 1182 l 321 1182 z "},"Ǫ":{"ha":1086,"x_min":61,"x_max":1025,"o":"m 543 -17 q 354 26 442 -17 q 201 145 267 69 q 98 318 135 221 q 61 524 61 415 q 98 729 61 632 q 201 902 135 826 q 354 1021 267 978 q 543 1064 442 1064 q 732 1021 644 1064 q 885 902 819 978 q 988 729 951 826 q 1025 524 1025 632 q 988 318 1025 415 q 885 145 951 221 q 732 26 819 69 q 543 -17 644 -17 m 543 25 q 663 48 614 25 q 744 126 713 71 q 789 279 775 182 q 803 525 803 376 q 789 771 803 674 q 744 923 775 868 q 663 1000 713 978 q 543 1022 614 1022 q 423 1000 472 1022 q 342 922 374 978 q 297 769 311 867 q 283 524 283 672 q 297 278 283 375 q 342 125 311 181 q 423 47 374 69 q 543 25 472 25 m 568 -337 q 478 -306 513 -337 q 443 -221 443 -274 q 463 -150 443 -185 q 527 -76 482 -115 q 649 14 572 -36 l 699 14 q 580 -99 619 -44 q 540 -207 540 -154 q 604 -281 540 -281 q 645 -272 624 -281 q 697 -240 667 -262 l 703 -240 l 703 -278 q 644 -321 681 -304 q 568 -337 608 -337 z "},"Ø":{"ha":1046,"x_min":42,"x_max":1004,"o":"m 522 -18 q 334 26 421 -18 q 181 147 247 69 q 78 322 115 224 q 42 528 42 419 q 78 729 42 633 q 181 899 115 825 q 334 1017 247 974 q 522 1060 421 1060 q 711 1017 624 1060 q 865 899 799 974 q 967 729 931 825 q 1004 528 1004 633 q 967 322 1004 419 q 865 147 931 224 q 711 26 799 69 q 522 -18 624 -18 m 111 -74 l 882 1117 l 935 1117 l 164 -74 l 111 -74 m 522 24 q 643 45 593 24 q 724 122 693 67 q 768 276 754 178 q 782 525 782 374 q 768 771 782 675 q 723 921 754 867 q 642 997 692 975 q 521 1018 592 1018 q 401 997 450 1018 q 322 922 351 975 q 278 772 292 868 q 264 528 264 676 q 278 275 264 374 q 322 122 292 176 q 401 45 351 67 q 522 24 451 24 z "},"Ǿ":{"ha":1046,"x_min":42,"x_max":1004,"o":"m 522 -18 q 334 26 421 -18 q 181 147 247 69 q 78 322 115 224 q 42 528 42 419 q 78 729 42 633 q 181 899 115 825 q 334 1017 247 974 q 522 1060 421 1060 q 711 1017 624 1060 q 865 899 799 974 q 967 729 931 825 q 1004 528 1004 633 q 967 322 1004 419 q 865 147 931 224 q 711 26 799 69 q 522 -18 624 -18 m 111 -74 l 882 1117 l 935 1117 l 164 -74 l 111 -74 m 522 24 q 643 45 593 24 q 724 122 693 67 q 768 276 754 178 q 782 525 782 374 q 768 771 782 675 q 723 921 754 867 q 642 997 692 975 q 521 1018 592 1018 q 401 997 450 1018 q 322 922 351 975 q 278 772 292 868 q 264 528 264 676 q 278 275 264 374 q 322 122 292 176 q 401 45 351 67 q 522 24 451 24 m 338 1169 l 547 1303 q 615 1344 596 1335 q 649 1353 635 1353 q 694 1337 678 1353 q 710 1293 710 1321 q 692 1247 710 1267 q 640 1219 675 1226 l 397 1169 l 338 1169 z "},"Õ":{"ha":1086,"x_min":61,"x_max":1025,"o":"m 543 -17 q 354 26 442 -17 q 201 145 267 69 q 98 318 135 221 q 61 524 61 415 q 98 729 61 632 q 201 902 135 826 q 354 1021 267 978 q 543 1064 442 1064 q 732 1021 644 1064 q 885 902 819 978 q 988 729 951 826 q 1025 524 1025 632 q 988 318 1025 415 q 885 145 951 221 q 732 26 819 69 q 543 -17 644 -17 m 543 25 q 663 48 614 25 q 744 126 713 71 q 789 279 775 182 q 803 525 803 376 q 789 771 803 674 q 744 923 775 868 q 663 1000 713 978 q 543 1022 614 1022 q 423 1000 472 1022 q 342 922 374 978 q 297 769 311 867 q 283 524 283 672 q 297 278 283 375 q 342 125 311 181 q 423 47 374 69 q 543 25 472 25 m 299 1169 q 327 1252 306 1213 q 383 1317 349 1292 q 463 1343 417 1343 q 531 1326 500 1343 q 592 1293 563 1310 q 653 1276 621 1276 q 713 1301 693 1276 q 740 1347 733 1325 l 788 1347 q 757 1263 778 1304 q 703 1197 736 1222 q 622 1171 671 1171 q 553 1188 583 1171 q 494 1221 522 1204 q 432 1238 465 1238 q 374 1218 397 1238 q 344 1169 351 1199 l 299 1169 z "},"Œ":{"ha":1518,"x_min":42,"x_max":1467,"o":"m 522 0 q 334 43 421 0 q 181 160 247 86 q 78 328 115 233 q 42 528 42 424 q 78 724 42 631 q 181 891 115 818 q 334 1006 247 964 q 522 1047 421 1047 l 1425 1047 l 1425 763 l 1376 763 q 1349 887 1375 831 q 1274 978 1322 943 q 1157 1013 1226 1013 l 940 1013 l 940 539 q 1072 556 1025 539 q 1137 615 1118 572 q 1156 731 1156 657 l 1204 731 l 1204 300 l 1156 300 q 1135 422 1154 378 q 1071 485 1117 465 q 940 504 1025 504 l 940 35 l 1199 35 q 1316 75 1268 35 q 1390 182 1364 115 q 1418 326 1417 249 l 1467 326 l 1467 0 l 522 0 m 522 42 q 626 62 582 42 q 698 133 669 82 q 740 276 726 185 q 754 510 754 368 q 740 758 754 661 q 698 909 726 856 q 626 984 669 963 q 521 1006 582 1006 q 401 985 450 1006 q 322 912 351 964 q 278 767 292 860 q 264 528 264 674 q 278 285 264 381 q 322 137 292 190 q 401 63 351 83 q 522 42 451 42 z "},"P":{"ha":950,"x_min":15,"x_max":906,"o":"m 311 475 l 311 517 l 426 517 q 579 537 521 517 q 664 613 638 557 q 690 775 690 669 q 669 925 690 874 q 604 994 647 976 q 496 1013 561 1013 l 15 1013 l 15 1047 l 551 1047 q 731 1011 651 1047 q 858 912 811 975 q 906 767 906 849 q 848 615 906 681 q 683 512 790 549 q 426 475 576 475 l 311 475 m 15 0 l 15 35 l 535 35 l 535 0 l 15 0 m 168 21 l 168 1047 l 354 1047 l 354 21 l 168 21 z "},"Þ":{"ha":944,"x_min":24,"x_max":914,"o":"m 24 0 l 24 35 l 176 35 l 176 1011 l 24 1011 l 24 1046 l 543 1046 l 543 1011 l 363 1011 l 363 821 l 560 821 q 740 785 660 821 q 867 685 819 749 q 914 540 914 622 q 856 388 914 454 q 692 285 799 322 q 435 249 585 249 l 363 249 l 363 35 l 543 35 l 543 0 l 24 0 m 363 290 l 435 290 q 588 310 529 290 q 672 387 646 331 q 699 549 699 443 q 677 699 699 647 q 613 768 656 750 q 504 786 569 786 l 363 786 l 363 290 z "},"Q":{"ha":1086,"x_min":63,"x_max":1025,"o":"m 543 -17 q 355 26 442 -17 q 202 145 268 69 q 99 318 136 221 q 63 524 63 415 q 99 729 63 632 q 202 902 136 826 q 355 1021 268 978 q 543 1064 442 1064 q 732 1021 644 1064 q 885 902 819 978 q 988 729 951 826 q 1025 524 1025 632 q 988 318 1025 415 q 885 145 951 221 q 732 26 819 69 q 543 -17 644 -17 m 951 -356 q 647 -322 760 -356 q 483 -208 533 -287 q 433 10 433 -129 l 657 10 q 654 -31 656 -10 q 653 -68 653 -51 q 688 -222 653 -169 q 790 -294 722 -275 q 951 -314 857 -314 l 951 -356 m 543 25 q 663 48 614 25 q 744 126 713 71 q 789 279 775 182 q 803 525 803 376 q 788 771 803 674 q 743 923 774 868 q 663 1000 713 978 q 542 1022 613 1022 q 422 1000 471 1022 q 342 922 372 978 q 299 769 313 867 q 285 524 285 672 q 299 278 285 375 q 343 125 313 181 q 423 47 374 69 q 543 25 472 25 z "},"R":{"ha":960,"x_min":18,"x_max":988,"o":"m 314 538 l 314 579 l 429 579 q 565 597 513 579 q 641 666 617 615 q 665 813 665 717 q 647 940 665 897 q 592 997 629 982 q 499 1013 556 1013 l 18 1013 l 18 1047 l 554 1047 q 719 1019 644 1047 q 837 938 793 990 q 881 808 881 885 q 826 667 881 728 q 672 572 772 606 q 429 538 571 538 l 314 538 m 18 0 l 18 35 l 538 35 l 538 0 l 18 0 m 171 21 l 171 1047 l 357 1047 l 357 21 l 171 21 m 881 0 q 758 26 813 0 q 671 101 703 53 q 636 213 639 149 l 632 322 q 575 485 628 432 q 440 538 522 538 l 546 553 l 597 553 l 597 547 q 712 493 657 533 q 803 396 767 453 q 839 272 839 339 l 839 200 q 860 69 839 104 q 935 35 881 35 l 988 35 l 988 0 l 881 0 z "},"Ŕ":{"ha":960,"x_min":18,"x_max":988,"o":"m 314 538 l 314 579 l 429 579 q 565 597 513 579 q 641 666 617 615 q 665 813 665 717 q 647 940 665 897 q 592 997 629 982 q 499 1013 556 1013 l 18 1013 l 18 1047 l 554 1047 q 719 1019 644 1047 q 837 938 793 990 q 881 808 881 885 q 826 667 881 728 q 672 572 772 606 q 429 538 571 538 l 314 538 m 18 0 l 18 35 l 538 35 l 538 0 l 18 0 m 171 21 l 171 1047 l 357 1047 l 357 21 l 171 21 m 881 0 q 758 26 813 0 q 671 101 703 53 q 636 213 639 149 l 632 322 q 575 485 628 432 q 440 538 522 538 l 546 553 l 597 553 l 597 547 q 712 493 657 533 q 803 396 767 453 q 839 272 839 339 l 839 200 q 860 69 839 104 q 935 35 881 35 l 988 35 l 988 0 l 881 0 m 294 1169 l 504 1303 q 572 1344 553 1335 q 606 1353 592 1353 q 651 1337 635 1353 q 667 1293 667 1321 q 649 1247 667 1267 q 597 1219 632 1226 l 354 1169 l 294 1169 z "},"Ř":{"ha":960,"x_min":18,"x_max":988,"o":"m 314 538 l 314 579 l 429 579 q 565 597 513 579 q 641 666 617 615 q 665 813 665 717 q 647 940 665 897 q 592 997 629 982 q 499 1013 556 1013 l 18 1013 l 18 1047 l 554 1047 q 719 1019 644 1047 q 837 938 793 990 q 881 808 881 885 q 826 667 881 728 q 672 572 772 606 q 429 538 571 538 l 314 538 m 18 0 l 18 35 l 538 35 l 538 0 l 18 0 m 171 21 l 171 1047 l 357 1047 l 357 21 l 171 21 m 881 0 q 758 26 813 0 q 671 101 703 53 q 636 213 639 149 l 632 322 q 575 485 628 432 q 440 538 522 538 l 546 553 l 597 553 l 597 547 q 712 493 657 533 q 803 396 767 453 q 839 272 839 339 l 839 200 q 860 69 839 104 q 935 35 881 35 l 988 35 l 988 0 l 881 0 m 438 1169 l 256 1353 l 315 1353 l 481 1268 l 646 1353 l 706 1353 l 524 1169 l 438 1169 z "},"Ŗ":{"ha":960,"x_min":18,"x_max":988,"o":"m 314 538 l 314 579 l 429 579 q 565 597 513 579 q 641 666 617 615 q 665 813 665 717 q 647 940 665 897 q 592 997 629 982 q 499 1013 556 1013 l 18 1013 l 18 1047 l 554 1047 q 719 1019 644 1047 q 837 938 793 990 q 881 808 881 885 q 826 667 881 728 q 672 572 772 606 q 429 538 571 538 l 314 538 m 18 0 l 18 35 l 538 35 l 538 0 l 18 0 m 171 21 l 171 1047 l 357 1047 l 357 21 l 171 21 m 881 0 q 758 26 813 0 q 671 101 703 53 q 636 213 639 149 l 632 322 q 575 485 628 432 q 440 538 522 538 l 546 553 l 597 553 l 597 547 q 712 493 657 533 q 803 396 767 453 q 839 272 839 339 l 839 200 q 860 69 839 104 q 935 35 881 35 l 988 35 l 988 0 l 881 0 m 435 -429 l 407 -397 q 505 -325 475 -361 q 535 -250 535 -289 q 533 -237 535 -240 q 529 -233 532 -233 q 512 -243 524 -233 q 483 -262 500 -253 q 442 -272 465 -272 q 395 -253 415 -272 q 375 -199 375 -235 q 401 -133 375 -157 q 469 -110 428 -110 q 553 -144 519 -110 q 586 -239 586 -179 q 547 -346 586 -301 q 435 -429 508 -390 z "},"Ȑ":{"ha":960,"x_min":18,"x_max":988,"o":"m 314 538 l 314 579 l 429 579 q 565 597 513 579 q 641 666 617 615 q 665 813 665 717 q 647 940 665 897 q 592 997 629 982 q 499 1013 556 1013 l 18 1013 l 18 1047 l 554 1047 q 719 1019 644 1047 q 837 938 793 990 q 881 808 881 885 q 826 667 881 728 q 672 572 772 606 q 429 538 571 538 l 314 538 m 18 0 l 18 35 l 538 35 l 538 0 l 18 0 m 171 21 l 171 1047 l 357 1047 l 357 21 l 171 21 m 881 0 q 758 26 813 0 q 671 101 703 53 q 636 213 639 149 l 632 322 q 575 485 628 432 q 440 538 522 538 l 546 553 l 597 553 l 597 547 q 712 493 657 533 q 803 396 767 453 q 839 272 839 339 l 839 200 q 860 69 839 104 q 935 35 881 35 l 988 35 l 988 0 l 881 0 m 703 1169 l 515 1219 q 463 1248 481 1229 q 446 1293 446 1267 q 462 1337 446 1321 q 507 1353 478 1353 q 538 1343 522 1353 q 599 1297 553 1333 l 763 1169 l 703 1169 m 456 1169 l 268 1219 q 216 1248 233 1229 q 199 1293 199 1267 q 215 1337 199 1321 q 260 1353 231 1353 q 290 1343 275 1353 q 351 1297 306 1333 l 515 1169 l 456 1169 z "},"Ṛ":{"ha":960,"x_min":18,"x_max":988,"o":"m 314 538 l 314 579 l 429 579 q 565 597 513 579 q 641 666 617 615 q 665 813 665 717 q 647 940 665 897 q 592 997 629 982 q 499 1013 556 1013 l 18 1013 l 18 1047 l 554 1047 q 719 1019 644 1047 q 837 938 793 990 q 881 808 881 885 q 826 667 881 728 q 672 572 772 606 q 429 538 571 538 l 314 538 m 18 0 l 18 35 l 538 35 l 538 0 l 18 0 m 171 21 l 171 1047 l 357 1047 l 357 21 l 171 21 m 881 0 q 758 26 813 0 q 671 101 703 53 q 636 213 639 149 l 632 322 q 575 485 628 432 q 440 538 522 538 l 546 553 l 597 553 l 597 547 q 712 493 657 533 q 803 396 767 453 q 839 272 839 339 l 839 200 q 860 69 839 104 q 935 35 881 35 l 988 35 l 988 0 l 881 0 m 481 -321 q 416 -294 443 -321 q 389 -229 389 -267 q 416 -165 389 -192 q 481 -137 443 -137 q 545 -165 518 -137 q 572 -229 572 -192 q 545 -294 572 -267 q 481 -321 518 -321 z "},"Ȓ":{"ha":960,"x_min":18,"x_max":988,"o":"m 314 538 l 314 579 l 429 579 q 565 597 513 579 q 641 666 617 615 q 665 813 665 717 q 647 940 665 897 q 592 997 629 982 q 499 1013 556 1013 l 18 1013 l 18 1047 l 554 1047 q 719 1019 644 1047 q 837 938 793 990 q 881 808 881 885 q 826 667 881 728 q 672 572 772 606 q 429 538 571 538 l 314 538 m 18 0 l 18 35 l 538 35 l 538 0 l 18 0 m 171 21 l 171 1047 l 357 1047 l 357 21 l 171 21 m 881 0 q 758 26 813 0 q 671 101 703 53 q 636 213 639 149 l 632 322 q 575 485 628 432 q 440 538 522 538 l 546 553 l 597 553 l 597 547 q 712 493 657 533 q 803 396 767 453 q 839 272 839 339 l 839 200 q 860 69 839 104 q 935 35 881 35 l 988 35 l 988 0 l 881 0 m 263 1169 q 318 1303 263 1254 q 481 1353 374 1353 q 644 1301 592 1353 q 697 1169 697 1250 l 650 1169 q 599 1237 647 1215 q 478 1258 551 1258 q 359 1238 406 1258 q 310 1169 313 1218 l 263 1169 z "},"S":{"ha":797,"x_min":75,"x_max":728,"o":"m 393 -17 q 265 4 318 -17 q 160 65 211 25 l 110 0 l 75 0 l 75 292 l 111 292 q 163 165 128 225 q 256 65 197 104 q 404 26 315 26 q 535 56 483 26 q 613 133 588 86 q 639 229 639 179 q 620 307 639 274 q 565 365 601 340 q 481 407 529 389 q 371 439 432 425 q 208 506 271 463 q 114 610 144 549 q 83 754 83 672 q 128 924 83 856 q 244 1028 172 993 q 399 1064 317 1064 q 515 1045 465 1064 q 615 986 564 1026 l 651 1047 l 686 1047 l 686 764 l 651 763 q 553 958 618 894 q 393 1022 488 1022 q 287 999 336 1022 q 208 935 238 975 q 179 844 179 896 q 197 773 179 801 q 249 725 215 744 q 327 692 282 706 q 426 663 372 678 q 593 594 526 636 q 694 485 660 551 q 728 322 728 419 q 641 74 728 165 q 393 -17 554 -17 z "},"Ś":{"ha":797,"x_min":75,"x_max":728,"o":"m 393 -17 q 265 4 318 -17 q 160 65 211 25 l 110 0 l 75 0 l 75 292 l 111 292 q 163 165 128 225 q 256 65 197 104 q 404 26 315 26 q 535 56 483 26 q 613 133 588 86 q 639 229 639 179 q 620 307 639 274 q 565 365 601 340 q 481 407 529 389 q 371 439 432 425 q 208 506 271 463 q 114 610 144 549 q 83 754 83 672 q 128 924 83 856 q 244 1028 172 993 q 399 1064 317 1064 q 515 1045 465 1064 q 615 986 564 1026 l 651 1047 l 686 1047 l 686 764 l 651 763 q 553 958 618 894 q 393 1022 488 1022 q 287 999 336 1022 q 208 935 238 975 q 179 844 179 896 q 197 773 179 801 q 249 725 215 744 q 327 692 282 706 q 426 663 372 678 q 593 594 526 636 q 694 485 660 551 q 728 322 728 419 q 641 74 728 165 q 393 -17 554 -17 m 213 1169 l 422 1303 q 490 1344 471 1335 q 524 1353 510 1353 q 569 1337 553 1353 q 585 1293 585 1321 q 567 1247 585 1267 q 515 1219 550 1226 l 272 1169 l 213 1169 z "},"Š":{"ha":797,"x_min":75,"x_max":728,"o":"m 393 -17 q 265 4 318 -17 q 160 65 211 25 l 110 0 l 75 0 l 75 292 l 111 292 q 163 165 128 225 q 256 65 197 104 q 404 26 315 26 q 535 56 483 26 q 613 133 588 86 q 639 229 639 179 q 620 307 639 274 q 565 365 601 340 q 481 407 529 389 q 371 439 432 425 q 208 506 271 463 q 114 610 144 549 q 83 754 83 672 q 128 924 83 856 q 244 1028 172 993 q 399 1064 317 1064 q 515 1045 465 1064 q 615 986 564 1026 l 651 1047 l 686 1047 l 686 764 l 651 763 q 553 958 618 894 q 393 1022 488 1022 q 287 999 336 1022 q 208 935 238 975 q 179 844 179 896 q 197 773 179 801 q 249 725 215 744 q 327 692 282 706 q 426 663 372 678 q 593 594 526 636 q 694 485 660 551 q 728 322 728 419 q 641 74 728 165 q 393 -17 554 -17 m 356 1169 l 174 1353 l 233 1353 l 399 1268 l 564 1353 l 624 1353 l 442 1169 l 356 1169 z "},"Ş":{"ha":797,"x_min":75,"x_max":728,"o":"m 393 -17 q 265 4 318 -17 q 160 65 211 25 l 110 0 l 75 0 l 75 292 l 111 292 q 163 165 128 225 q 256 65 197 104 q 404 26 315 26 q 535 56 483 26 q 613 133 588 86 q 639 229 639 179 q 620 307 639 274 q 565 365 601 340 q 481 407 529 389 q 371 439 432 425 q 208 506 271 463 q 114 610 144 549 q 83 754 83 672 q 128 924 83 856 q 244 1028 172 993 q 399 1064 317 1064 q 515 1045 465 1064 q 615 986 564 1026 l 651 1047 l 686 1047 l 686 764 l 651 763 q 553 958 618 894 q 393 1022 488 1022 q 287 999 336 1022 q 208 935 238 975 q 179 844 179 896 q 197 773 179 801 q 249 725 215 744 q 327 692 282 706 q 426 663 372 678 q 593 594 526 636 q 694 485 660 551 q 728 322 728 419 q 641 74 728 165 q 393 -17 554 -17 m 365 -314 q 294 -306 324 -314 q 254 -290 265 -297 l 269 -256 q 303 -266 281 -261 q 347 -271 326 -271 q 408 -253 386 -271 q 431 -201 431 -236 q 326 -125 431 -126 l 374 14 l 415 14 l 382 -92 l 408 -92 q 505 -117 468 -92 q 542 -192 542 -143 q 492 -281 542 -247 q 365 -314 443 -314 z "},"Ŝ":{"ha":797,"x_min":75,"x_max":728,"o":"m 393 -17 q 265 4 318 -17 q 160 65 211 25 l 110 0 l 75 0 l 75 292 l 111 292 q 163 165 128 225 q 256 65 197 104 q 404 26 315 26 q 535 56 483 26 q 613 133 588 86 q 639 229 639 179 q 620 307 639 274 q 565 365 601 340 q 481 407 529 389 q 371 439 432 425 q 208 506 271 463 q 114 610 144 549 q 83 754 83 672 q 128 924 83 856 q 244 1028 172 993 q 399 1064 317 1064 q 515 1045 465 1064 q 615 986 564 1026 l 651 1047 l 686 1047 l 686 764 l 651 763 q 553 958 618 894 q 393 1022 488 1022 q 287 999 336 1022 q 208 935 238 975 q 179 844 179 896 q 197 773 179 801 q 249 725 215 744 q 327 692 282 706 q 426 663 372 678 q 593 594 526 636 q 694 485 660 551 q 728 322 728 419 q 641 74 728 165 q 393 -17 554 -17 m 174 1169 l 356 1353 l 442 1353 l 624 1169 l 564 1169 l 399 1254 l 233 1169 l 174 1169 z "},"Ș":{"ha":797,"x_min":75,"x_max":728,"o":"m 393 -17 q 265 4 318 -17 q 160 65 211 25 l 110 0 l 75 0 l 75 292 l 111 292 q 163 165 128 225 q 256 65 197 104 q 404 26 315 26 q 535 56 483 26 q 613 133 588 86 q 639 229 639 179 q 620 307 639 274 q 565 365 601 340 q 481 407 529 389 q 371 439 432 425 q 208 506 271 463 q 114 610 144 549 q 83 754 83 672 q 128 924 83 856 q 244 1028 172 993 q 399 1064 317 1064 q 515 1045 465 1064 q 615 986 564 1026 l 651 1047 l 686 1047 l 686 764 l 651 763 q 553 958 618 894 q 393 1022 488 1022 q 287 999 336 1022 q 208 935 238 975 q 179 844 179 896 q 197 773 179 801 q 249 725 215 744 q 327 692 282 706 q 426 663 372 678 q 593 594 526 636 q 694 485 660 551 q 728 322 728 419 q 641 74 728 165 q 393 -17 554 -17 m 353 -429 l 325 -397 q 423 -325 393 -361 q 453 -250 453 -289 q 451 -237 453 -240 q 447 -233 450 -233 q 430 -243 442 -233 q 401 -262 418 -253 q 360 -272 383 -272 q 313 -253 333 -272 q 293 -199 293 -235 q 319 -133 293 -157 q 388 -110 346 -110 q 471 -144 438 -110 q 504 -239 504 -179 q 465 -346 504 -301 q 353 -429 426 -390 z "},"Ṣ":{"ha":797,"x_min":75,"x_max":728,"o":"m 393 -17 q 265 4 318 -17 q 160 65 211 25 l 110 0 l 75 0 l 75 292 l 111 292 q 163 165 128 225 q 256 65 197 104 q 404 26 315 26 q 535 56 483 26 q 613 133 588 86 q 639 229 639 179 q 620 307 639 274 q 565 365 601 340 q 481 407 529 389 q 371 439 432 425 q 208 506 271 463 q 114 610 144 549 q 83 754 83 672 q 128 924 83 856 q 244 1028 172 993 q 399 1064 317 1064 q 515 1045 465 1064 q 615 986 564 1026 l 651 1047 l 686 1047 l 686 764 l 651 763 q 553 958 618 894 q 393 1022 488 1022 q 287 999 336 1022 q 208 935 238 975 q 179 844 179 896 q 197 773 179 801 q 249 725 215 744 q 327 692 282 706 q 426 663 372 678 q 593 594 526 636 q 694 485 660 551 q 728 322 728 419 q 641 74 728 165 q 393 -17 554 -17 m 399 -321 q 334 -294 361 -321 q 307 -229 307 -267 q 334 -165 307 -192 q 399 -137 361 -137 q 463 -165 436 -137 q 490 -229 490 -192 q 463 -294 490 -267 q 399 -321 436 -321 z "},"T":{"ha":979,"x_min":40,"x_max":940,"o":"m 222 0 l 222 35 l 403 35 l 403 1013 l 297 1013 q 186 966 232 1010 q 115 854 140 922 q 89 707 90 786 l 40 707 l 40 1047 l 940 1047 l 940 707 l 892 707 q 864 858 890 789 q 790 970 838 928 q 672 1013 742 1013 l 589 1013 l 589 35 l 769 35 l 769 0 l 222 0 z "},"Ŧ":{"ha":979,"x_min":40,"x_max":940,"o":"m 238 499 l 238 547 l 744 547 l 744 499 l 238 499 m 222 0 l 222 35 l 403 35 l 403 1013 l 297 1013 q 186 966 232 1010 q 115 854 140 922 q 89 707 90 786 l 40 707 l 40 1047 l 940 1047 l 940 707 l 892 707 q 864 858 890 789 q 790 970 838 928 q 672 1013 742 1013 l 589 1013 l 589 35 l 769 35 l 769 0 l 222 0 z "},"Ť":{"ha":979,"x_min":40,"x_max":940,"o":"m 222 0 l 222 35 l 403 35 l 403 1013 l 297 1013 q 186 966 232 1010 q 115 854 140 922 q 89 707 90 786 l 40 707 l 40 1047 l 940 1047 l 940 707 l 892 707 q 864 858 890 789 q 790 970 838 928 q 672 1013 742 1013 l 589 1013 l 589 35 l 769 35 l 769 0 l 222 0 m 447 1169 l 265 1353 l 325 1353 l 490 1268 l 656 1353 l 715 1353 l 533 1169 l 447 1169 z "},"Ţ":{"ha":979,"x_min":40,"x_max":940,"o":"m 222 0 l 222 35 l 403 35 l 403 1013 l 297 1013 q 186 966 232 1010 q 115 854 140 922 q 89 707 90 786 l 40 707 l 40 1047 l 940 1047 l 940 707 l 892 707 q 864 858 890 789 q 790 970 838 928 q 672 1013 742 1013 l 589 1013 l 589 35 l 769 35 l 769 0 l 222 0 m 457 -314 q 386 -306 415 -314 q 346 -290 357 -297 l 361 -256 q 395 -266 372 -261 q 439 -271 418 -271 q 500 -253 478 -271 q 522 -201 522 -236 q 418 -125 522 -126 l 465 14 l 507 14 l 474 -92 l 500 -92 q 597 -117 560 -92 q 633 -192 633 -143 q 584 -281 633 -247 q 457 -314 535 -314 z "},"Ț":{"ha":979,"x_min":40,"x_max":940,"o":"m 222 0 l 222 35 l 403 35 l 403 1013 l 297 1013 q 186 966 232 1010 q 115 854 140 922 q 89 707 90 786 l 40 707 l 40 1047 l 940 1047 l 940 707 l 892 707 q 864 858 890 789 q 790 970 838 928 q 672 1013 742 1013 l 589 1013 l 589 35 l 769 35 l 769 0 l 222 0 m 444 -429 l 417 -397 q 515 -325 485 -361 q 544 -250 544 -289 q 543 -237 544 -240 q 539 -233 542 -233 q 522 -243 533 -233 q 492 -262 510 -253 q 451 -272 475 -272 q 405 -253 425 -272 q 385 -199 385 -235 q 411 -133 385 -157 q 479 -110 438 -110 q 563 -144 529 -110 q 596 -239 596 -179 q 557 -346 596 -301 q 444 -429 518 -390 z "},"Ṭ":{"ha":979,"x_min":40,"x_max":940,"o":"m 222 0 l 222 35 l 403 35 l 403 1013 l 297 1013 q 186 966 232 1010 q 115 854 140 922 q 89 707 90 786 l 40 707 l 40 1047 l 940 1047 l 940 707 l 892 707 q 864 858 890 789 q 790 970 838 928 q 672 1013 742 1013 l 589 1013 l 589 35 l 769 35 l 769 0 l 222 0 m 490 -321 q 426 -294 453 -321 q 399 -229 399 -267 q 426 -165 399 -192 q 490 -137 453 -137 q 555 -165 528 -137 q 582 -229 582 -192 q 555 -294 582 -267 q 490 -321 528 -321 z "},"U":{"ha":1024,"x_min":8,"x_max":1014,"o":"m 538 -17 q 344 15 426 -17 q 216 110 261 46 q 171 271 171 174 l 171 1013 l 8 1013 l 8 1047 l 489 1047 l 489 1013 l 357 1013 l 357 272 q 417 88 357 143 q 581 32 476 32 q 757 92 692 32 q 822 272 822 151 l 822 1013 l 676 1013 l 676 1047 l 1014 1047 l 1014 1013 l 868 1013 l 868 272 q 785 53 868 124 q 538 -17 703 -17 z "},"Ú":{"ha":1024,"x_min":8,"x_max":1014,"o":"m 538 -17 q 344 15 426 -17 q 216 110 261 46 q 171 271 171 174 l 171 1013 l 8 1013 l 8 1047 l 489 1047 l 489 1013 l 357 1013 l 357 272 q 417 88 357 143 q 581 32 476 32 q 757 92 692 32 q 822 272 822 151 l 822 1013 l 676 1013 l 676 1047 l 1014 1047 l 1014 1013 l 868 1013 l 868 272 q 785 53 868 124 q 538 -17 703 -17 m 374 1169 l 583 1303 q 651 1344 632 1335 q 685 1353 671 1353 q 730 1337 714 1353 q 746 1293 746 1321 q 728 1247 746 1267 q 676 1219 711 1226 l 433 1169 l 374 1169 z "},"Ŭ":{"ha":1024,"x_min":8,"x_max":1014,"o":"m 538 -17 q 344 15 426 -17 q 216 110 261 46 q 171 271 171 174 l 171 1013 l 8 1013 l 8 1047 l 489 1047 l 489 1013 l 357 1013 l 357 272 q 417 88 357 143 q 581 32 476 32 q 757 92 692 32 q 822 272 822 151 l 822 1013 l 676 1013 l 676 1047 l 1014 1047 l 1014 1013 l 868 1013 l 868 272 q 785 53 868 124 q 538 -17 703 -17 m 560 1169 q 397 1219 453 1169 q 342 1353 342 1268 l 389 1353 q 438 1285 392 1306 q 557 1264 485 1264 q 678 1285 631 1264 q 729 1353 726 1307 l 776 1353 q 724 1221 776 1272 q 560 1169 671 1169 z "},"Û":{"ha":1024,"x_min":8,"x_max":1014,"o":"m 538 -17 q 344 15 426 -17 q 216 110 261 46 q 171 271 171 174 l 171 1013 l 8 1013 l 8 1047 l 489 1047 l 489 1013 l 357 1013 l 357 272 q 417 88 357 143 q 581 32 476 32 q 757 92 692 32 q 822 272 822 151 l 822 1013 l 676 1013 l 676 1047 l 1014 1047 l 1014 1013 l 868 1013 l 868 272 q 785 53 868 124 q 538 -17 703 -17 m 335 1169 l 517 1353 l 603 1353 l 785 1169 l 725 1169 l 560 1254 l 394 1169 l 335 1169 z "},"Ȕ":{"ha":1024,"x_min":8,"x_max":1014,"o":"m 538 -17 q 344 15 426 -17 q 216 110 261 46 q 171 271 171 174 l 171 1013 l 8 1013 l 8 1047 l 489 1047 l 489 1013 l 357 1013 l 357 272 q 417 88 357 143 q 581 32 476 32 q 757 92 692 32 q 822 272 822 151 l 822 1013 l 676 1013 l 676 1047 l 1014 1047 l 1014 1013 l 868 1013 l 868 272 q 785 53 868 124 q 538 -17 703 -17 m 782 1169 l 594 1219 q 542 1248 560 1229 q 525 1293 525 1267 q 541 1337 525 1321 q 586 1353 557 1353 q 617 1343 601 1353 q 678 1297 632 1333 l 842 1169 l 782 1169 m 535 1169 l 347 1219 q 295 1248 313 1229 q 278 1293 278 1267 q 294 1337 278 1321 q 339 1353 310 1353 q 369 1343 354 1353 q 431 1297 385 1333 l 594 1169 l 535 1169 z "},"Ü":{"ha":1024,"x_min":8,"x_max":1014,"o":"m 538 -17 q 344 15 426 -17 q 216 110 261 46 q 171 271 171 174 l 171 1013 l 8 1013 l 8 1047 l 489 1047 l 489 1013 l 357 1013 l 357 272 q 417 88 357 143 q 581 32 476 32 q 757 92 692 32 q 822 272 822 151 l 822 1013 l 676 1013 l 676 1047 l 1014 1047 l 1014 1013 l 868 1013 l 868 272 q 785 53 868 124 q 538 -17 703 -17 m 700 1149 q 642 1172 667 1149 q 618 1229 618 1196 q 642 1286 618 1263 q 700 1310 667 1310 q 757 1286 733 1310 q 781 1229 781 1263 q 757 1172 781 1196 q 700 1149 733 1149 m 419 1149 q 363 1172 386 1149 q 339 1229 339 1196 q 363 1286 339 1263 q 419 1310 386 1310 q 477 1286 453 1310 q 501 1229 501 1263 q 477 1172 501 1196 q 419 1149 453 1149 z "},"Ụ":{"ha":1024,"x_min":8,"x_max":1014,"o":"m 538 -17 q 344 15 426 -17 q 216 110 261 46 q 171 271 171 174 l 171 1013 l 8 1013 l 8 1047 l 489 1047 l 489 1013 l 357 1013 l 357 272 q 417 88 357 143 q 581 32 476 32 q 757 92 692 32 q 822 272 822 151 l 822 1013 l 676 1013 l 676 1047 l 1014 1047 l 1014 1013 l 868 1013 l 868 272 q 785 53 868 124 q 538 -17 703 -17 m 513 -321 q 448 -294 475 -321 q 421 -229 421 -267 q 448 -165 421 -192 q 513 -137 475 -137 q 577 -165 550 -137 q 604 -229 604 -192 q 577 -294 604 -267 q 513 -321 550 -321 z "},"Ù":{"ha":1024,"x_min":8,"x_max":1014,"o":"m 538 -17 q 344 15 426 -17 q 216 110 261 46 q 171 271 171 174 l 171 1013 l 8 1013 l 8 1047 l 489 1047 l 489 1013 l 357 1013 l 357 272 q 417 88 357 143 q 581 32 476 32 q 757 92 692 32 q 822 272 822 151 l 822 1013 l 676 1013 l 676 1047 l 1014 1047 l 1014 1013 l 868 1013 l 868 272 q 785 53 868 124 q 538 -17 703 -17 m 686 1169 l 443 1219 q 391 1247 408 1226 q 374 1293 374 1267 q 390 1337 374 1321 q 435 1353 406 1353 q 469 1344 450 1353 q 536 1303 488 1335 l 746 1169 l 686 1169 z "},"Ủ":{"ha":1024,"x_min":8,"x_max":1014,"o":"m 538 -17 q 344 15 426 -17 q 216 110 261 46 q 171 271 171 174 l 171 1013 l 8 1013 l 8 1047 l 489 1047 l 489 1013 l 357 1013 l 357 272 q 417 88 357 143 q 581 32 476 32 q 757 92 692 32 q 822 272 822 151 l 822 1013 l 676 1013 l 676 1047 l 1014 1047 l 1014 1013 l 868 1013 l 868 272 q 785 53 868 124 q 538 -17 703 -17 m 560 1142 q 567 1175 560 1161 q 585 1201 575 1189 q 603 1225 596 1213 q 611 1254 611 1238 q 594 1297 611 1286 q 557 1307 578 1307 q 520 1297 535 1307 q 506 1272 506 1288 q 510 1260 506 1264 q 519 1251 515 1257 q 524 1233 524 1246 q 513 1211 524 1219 q 479 1203 501 1203 q 440 1217 456 1203 q 425 1251 425 1231 q 444 1317 425 1293 q 494 1352 464 1342 q 554 1363 524 1363 q 655 1336 617 1363 q 693 1257 693 1310 q 681 1216 693 1232 q 651 1188 668 1200 q 619 1166 635 1176 q 597 1142 604 1156 l 560 1142 z "},"Ư":{"ha":1024,"x_min":8,"x_max":1035,"o":"m 538 -17 q 344 15 426 -17 q 216 110 261 46 q 171 271 171 174 l 171 1013 l 8 1013 l 8 1047 l 489 1047 l 489 1013 l 357 1013 l 357 272 q 417 88 357 143 q 581 32 476 32 q 757 92 692 32 q 822 272 822 151 l 822 1013 l 676 1013 l 676 1047 l 1014 1047 l 1014 1013 l 868 1013 l 868 272 q 785 53 868 124 q 538 -17 703 -17 m 831 1013 l 828 1047 q 922 1074 901 1047 q 946 1157 943 1100 l 1035 1157 q 1022 1068 1035 1100 q 967 1024 1010 1036 q 831 1013 924 1011 z "},"Ứ":{"ha":1024,"x_min":8,"x_max":1035,"o":"m 538 -17 q 344 15 426 -17 q 216 110 261 46 q 171 271 171 174 l 171 1013 l 8 1013 l 8 1047 l 489 1047 l 489 1013 l 357 1013 l 357 272 q 417 88 357 143 q 581 32 476 32 q 757 92 692 32 q 822 272 822 151 l 822 1013 l 676 1013 l 676 1047 l 1014 1047 l 1014 1013 l 868 1013 l 868 272 q 785 53 868 124 q 538 -17 703 -17 m 831 1013 l 828 1047 q 922 1074 901 1047 q 946 1157 943 1100 l 1035 1157 q 1022 1068 1035 1100 q 967 1024 1010 1036 q 831 1013 924 1011 m 326 1169 l 536 1303 q 604 1344 585 1335 q 638 1353 624 1353 q 683 1337 667 1353 q 699 1293 699 1321 q 681 1247 699 1267 q 629 1219 664 1226 l 386 1169 l 326 1169 z "},"Ự":{"ha":1024,"x_min":8,"x_max":1035,"o":"m 538 -17 q 344 15 426 -17 q 216 110 261 46 q 171 271 171 174 l 171 1013 l 8 1013 l 8 1047 l 489 1047 l 489 1013 l 357 1013 l 357 272 q 417 88 357 143 q 581 32 476 32 q 757 92 692 32 q 822 272 822 151 l 822 1013 l 676 1013 l 676 1047 l 1014 1047 l 1014 1013 l 868 1013 l 868 272 q 785 53 868 124 q 538 -17 703 -17 m 831 1013 l 828 1047 q 922 1074 901 1047 q 946 1157 943 1100 l 1035 1157 q 1022 1068 1035 1100 q 967 1024 1010 1036 q 831 1013 924 1011 m 513 -321 q 448 -294 475 -321 q 421 -229 421 -267 q 448 -165 421 -192 q 513 -137 475 -137 q 577 -165 550 -137 q 604 -229 604 -192 q 577 -294 604 -267 q 513 -321 550 -321 z "},"Ừ":{"ha":1024,"x_min":8,"x_max":1035,"o":"m 538 -17 q 344 15 426 -17 q 216 110 261 46 q 171 271 171 174 l 171 1013 l 8 1013 l 8 1047 l 489 1047 l 489 1013 l 357 1013 l 357 272 q 417 88 357 143 q 581 32 476 32 q 757 92 692 32 q 822 272 822 151 l 822 1013 l 676 1013 l 676 1047 l 1014 1047 l 1014 1013 l 868 1013 l 868 272 q 785 53 868 124 q 538 -17 703 -17 m 831 1013 l 828 1047 q 922 1074 901 1047 q 946 1157 943 1100 l 1035 1157 q 1022 1068 1035 1100 q 967 1024 1010 1036 q 831 1013 924 1011 m 639 1169 l 396 1219 q 344 1247 361 1226 q 326 1293 326 1267 q 342 1337 326 1321 q 388 1353 358 1353 q 422 1344 403 1353 q 489 1303 440 1335 l 699 1169 l 639 1169 z "},"Ử":{"ha":1024,"x_min":8,"x_max":1035,"o":"m 538 -17 q 344 15 426 -17 q 216 110 261 46 q 171 271 171 174 l 171 1013 l 8 1013 l 8 1047 l 489 1047 l 489 1013 l 357 1013 l 357 272 q 417 88 357 143 q 581 32 476 32 q 757 92 692 32 q 822 272 822 151 l 822 1013 l 676 1013 l 676 1047 l 1014 1047 l 1014 1013 l 868 1013 l 868 272 q 785 53 868 124 q 538 -17 703 -17 m 831 1013 l 828 1047 q 922 1074 901 1047 q 946 1157 943 1100 l 1035 1157 q 1022 1068 1035 1100 q 967 1024 1010 1036 q 831 1013 924 1011 m 513 1142 q 520 1175 513 1161 q 538 1201 528 1189 q 556 1225 549 1213 q 564 1254 564 1238 q 547 1297 564 1286 q 510 1307 531 1307 q 473 1297 488 1307 q 458 1272 458 1288 q 463 1260 458 1264 q 472 1251 468 1257 q 476 1233 476 1246 q 465 1211 476 1219 q 432 1203 454 1203 q 393 1217 408 1203 q 378 1251 378 1231 q 397 1317 378 1293 q 447 1352 417 1342 q 507 1363 476 1363 q 608 1336 569 1363 q 646 1257 646 1310 q 633 1216 646 1232 q 604 1188 621 1200 q 572 1166 588 1176 q 550 1142 557 1156 l 513 1142 z "},"Ữ":{"ha":1024,"x_min":8,"x_max":1035,"o":"m 538 -17 q 344 15 426 -17 q 216 110 261 46 q 171 271 171 174 l 171 1013 l 8 1013 l 8 1047 l 489 1047 l 489 1013 l 357 1013 l 357 272 q 417 88 357 143 q 581 32 476 32 q 757 92 692 32 q 822 272 822 151 l 822 1013 l 676 1013 l 676 1047 l 1014 1047 l 1014 1013 l 868 1013 l 868 272 q 785 53 868 124 q 538 -17 703 -17 m 831 1013 l 828 1047 q 922 1074 901 1047 q 946 1157 943 1100 l 1035 1157 q 1022 1068 1035 1100 q 967 1024 1010 1036 q 831 1013 924 1011 m 268 1169 q 297 1252 275 1213 q 352 1317 318 1292 q 432 1343 386 1343 q 501 1326 469 1343 q 561 1293 532 1310 q 622 1276 590 1276 q 683 1301 663 1276 q 710 1347 703 1325 l 757 1347 q 726 1263 747 1304 q 673 1197 706 1222 q 592 1171 640 1171 q 522 1188 553 1171 q 463 1221 492 1204 q 401 1238 435 1238 q 344 1218 367 1238 q 314 1169 321 1199 l 268 1169 z "},"Ű":{"ha":1024,"x_min":8,"x_max":1014,"o":"m 538 -17 q 344 15 426 -17 q 216 110 261 46 q 171 271 171 174 l 171 1013 l 8 1013 l 8 1047 l 489 1047 l 489 1013 l 357 1013 l 357 272 q 417 88 357 143 q 581 32 476 32 q 757 92 692 32 q 822 272 822 151 l 822 1013 l 676 1013 l 676 1047 l 1014 1047 l 1014 1013 l 868 1013 l 868 272 q 785 53 868 124 q 538 -17 703 -17 m 525 1169 l 689 1297 q 751 1343 735 1333 q 781 1353 767 1353 q 826 1337 810 1353 q 842 1293 842 1321 q 824 1248 842 1267 q 772 1219 806 1229 l 585 1169 l 525 1169 m 278 1169 l 442 1297 q 503 1343 488 1333 q 533 1353 519 1353 q 578 1337 563 1353 q 594 1293 594 1321 q 576 1248 594 1267 q 525 1219 558 1229 l 338 1169 l 278 1169 z "},"Ȗ":{"ha":1024,"x_min":8,"x_max":1014,"o":"m 538 -17 q 344 15 426 -17 q 216 110 261 46 q 171 271 171 174 l 171 1013 l 8 1013 l 8 1047 l 489 1047 l 489 1013 l 357 1013 l 357 272 q 417 88 357 143 q 581 32 476 32 q 757 92 692 32 q 822 272 822 151 l 822 1013 l 676 1013 l 676 1047 l 1014 1047 l 1014 1013 l 868 1013 l 868 272 q 785 53 868 124 q 538 -17 703 -17 m 342 1169 q 397 1303 342 1254 q 560 1353 453 1353 q 724 1301 671 1353 q 776 1169 776 1250 l 729 1169 q 678 1237 726 1215 q 557 1258 631 1258 q 438 1238 485 1258 q 389 1169 392 1218 l 342 1169 z "},"Ū":{"ha":1024,"x_min":8,"x_max":1014,"o":"m 538 -17 q 344 15 426 -17 q 216 110 261 46 q 171 271 171 174 l 171 1013 l 8 1013 l 8 1047 l 489 1047 l 489 1013 l 357 1013 l 357 272 q 417 88 357 143 q 581 32 476 32 q 757 92 692 32 q 822 272 822 151 l 822 1013 l 676 1013 l 676 1047 l 1014 1047 l 1014 1013 l 868 1013 l 868 272 q 785 53 868 124 q 538 -17 703 -17 m 338 1182 l 338 1274 l 782 1274 l 782 1182 l 338 1182 z "},"Ų":{"ha":1024,"x_min":8,"x_max":1014,"o":"m 538 -17 q 344 15 426 -17 q 216 110 261 46 q 171 271 171 174 l 171 1013 l 8 1013 l 8 1047 l 489 1047 l 489 1013 l 357 1013 l 357 272 q 417 88 357 143 q 581 32 476 32 q 757 92 692 32 q 822 272 822 151 l 822 1013 l 676 1013 l 676 1047 l 1014 1047 l 1014 1013 l 868 1013 l 868 272 q 785 53 868 124 q 538 -17 703 -17 m 564 -337 q 474 -306 508 -337 q 439 -221 439 -274 q 458 -150 439 -185 q 523 -76 478 -115 q 644 14 568 -36 l 694 14 q 576 -99 615 -44 q 536 -207 536 -154 q 600 -281 536 -281 q 641 -272 619 -281 q 693 -240 663 -262 l 699 -240 l 699 -278 q 640 -321 676 -304 q 564 -337 604 -337 z "},"Ů":{"ha":1024,"x_min":8,"x_max":1014,"o":"m 538 -17 q 344 15 426 -17 q 216 110 261 46 q 171 271 171 174 l 171 1013 l 8 1013 l 8 1047 l 489 1047 l 489 1013 l 357 1013 l 357 272 q 417 88 357 143 q 581 32 476 32 q 757 92 692 32 q 822 272 822 151 l 822 1013 l 676 1013 l 676 1047 l 1014 1047 l 1014 1013 l 868 1013 l 868 272 q 785 53 868 124 q 538 -17 703 -17 m 560 1142 q 488 1172 518 1142 q 457 1246 457 1203 q 488 1317 457 1288 q 560 1346 518 1346 q 631 1317 601 1346 q 661 1246 661 1289 q 632 1172 661 1203 q 560 1142 603 1142 m 560 1188 q 599 1206 583 1188 q 615 1246 615 1224 q 599 1284 615 1268 q 560 1300 582 1300 q 520 1284 538 1300 q 503 1246 503 1268 q 520 1206 503 1224 q 560 1188 538 1188 z "},"Ũ":{"ha":1024,"x_min":8,"x_max":1014,"o":"m 538 -17 q 344 15 426 -17 q 216 110 261 46 q 171 271 171 174 l 171 1013 l 8 1013 l 8 1047 l 489 1047 l 489 1013 l 357 1013 l 357 272 q 417 88 357 143 q 581 32 476 32 q 757 92 692 32 q 822 272 822 151 l 822 1013 l 676 1013 l 676 1047 l 1014 1047 l 1014 1013 l 868 1013 l 868 272 q 785 53 868 124 q 538 -17 703 -17 m 315 1169 q 344 1252 322 1213 q 399 1317 365 1292 q 479 1343 433 1343 q 548 1326 517 1343 q 608 1293 579 1310 q 669 1276 638 1276 q 730 1301 710 1276 q 757 1347 750 1325 l 804 1347 q 774 1263 794 1304 q 720 1197 753 1222 q 639 1171 688 1171 q 569 1188 600 1171 q 510 1221 539 1204 q 449 1238 482 1238 q 391 1218 414 1238 q 361 1169 368 1199 l 315 1169 z "},"V":{"ha":992,"x_min":-8,"x_max":999,"o":"m 476 -17 l 121 1026 l 307 1026 l 565 269 l 571 269 l 585 222 l 518 -17 l 476 -17 m 476 -17 l 557 229 l 828 1026 l 874 1026 l 518 -17 l 476 -17 m -8 1013 l -8 1047 l 474 1047 l 474 1013 l -8 1013 m 660 1013 l 660 1047 l 999 1047 l 999 1013 l 660 1013 z "},"W":{"ha":1260,"x_min":-36,"x_max":1294,"o":"m 421 -17 l 69 1013 l -36 1013 l -36 1047 l 935 1047 l 935 1013 l 856 1013 l 740 693 l 883 267 l 889 267 l 1149 1013 l 1006 1013 l 1006 1047 l 1294 1047 l 1294 1013 l 1194 1013 l 838 -17 l 796 -17 l 632 463 l 463 -17 l 421 -17 m 511 267 l 517 267 l 610 529 l 444 1013 l 256 1013 l 511 267 m 718 757 l 807 1013 l 631 1013 l 718 757 z "},"Ẃ":{"ha":1260,"x_min":-36,"x_max":1294,"o":"m 421 -17 l 69 1013 l -36 1013 l -36 1047 l 935 1047 l 935 1013 l 856 1013 l 740 693 l 883 267 l 889 267 l 1149 1013 l 1006 1013 l 1006 1047 l 1294 1047 l 1294 1013 l 1194 1013 l 838 -17 l 796 -17 l 632 463 l 463 -17 l 421 -17 m 511 267 l 517 267 l 610 529 l 444 1013 l 256 1013 l 511 267 m 718 757 l 807 1013 l 631 1013 l 718 757 m 444 1169 l 654 1303 q 722 1344 703 1335 q 756 1353 742 1353 q 801 1337 785 1353 q 817 1293 817 1321 q 799 1247 817 1267 q 747 1219 782 1226 l 504 1169 l 444 1169 z "},"Ŵ":{"ha":1260,"x_min":-36,"x_max":1294,"o":"m 421 -17 l 69 1013 l -36 1013 l -36 1047 l 935 1047 l 935 1013 l 856 1013 l 740 693 l 883 267 l 889 267 l 1149 1013 l 1006 1013 l 1006 1047 l 1294 1047 l 1294 1013 l 1194 1013 l 838 -17 l 796 -17 l 632 463 l 463 -17 l 421 -17 m 511 267 l 517 267 l 610 529 l 444 1013 l 256 1013 l 511 267 m 718 757 l 807 1013 l 631 1013 l 718 757 m 406 1169 l 588 1353 l 674 1353 l 856 1169 l 796 1169 l 631 1254 l 465 1169 l 406 1169 z "},"Ẅ":{"ha":1260,"x_min":-36,"x_max":1294,"o":"m 421 -17 l 69 1013 l -36 1013 l -36 1047 l 935 1047 l 935 1013 l 856 1013 l 740 693 l 883 267 l 889 267 l 1149 1013 l 1006 1013 l 1006 1047 l 1294 1047 l 1294 1013 l 1194 1013 l 838 -17 l 796 -17 l 632 463 l 463 -17 l 421 -17 m 511 267 l 517 267 l 610 529 l 444 1013 l 256 1013 l 511 267 m 718 757 l 807 1013 l 631 1013 l 718 757 m 771 1149 q 713 1172 738 1149 q 689 1229 689 1196 q 713 1286 689 1263 q 771 1310 738 1310 q 828 1286 804 1310 q 851 1229 851 1263 q 828 1172 851 1196 q 771 1149 804 1149 m 490 1149 q 433 1172 457 1149 q 410 1229 410 1196 q 433 1286 410 1263 q 490 1310 457 1310 q 548 1286 524 1310 q 572 1229 572 1263 q 548 1172 572 1196 q 490 1149 524 1149 z "},"Ẁ":{"ha":1260,"x_min":-36,"x_max":1294,"o":"m 421 -17 l 69 1013 l -36 1013 l -36 1047 l 935 1047 l 935 1013 l 856 1013 l 740 693 l 883 267 l 889 267 l 1149 1013 l 1006 1013 l 1006 1047 l 1294 1047 l 1294 1013 l 1194 1013 l 838 -17 l 796 -17 l 632 463 l 463 -17 l 421 -17 m 511 267 l 517 267 l 610 529 l 444 1013 l 256 1013 l 511 267 m 718 757 l 807 1013 l 631 1013 l 718 757 m 757 1169 l 514 1219 q 462 1247 479 1226 q 444 1293 444 1267 q 460 1337 444 1321 q 506 1353 476 1353 q 540 1344 521 1353 q 607 1303 558 1335 l 817 1169 l 757 1169 z "},"X":{"ha":936,"x_min":-31,"x_max":967,"o":"m -31 0 l -31 35 l 101 35 l 393 504 l 108 1013 l -10 1013 l -10 1047 l 468 1047 l 468 1013 l 317 1013 l 522 642 l 756 1013 l 590 1013 l 590 1047 l 936 1047 l 936 1013 l 803 1013 l 546 599 l 858 35 l 967 35 l 967 0 l 492 0 l 492 35 l 657 35 l 417 463 l 153 35 l 333 35 l 333 0 l -31 0 z "},"Y":{"ha":913,"x_min":-58,"x_max":969,"o":"m 210 0 l 210 35 l 376 35 l 376 476 l 65 1013 l -58 1013 l -58 1047 l 424 1047 l 424 1013 l 274 1013 l 536 558 l 542 558 l 790 1013 l 601 1013 l 601 1047 l 969 1047 l 969 1013 l 836 1013 l 563 503 l 563 35 l 729 35 l 729 0 l 210 0 z "},"Ý":{"ha":913,"x_min":-58,"x_max":969,"o":"m 210 0 l 210 35 l 376 35 l 376 476 l 65 1013 l -58 1013 l -58 1047 l 424 1047 l 424 1013 l 274 1013 l 536 558 l 542 558 l 790 1013 l 601 1013 l 601 1047 l 969 1047 l 969 1013 l 836 1013 l 563 503 l 563 35 l 729 35 l 729 0 l 210 0 m 271 1169 l 481 1303 q 549 1344 529 1335 q 582 1353 568 1353 q 627 1337 611 1353 q 643 1293 643 1321 q 626 1247 643 1267 q 574 1219 608 1226 l 331 1169 l 271 1169 z "},"Ŷ":{"ha":913,"x_min":-58,"x_max":969,"o":"m 210 0 l 210 35 l 376 35 l 376 476 l 65 1013 l -58 1013 l -58 1047 l 424 1047 l 424 1013 l 274 1013 l 536 558 l 542 558 l 790 1013 l 601 1013 l 601 1047 l 969 1047 l 969 1013 l 836 1013 l 563 503 l 563 35 l 729 35 l 729 0 l 210 0 m 232 1169 l 414 1353 l 500 1353 l 682 1169 l 622 1169 l 457 1254 l 292 1169 l 232 1169 z "},"Ÿ":{"ha":913,"x_min":-58,"x_max":969,"o":"m 210 0 l 210 35 l 376 35 l 376 476 l 65 1013 l -58 1013 l -58 1047 l 424 1047 l 424 1013 l 274 1013 l 536 558 l 542 558 l 790 1013 l 601 1013 l 601 1047 l 969 1047 l 969 1013 l 836 1013 l 563 503 l 563 35 l 729 35 l 729 0 l 210 0 m 597 1149 q 540 1172 564 1149 q 515 1229 515 1196 q 540 1286 515 1263 q 597 1310 564 1310 q 654 1286 631 1310 q 678 1229 678 1263 q 654 1172 678 1196 q 597 1149 631 1149 m 317 1149 q 260 1172 283 1149 q 236 1229 236 1196 q 260 1286 236 1263 q 317 1310 283 1310 q 374 1286 350 1310 q 399 1229 399 1263 q 374 1172 399 1196 q 317 1149 350 1149 z "},"Ỵ":{"ha":913,"x_min":-58,"x_max":969,"o":"m 210 0 l 210 35 l 376 35 l 376 476 l 65 1013 l -58 1013 l -58 1047 l 424 1047 l 424 1013 l 274 1013 l 536 558 l 542 558 l 790 1013 l 601 1013 l 601 1047 l 969 1047 l 969 1013 l 836 1013 l 563 503 l 563 35 l 729 35 l 729 0 l 210 0 m 457 -321 q 392 -294 419 -321 q 365 -229 365 -267 q 392 -165 365 -192 q 457 -137 419 -137 q 522 -165 494 -137 q 549 -229 549 -192 q 522 -294 549 -267 q 457 -321 494 -321 z "},"Ỳ":{"ha":913,"x_min":-58,"x_max":969,"o":"m 210 0 l 210 35 l 376 35 l 376 476 l 65 1013 l -58 1013 l -58 1047 l 424 1047 l 424 1013 l 274 1013 l 536 558 l 542 558 l 790 1013 l 601 1013 l 601 1047 l 969 1047 l 969 1013 l 836 1013 l 563 503 l 563 35 l 729 35 l 729 0 l 210 0 m 583 1169 l 340 1219 q 288 1247 306 1226 q 271 1293 271 1267 q 287 1337 271 1321 q 332 1353 303 1353 q 366 1344 347 1353 q 433 1303 385 1335 l 643 1169 l 583 1169 z "},"Ỷ":{"ha":913,"x_min":-58,"x_max":969,"o":"m 210 0 l 210 35 l 376 35 l 376 476 l 65 1013 l -58 1013 l -58 1047 l 424 1047 l 424 1013 l 274 1013 l 536 558 l 542 558 l 790 1013 l 601 1013 l 601 1047 l 969 1047 l 969 1013 l 836 1013 l 563 503 l 563 35 l 729 35 l 729 0 l 210 0 m 457 1142 q 465 1175 457 1161 q 483 1201 472 1189 q 501 1225 493 1213 q 508 1254 508 1238 q 492 1297 508 1286 q 454 1307 475 1307 q 417 1297 432 1307 q 403 1272 403 1288 q 408 1260 403 1264 q 417 1251 413 1257 q 421 1233 421 1246 q 410 1211 421 1219 q 376 1203 399 1203 q 338 1217 353 1203 q 322 1251 322 1231 q 342 1317 322 1293 q 391 1352 361 1342 q 451 1363 421 1363 q 552 1336 514 1363 q 590 1257 590 1310 q 578 1216 590 1232 q 549 1188 565 1200 q 517 1166 532 1176 q 494 1142 501 1156 l 457 1142 z "},"Ỹ":{"ha":913,"x_min":-58,"x_max":969,"o":"m 210 0 l 210 35 l 376 35 l 376 476 l 65 1013 l -58 1013 l -58 1047 l 424 1047 l 424 1013 l 274 1013 l 536 558 l 542 558 l 790 1013 l 601 1013 l 601 1047 l 969 1047 l 969 1013 l 836 1013 l 563 503 l 563 35 l 729 35 l 729 0 l 210 0 m 213 1169 q 241 1252 219 1213 q 297 1317 263 1292 q 376 1343 331 1343 q 445 1326 414 1343 q 506 1293 476 1310 q 567 1276 535 1276 q 627 1301 607 1276 q 654 1347 647 1325 l 701 1347 q 671 1263 692 1304 q 617 1197 650 1222 q 536 1171 585 1171 q 467 1188 497 1171 q 408 1221 436 1204 q 346 1238 379 1238 q 288 1218 311 1238 q 258 1169 265 1199 l 213 1169 z "},"Z":{"ha":904,"x_min":39,"x_max":844,"o":"m 39 10 l 39 44 l 619 1007 l 619 1015 l 844 1024 l 844 999 l 268 40 l 268 25 l 39 10 m 39 0 l 39 35 l 576 35 q 694 77 646 35 q 768 190 742 119 q 796 340 794 260 l 844 340 l 844 0 l 39 0 m 94 763 l 94 1047 l 844 1047 l 844 1013 l 363 1013 q 246 978 294 1013 q 171 887 197 943 q 143 763 144 831 l 94 763 z "},"Ź":{"ha":904,"x_min":39,"x_max":844,"o":"m 39 10 l 39 44 l 619 1007 l 619 1015 l 844 1024 l 844 999 l 268 40 l 268 25 l 39 10 m 39 0 l 39 35 l 576 35 q 694 77 646 35 q 768 190 742 119 q 796 340 794 260 l 844 340 l 844 0 l 39 0 m 94 763 l 94 1047 l 844 1047 l 844 1013 l 363 1013 q 246 978 294 1013 q 171 887 197 943 q 143 763 144 831 l 94 763 m 267 1169 l 476 1303 q 544 1344 525 1335 q 578 1353 564 1353 q 623 1337 607 1353 q 639 1293 639 1321 q 622 1247 639 1267 q 569 1219 604 1226 l 326 1169 l 267 1169 z "},"Ž":{"ha":904,"x_min":39,"x_max":844,"o":"m 39 10 l 39 44 l 619 1007 l 619 1015 l 844 1024 l 844 999 l 268 40 l 268 25 l 39 10 m 39 0 l 39 35 l 576 35 q 694 77 646 35 q 768 190 742 119 q 796 340 794 260 l 844 340 l 844 0 l 39 0 m 94 763 l 94 1047 l 844 1047 l 844 1013 l 363 1013 q 246 978 294 1013 q 171 887 197 943 q 143 763 144 831 l 94 763 m 410 1169 l 228 1353 l 288 1353 l 453 1268 l 618 1353 l 678 1353 l 496 1169 l 410 1169 z "},"Ż":{"ha":904,"x_min":39,"x_max":844,"o":"m 39 10 l 39 44 l 619 1007 l 619 1015 l 844 1024 l 844 999 l 268 40 l 268 25 l 39 10 m 39 0 l 39 35 l 576 35 q 694 77 646 35 q 768 190 742 119 q 796 340 794 260 l 844 340 l 844 0 l 39 0 m 94 763 l 94 1047 l 844 1047 l 844 1013 l 363 1013 q 246 978 294 1013 q 171 887 197 943 q 143 763 144 831 l 94 763 m 453 1149 q 388 1176 415 1149 q 361 1240 361 1203 q 388 1305 361 1278 q 453 1332 415 1332 q 517 1305 490 1332 q 544 1240 544 1278 q 517 1176 544 1203 q 453 1149 490 1149 z "},"Ẓ":{"ha":904,"x_min":39,"x_max":844,"o":"m 39 10 l 39 44 l 619 1007 l 619 1015 l 844 1024 l 844 999 l 268 40 l 268 25 l 39 10 m 39 0 l 39 35 l 576 35 q 694 77 646 35 q 768 190 742 119 q 796 340 794 260 l 844 340 l 844 0 l 39 0 m 94 763 l 94 1047 l 844 1047 l 844 1013 l 363 1013 q 246 978 294 1013 q 171 887 197 943 q 143 763 144 831 l 94 763 m 453 -321 q 388 -294 415 -321 q 361 -229 361 -267 q 388 -165 361 -192 q 453 -137 415 -137 q 517 -165 490 -137 q 544 -229 544 -192 q 517 -294 544 -267 q 453 -321 490 -321 z "},"a":{"ha":703,"x_min":57,"x_max":701,"o":"m 226 -17 q 104 26 151 -17 q 57 139 57 69 q 102 253 57 206 q 231 326 147 300 q 428 351 314 351 l 428 521 q 400 578 428 557 q 324 599 372 599 q 256 585 282 599 q 229 549 229 571 q 239 524 229 535 q 249 489 249 513 q 227 441 249 460 q 172 422 206 422 q 119 442 139 422 q 100 493 100 463 q 133 569 100 535 q 224 622 167 603 q 351 642 281 642 q 517 602 453 642 q 581 499 581 563 l 581 76 q 590 53 581 63 q 611 44 599 44 q 640 58 624 44 q 682 99 657 71 l 701 76 q 556 -17 636 -17 q 476 10 507 -17 q 433 86 444 38 l 428 86 q 344 13 401 42 q 226 -17 288 -17 m 310 60 q 395 99 363 60 q 428 203 428 139 l 428 315 q 271 277 324 315 q 218 165 218 239 q 242 88 218 115 q 310 60 267 60 z "},"á":{"ha":703,"x_min":57,"x_max":701,"o":"m 226 -17 q 104 26 151 -17 q 57 139 57 69 q 102 253 57 206 q 231 326 147 300 q 428 351 314 351 l 428 521 q 400 578 428 557 q 324 599 372 599 q 256 585 282 599 q 229 549 229 571 q 239 524 229 535 q 249 489 249 513 q 227 441 249 460 q 172 422 206 422 q 119 442 139 422 q 100 493 100 463 q 133 569 100 535 q 224 622 167 603 q 351 642 281 642 q 517 602 453 642 q 581 499 581 563 l 581 76 q 590 53 581 63 q 611 44 599 44 q 640 58 624 44 q 682 99 657 71 l 701 76 q 556 -17 636 -17 q 476 10 507 -17 q 433 86 444 38 l 428 86 q 344 13 401 42 q 226 -17 288 -17 m 310 60 q 395 99 363 60 q 428 203 428 139 l 428 315 q 271 277 324 315 q 218 165 218 239 q 242 88 218 115 q 310 60 267 60 m 304 728 l 468 950 q 513 994 492 982 q 557 1006 535 1006 q 604 989 588 1006 q 621 947 621 972 q 608 909 621 929 q 551 858 596 889 l 364 728 l 304 728 z "},"ă":{"ha":703,"x_min":57,"x_max":701,"o":"m 226 -17 q 104 26 151 -17 q 57 139 57 69 q 102 253 57 206 q 231 326 147 300 q 428 351 314 351 l 428 521 q 400 578 428 557 q 324 599 372 599 q 256 585 282 599 q 229 549 229 571 q 239 524 229 535 q 249 489 249 513 q 227 441 249 460 q 172 422 206 422 q 119 442 139 422 q 100 493 100 463 q 133 569 100 535 q 224 622 167 603 q 351 642 281 642 q 517 602 453 642 q 581 499 581 563 l 581 76 q 590 53 581 63 q 611 44 599 44 q 640 58 624 44 q 682 99 657 71 l 701 76 q 556 -17 636 -17 q 476 10 507 -17 q 433 86 444 38 l 428 86 q 344 13 401 42 q 226 -17 288 -17 m 310 60 q 395 99 363 60 q 428 203 428 139 l 428 315 q 271 277 324 315 q 218 165 218 239 q 242 88 218 115 q 310 60 267 60 m 351 728 q 203 777 244 728 q 161 911 161 826 l 208 911 q 244 843 211 864 q 349 822 276 822 q 456 844 422 822 q 493 911 490 865 l 540 911 q 524 817 540 858 q 466 751 507 775 q 351 728 425 728 z "},"ắ":{"ha":703,"x_min":57,"x_max":701,"o":"m 226 -17 q 104 26 151 -17 q 57 139 57 69 q 102 253 57 206 q 231 326 147 300 q 428 351 314 351 l 428 521 q 400 578 428 557 q 324 599 372 599 q 256 585 282 599 q 229 549 229 571 q 239 524 229 535 q 249 489 249 513 q 227 441 249 460 q 172 422 206 422 q 119 442 139 422 q 100 493 100 463 q 133 569 100 535 q 224 622 167 603 q 351 642 281 642 q 517 602 453 642 q 581 499 581 563 l 581 76 q 590 53 581 63 q 611 44 599 44 q 640 58 624 44 q 682 99 657 71 l 701 76 q 556 -17 636 -17 q 476 10 507 -17 q 433 86 444 38 l 428 86 q 344 13 401 42 q 226 -17 288 -17 m 310 60 q 395 99 363 60 q 428 203 428 139 l 428 315 q 271 277 324 315 q 218 165 218 239 q 242 88 218 115 q 310 60 267 60 m 351 717 q 203 766 244 717 q 161 900 161 815 l 208 900 q 244 832 211 853 q 349 811 276 811 q 456 833 422 811 q 493 900 490 854 l 540 900 q 524 806 540 847 q 466 740 507 764 q 351 717 425 717 m 165 960 l 375 1093 q 443 1134 424 1125 q 476 1143 463 1143 q 522 1127 506 1143 q 538 1083 538 1111 q 520 1037 538 1057 q 468 1010 503 1017 l 225 960 l 165 960 z "},"ặ":{"ha":703,"x_min":57,"x_max":701,"o":"m 226 -17 q 104 26 151 -17 q 57 139 57 69 q 102 253 57 206 q 231 326 147 300 q 428 351 314 351 l 428 521 q 400 578 428 557 q 324 599 372 599 q 256 585 282 599 q 229 549 229 571 q 239 524 229 535 q 249 489 249 513 q 227 441 249 460 q 172 422 206 422 q 119 442 139 422 q 100 493 100 463 q 133 569 100 535 q 224 622 167 603 q 351 642 281 642 q 517 602 453 642 q 581 499 581 563 l 581 76 q 590 53 581 63 q 611 44 599 44 q 640 58 624 44 q 682 99 657 71 l 701 76 q 556 -17 636 -17 q 476 10 507 -17 q 433 86 444 38 l 428 86 q 344 13 401 42 q 226 -17 288 -17 m 310 60 q 395 99 363 60 q 428 203 428 139 l 428 315 q 271 277 324 315 q 218 165 218 239 q 242 88 218 115 q 310 60 267 60 m 351 -321 q 287 -294 314 -321 q 260 -229 260 -267 q 287 -165 260 -192 q 351 -137 314 -137 q 416 -165 389 -137 q 443 -229 443 -192 q 416 -294 443 -267 q 351 -321 389 -321 m 351 728 q 203 777 244 728 q 161 911 161 826 l 208 911 q 244 843 211 864 q 349 822 276 822 q 456 844 422 822 q 493 911 490 865 l 540 911 q 524 817 540 858 q 466 751 507 775 q 351 728 425 728 z "},"ằ":{"ha":703,"x_min":57,"x_max":701,"o":"m 226 -17 q 104 26 151 -17 q 57 139 57 69 q 102 253 57 206 q 231 326 147 300 q 428 351 314 351 l 428 521 q 400 578 428 557 q 324 599 372 599 q 256 585 282 599 q 229 549 229 571 q 239 524 229 535 q 249 489 249 513 q 227 441 249 460 q 172 422 206 422 q 119 442 139 422 q 100 493 100 463 q 133 569 100 535 q 224 622 167 603 q 351 642 281 642 q 517 602 453 642 q 581 499 581 563 l 581 76 q 590 53 581 63 q 611 44 599 44 q 640 58 624 44 q 682 99 657 71 l 701 76 q 556 -17 636 -17 q 476 10 507 -17 q 433 86 444 38 l 428 86 q 344 13 401 42 q 226 -17 288 -17 m 310 60 q 395 99 363 60 q 428 203 428 139 l 428 315 q 271 277 324 315 q 218 165 218 239 q 242 88 218 115 q 310 60 267 60 m 351 717 q 203 766 244 717 q 161 900 161 815 l 208 900 q 244 832 211 853 q 349 811 276 811 q 456 833 422 811 q 493 900 490 854 l 540 900 q 524 806 540 847 q 466 740 507 764 q 351 717 425 717 m 478 953 l 235 1003 q 183 1030 200 1010 q 165 1076 165 1050 q 181 1120 165 1104 q 226 1136 197 1136 q 260 1127 242 1136 q 328 1086 279 1118 l 538 953 l 478 953 z "},"ẳ":{"ha":703,"x_min":57,"x_max":701,"o":"m 226 -17 q 104 26 151 -17 q 57 139 57 69 q 102 253 57 206 q 231 326 147 300 q 428 351 314 351 l 428 521 q 400 578 428 557 q 324 599 372 599 q 256 585 282 599 q 229 549 229 571 q 239 524 229 535 q 249 489 249 513 q 227 441 249 460 q 172 422 206 422 q 119 442 139 422 q 100 493 100 463 q 133 569 100 535 q 224 622 167 603 q 351 642 281 642 q 517 602 453 642 q 581 499 581 563 l 581 76 q 590 53 581 63 q 611 44 599 44 q 640 58 624 44 q 682 99 657 71 l 701 76 q 556 -17 636 -17 q 476 10 507 -17 q 433 86 444 38 l 428 86 q 344 13 401 42 q 226 -17 288 -17 m 310 60 q 395 99 363 60 q 428 203 428 139 l 428 315 q 271 277 324 315 q 218 165 218 239 q 242 88 218 115 q 310 60 267 60 m 351 717 q 203 766 244 717 q 161 900 161 815 l 208 900 q 244 832 211 853 q 349 811 276 811 q 456 833 422 811 q 493 900 490 854 l 540 900 q 524 806 540 847 q 466 740 507 764 q 351 717 425 717 m 342 906 q 349 939 342 925 q 367 965 357 953 q 385 991 378 978 q 393 1022 393 1004 q 376 1061 393 1051 q 339 1071 360 1071 q 302 1061 317 1071 q 288 1036 288 1051 q 292 1024 288 1028 q 301 1015 297 1021 q 306 997 306 1010 q 294 975 306 983 q 261 967 283 967 q 222 981 238 967 q 207 1015 207 994 q 226 1081 207 1057 q 276 1116 246 1106 q 336 1126 306 1126 q 437 1100 399 1126 q 475 1025 475 1074 q 463 982 475 999 q 433 953 450 965 q 401 930 417 940 q 379 906 386 919 l 342 906 z "},"ẵ":{"ha":703,"x_min":57,"x_max":701,"o":"m 226 -17 q 104 26 151 -17 q 57 139 57 69 q 102 253 57 206 q 231 326 147 300 q 428 351 314 351 l 428 521 q 400 578 428 557 q 324 599 372 599 q 256 585 282 599 q 229 549 229 571 q 239 524 229 535 q 249 489 249 513 q 227 441 249 460 q 172 422 206 422 q 119 442 139 422 q 100 493 100 463 q 133 569 100 535 q 224 622 167 603 q 351 642 281 642 q 517 602 453 642 q 581 499 581 563 l 581 76 q 590 53 581 63 q 611 44 599 44 q 640 58 624 44 q 682 99 657 71 l 701 76 q 556 -17 636 -17 q 476 10 507 -17 q 433 86 444 38 l 428 86 q 344 13 401 42 q 226 -17 288 -17 m 310 60 q 395 99 363 60 q 428 203 428 139 l 428 315 q 271 277 324 315 q 218 165 218 239 q 242 88 218 115 q 310 60 267 60 m 351 717 q 203 766 244 717 q 161 900 161 815 l 208 900 q 244 832 211 853 q 349 811 276 811 q 456 833 422 811 q 493 900 490 854 l 540 900 q 524 806 540 847 q 466 740 507 764 q 351 717 425 717 m 107 953 q 135 1035 114 996 q 191 1101 157 1075 q 271 1126 225 1126 q 340 1110 308 1126 q 400 1076 371 1093 q 461 1060 429 1060 q 522 1084 501 1060 q 549 1131 542 1108 l 596 1131 q 565 1047 586 1088 q 512 980 544 1006 q 431 954 479 954 q 361 971 392 954 q 302 1004 331 988 q 240 1021 274 1021 q 183 1001 206 1021 q 153 953 160 982 l 107 953 z "},"â":{"ha":703,"x_min":57,"x_max":701,"o":"m 226 -17 q 104 26 151 -17 q 57 139 57 69 q 102 253 57 206 q 231 326 147 300 q 428 351 314 351 l 428 521 q 400 578 428 557 q 324 599 372 599 q 256 585 282 599 q 229 549 229 571 q 239 524 229 535 q 249 489 249 513 q 227 441 249 460 q 172 422 206 422 q 119 442 139 422 q 100 493 100 463 q 133 569 100 535 q 224 622 167 603 q 351 642 281 642 q 517 602 453 642 q 581 499 581 563 l 581 76 q 590 53 581 63 q 611 44 599 44 q 640 58 624 44 q 682 99 657 71 l 701 76 q 556 -17 636 -17 q 476 10 507 -17 q 433 86 444 38 l 428 86 q 344 13 401 42 q 226 -17 288 -17 m 310 60 q 395 99 363 60 q 428 203 428 139 l 428 315 q 271 277 324 315 q 218 165 218 239 q 242 88 218 115 q 310 60 267 60 m 126 728 l 308 1006 l 394 1006 l 576 728 l 517 728 l 351 875 l 186 728 l 126 728 z "},"ấ":{"ha":703,"x_min":57,"x_max":701,"o":"m 226 -17 q 104 26 151 -17 q 57 139 57 69 q 102 253 57 206 q 231 326 147 300 q 428 351 314 351 l 428 521 q 400 578 428 557 q 324 599 372 599 q 256 585 282 599 q 229 549 229 571 q 239 524 229 535 q 249 489 249 513 q 227 441 249 460 q 172 422 206 422 q 119 442 139 422 q 100 493 100 463 q 133 569 100 535 q 224 622 167 603 q 351 642 281 642 q 517 602 453 642 q 581 499 581 563 l 581 76 q 590 53 581 63 q 611 44 599 44 q 640 58 624 44 q 682 99 657 71 l 701 76 q 556 -17 636 -17 q 476 10 507 -17 q 433 86 444 38 l 428 86 q 344 13 401 42 q 226 -17 288 -17 m 310 60 q 395 99 363 60 q 428 203 428 139 l 428 315 q 271 277 324 315 q 218 165 218 239 q 242 88 218 115 q 310 60 267 60 m 140 728 l 308 883 l 394 883 l 563 728 l 503 728 l 351 799 l 200 728 l 140 728 m 165 908 l 375 1042 q 443 1083 424 1074 q 476 1092 463 1092 q 522 1076 506 1092 q 538 1032 538 1060 q 520 985 538 1006 q 468 958 503 965 l 225 908 l 165 908 z "},"ậ":{"ha":703,"x_min":57,"x_max":701,"o":"m 226 -17 q 104 26 151 -17 q 57 139 57 69 q 102 253 57 206 q 231 326 147 300 q 428 351 314 351 l 428 521 q 400 578 428 557 q 324 599 372 599 q 256 585 282 599 q 229 549 229 571 q 239 524 229 535 q 249 489 249 513 q 227 441 249 460 q 172 422 206 422 q 119 442 139 422 q 100 493 100 463 q 133 569 100 535 q 224 622 167 603 q 351 642 281 642 q 517 602 453 642 q 581 499 581 563 l 581 76 q 590 53 581 63 q 611 44 599 44 q 640 58 624 44 q 682 99 657 71 l 701 76 q 556 -17 636 -17 q 476 10 507 -17 q 433 86 444 38 l 428 86 q 344 13 401 42 q 226 -17 288 -17 m 310 60 q 395 99 363 60 q 428 203 428 139 l 428 315 q 271 277 324 315 q 218 165 218 239 q 242 88 218 115 q 310 60 267 60 m 351 -321 q 287 -294 314 -321 q 260 -229 260 -267 q 287 -165 260 -192 q 351 -137 314 -137 q 416 -165 389 -137 q 443 -229 443 -192 q 416 -294 443 -267 q 351 -321 389 -321 m 126 728 l 308 1006 l 394 1006 l 576 728 l 517 728 l 351 875 l 186 728 l 126 728 z "},"ầ":{"ha":703,"x_min":57,"x_max":701,"o":"m 226 -17 q 104 26 151 -17 q 57 139 57 69 q 102 253 57 206 q 231 326 147 300 q 428 351 314 351 l 428 521 q 400 578 428 557 q 324 599 372 599 q 256 585 282 599 q 229 549 229 571 q 239 524 229 535 q 249 489 249 513 q 227 441 249 460 q 172 422 206 422 q 119 442 139 422 q 100 493 100 463 q 133 569 100 535 q 224 622 167 603 q 351 642 281 642 q 517 602 453 642 q 581 499 581 563 l 581 76 q 590 53 581 63 q 611 44 599 44 q 640 58 624 44 q 682 99 657 71 l 701 76 q 556 -17 636 -17 q 476 10 507 -17 q 433 86 444 38 l 428 86 q 344 13 401 42 q 226 -17 288 -17 m 310 60 q 395 99 363 60 q 428 203 428 139 l 428 315 q 271 277 324 315 q 218 165 218 239 q 242 88 218 115 q 310 60 267 60 m 140 728 l 308 883 l 394 883 l 563 728 l 503 728 l 351 799 l 200 728 l 140 728 m 478 901 l 235 951 q 183 978 200 958 q 165 1025 165 999 q 181 1069 165 1053 q 226 1085 197 1085 q 260 1076 242 1085 q 328 1035 279 1067 l 538 901 l 478 901 z "},"ẩ":{"ha":703,"x_min":57,"x_max":701,"o":"m 226 -17 q 104 26 151 -17 q 57 139 57 69 q 102 253 57 206 q 231 326 147 300 q 428 351 314 351 l 428 521 q 400 578 428 557 q 324 599 372 599 q 256 585 282 599 q 229 549 229 571 q 239 524 229 535 q 249 489 249 513 q 227 441 249 460 q 172 422 206 422 q 119 442 139 422 q 100 493 100 463 q 133 569 100 535 q 224 622 167 603 q 351 642 281 642 q 517 602 453 642 q 581 499 581 563 l 581 76 q 590 53 581 63 q 611 44 599 44 q 640 58 624 44 q 682 99 657 71 l 701 76 q 556 -17 636 -17 q 476 10 507 -17 q 433 86 444 38 l 428 86 q 344 13 401 42 q 226 -17 288 -17 m 310 60 q 395 99 363 60 q 428 203 428 139 l 428 315 q 271 277 324 315 q 218 165 218 239 q 242 88 218 115 q 310 60 267 60 m 140 728 l 308 883 l 394 883 l 563 728 l 503 728 l 351 799 l 200 728 l 140 728 m 515 879 q 523 912 515 899 q 541 937 531 925 q 559 959 551 949 q 567 982 567 969 q 550 1033 567 1022 q 513 1044 533 1044 q 476 1035 490 1044 q 461 1010 461 1025 q 466 998 461 1001 q 475 989 471 994 q 479 971 479 983 q 468 949 479 957 q 435 940 457 940 q 396 954 411 940 q 381 989 381 968 q 400 1055 381 1031 q 449 1090 419 1079 q 510 1100 479 1100 q 610 1072 572 1100 q 649 985 649 1044 q 636 950 649 964 q 607 925 624 936 q 575 903 590 914 q 553 879 560 893 l 515 879 z "},"ẫ":{"ha":703,"x_min":57,"x_max":701,"o":"m 226 -17 q 104 26 151 -17 q 57 139 57 69 q 102 253 57 206 q 231 326 147 300 q 428 351 314 351 l 428 521 q 400 578 428 557 q 324 599 372 599 q 256 585 282 599 q 229 549 229 571 q 239 524 229 535 q 249 489 249 513 q 227 441 249 460 q 172 422 206 422 q 119 442 139 422 q 100 493 100 463 q 133 569 100 535 q 224 622 167 603 q 351 642 281 642 q 517 602 453 642 q 581 499 581 563 l 581 76 q 590 53 581 63 q 611 44 599 44 q 640 58 624 44 q 682 99 657 71 l 701 76 q 556 -17 636 -17 q 476 10 507 -17 q 433 86 444 38 l 428 86 q 344 13 401 42 q 226 -17 288 -17 m 310 60 q 395 99 363 60 q 428 203 428 139 l 428 315 q 271 277 324 315 q 218 165 218 239 q 242 88 218 115 q 310 60 267 60 m 140 719 l 308 875 l 394 875 l 563 719 l 503 719 l 351 790 l 200 719 l 140 719 m 107 949 q 135 1031 114 992 q 191 1097 157 1071 q 271 1122 225 1122 q 340 1106 308 1122 q 400 1072 371 1089 q 461 1056 429 1056 q 522 1080 501 1056 q 549 1126 542 1104 l 596 1126 q 565 1042 586 1083 q 512 976 544 1001 q 431 950 479 950 q 361 967 392 950 q 302 1000 331 983 q 240 1017 274 1017 q 183 997 206 1017 q 153 949 160 978 l 107 949 z "},"ȁ":{"ha":703,"x_min":-3,"x_max":701,"o":"m 226 -17 q 104 26 151 -17 q 57 139 57 69 q 102 253 57 206 q 231 326 147 300 q 428 351 314 351 l 428 521 q 400 578 428 557 q 324 599 372 599 q 256 585 282 599 q 229 549 229 571 q 239 524 229 535 q 249 489 249 513 q 227 441 249 460 q 172 422 206 422 q 119 442 139 422 q 100 493 100 463 q 133 569 100 535 q 224 622 167 603 q 351 642 281 642 q 517 602 453 642 q 581 499 581 563 l 581 76 q 590 53 581 63 q 611 44 599 44 q 640 58 624 44 q 682 99 657 71 l 701 76 q 556 -17 636 -17 q 476 10 507 -17 q 433 86 444 38 l 428 86 q 344 13 401 42 q 226 -17 288 -17 m 310 60 q 395 99 363 60 q 428 203 428 139 l 428 315 q 271 277 324 315 q 218 165 218 239 q 242 88 218 115 q 310 60 267 60 m 501 728 l 314 858 q 258 909 271 889 q 244 947 244 929 q 261 989 244 972 q 308 1006 278 1006 q 352 994 331 1006 q 397 950 374 982 l 561 728 l 501 728 m 254 728 l 67 858 q 10 909 24 889 q -3 947 -3 929 q 14 989 -3 972 q 61 1006 31 1006 q 105 994 83 1006 q 150 950 126 982 l 314 728 l 254 728 z "},"ä":{"ha":703,"x_min":57,"x_max":701,"o":"m 226 -17 q 104 26 151 -17 q 57 139 57 69 q 102 253 57 206 q 231 326 147 300 q 428 351 314 351 l 428 521 q 400 578 428 557 q 324 599 372 599 q 256 585 282 599 q 229 549 229 571 q 239 524 229 535 q 249 489 249 513 q 227 441 249 460 q 172 422 206 422 q 119 442 139 422 q 100 493 100 463 q 133 569 100 535 q 224 622 167 603 q 351 642 281 642 q 517 602 453 642 q 581 499 581 563 l 581 76 q 590 53 581 63 q 611 44 599 44 q 640 58 624 44 q 682 99 657 71 l 701 76 q 556 -17 636 -17 q 476 10 507 -17 q 433 86 444 38 l 428 86 q 344 13 401 42 q 226 -17 288 -17 m 310 60 q 395 99 363 60 q 428 203 428 139 l 428 315 q 271 277 324 315 q 218 165 218 239 q 242 88 218 115 q 310 60 267 60 m 483 794 q 430 817 453 794 q 407 871 407 840 q 430 925 407 903 q 483 947 453 947 q 538 925 515 947 q 560 871 560 903 q 538 817 560 840 q 483 794 515 794 m 219 794 q 166 817 189 794 q 143 871 143 840 q 166 925 143 903 q 219 947 189 947 q 274 925 251 947 q 296 871 296 903 q 274 817 296 840 q 219 794 251 794 z "},"ạ":{"ha":703,"x_min":57,"x_max":701,"o":"m 226 -17 q 104 26 151 -17 q 57 139 57 69 q 102 253 57 206 q 231 326 147 300 q 428 351 314 351 l 428 521 q 400 578 428 557 q 324 599 372 599 q 256 585 282 599 q 229 549 229 571 q 239 524 229 535 q 249 489 249 513 q 227 441 249 460 q 172 422 206 422 q 119 442 139 422 q 100 493 100 463 q 133 569 100 535 q 224 622 167 603 q 351 642 281 642 q 517 602 453 642 q 581 499 581 563 l 581 76 q 590 53 581 63 q 611 44 599 44 q 640 58 624 44 q 682 99 657 71 l 701 76 q 556 -17 636 -17 q 476 10 507 -17 q 433 86 444 38 l 428 86 q 344 13 401 42 q 226 -17 288 -17 m 310 60 q 395 99 363 60 q 428 203 428 139 l 428 315 q 271 277 324 315 q 218 165 218 239 q 242 88 218 115 q 310 60 267 60 m 351 -321 q 287 -294 314 -321 q 260 -229 260 -267 q 287 -165 260 -192 q 351 -137 314 -137 q 416 -165 389 -137 q 443 -229 443 -192 q 416 -294 443 -267 q 351 -321 389 -321 z "},"à":{"ha":703,"x_min":57,"x_max":701,"o":"m 226 -17 q 104 26 151 -17 q 57 139 57 69 q 102 253 57 206 q 231 326 147 300 q 428 351 314 351 l 428 521 q 400 578 428 557 q 324 599 372 599 q 256 585 282 599 q 229 549 229 571 q 239 524 229 535 q 249 489 249 513 q 227 441 249 460 q 172 422 206 422 q 119 442 139 422 q 100 493 100 463 q 133 569 100 535 q 224 622 167 603 q 351 642 281 642 q 517 602 453 642 q 581 499 581 563 l 581 76 q 590 53 581 63 q 611 44 599 44 q 640 58 624 44 q 682 99 657 71 l 701 76 q 556 -17 636 -17 q 476 10 507 -17 q 433 86 444 38 l 428 86 q 344 13 401 42 q 226 -17 288 -17 m 310 60 q 395 99 363 60 q 428 203 428 139 l 428 315 q 271 277 324 315 q 218 165 218 239 q 242 88 218 115 q 310 60 267 60 m 363 728 l 175 858 q 119 909 132 889 q 106 947 106 929 q 122 989 106 972 q 169 1006 139 1006 q 213 994 192 1006 q 258 950 235 982 l 422 728 l 363 728 z "},"ả":{"ha":703,"x_min":57,"x_max":701,"o":"m 226 -17 q 104 26 151 -17 q 57 139 57 69 q 102 253 57 206 q 231 326 147 300 q 428 351 314 351 l 428 521 q 400 578 428 557 q 324 599 372 599 q 256 585 282 599 q 229 549 229 571 q 239 524 229 535 q 249 489 249 513 q 227 441 249 460 q 172 422 206 422 q 119 442 139 422 q 100 493 100 463 q 133 569 100 535 q 224 622 167 603 q 351 642 281 642 q 517 602 453 642 q 581 499 581 563 l 581 76 q 590 53 581 63 q 611 44 599 44 q 640 58 624 44 q 682 99 657 71 l 701 76 q 556 -17 636 -17 q 476 10 507 -17 q 433 86 444 38 l 428 86 q 344 13 401 42 q 226 -17 288 -17 m 310 60 q 395 99 363 60 q 428 203 428 139 l 428 315 q 271 277 324 315 q 218 165 218 239 q 242 88 218 115 q 310 60 267 60 m 351 719 q 359 753 351 739 q 377 778 367 767 q 395 803 388 790 q 403 832 403 815 q 386 874 403 864 q 349 885 369 885 q 312 875 326 885 q 297 850 297 865 q 302 838 297 842 q 311 829 307 835 q 315 811 315 824 q 304 789 315 797 q 271 781 293 781 q 232 794 247 781 q 217 829 217 808 q 236 895 217 871 q 285 930 256 919 q 346 940 315 940 q 447 914 408 940 q 485 835 485 888 q 472 794 485 810 q 443 766 460 778 q 411 744 426 754 q 389 719 396 733 l 351 719 z "},"ȃ":{"ha":703,"x_min":57,"x_max":701,"o":"m 226 -17 q 104 26 151 -17 q 57 139 57 69 q 102 253 57 206 q 231 326 147 300 q 428 351 314 351 l 428 521 q 400 578 428 557 q 324 599 372 599 q 256 585 282 599 q 229 549 229 571 q 239 524 229 535 q 249 489 249 513 q 227 441 249 460 q 172 422 206 422 q 119 442 139 422 q 100 493 100 463 q 133 569 100 535 q 224 622 167 603 q 351 642 281 642 q 517 602 453 642 q 581 499 581 563 l 581 76 q 590 53 581 63 q 611 44 599 44 q 640 58 624 44 q 682 99 657 71 l 701 76 q 556 -17 636 -17 q 476 10 507 -17 q 433 86 444 38 l 428 86 q 344 13 401 42 q 226 -17 288 -17 m 310 60 q 395 99 363 60 q 428 203 428 139 l 428 315 q 271 277 324 315 q 218 165 218 239 q 242 88 218 115 q 310 60 267 60 m 133 728 q 189 885 133 825 q 351 946 244 946 q 515 883 463 946 q 568 728 568 821 l 521 728 q 470 811 518 785 q 349 838 422 838 q 230 812 276 838 q 181 728 183 786 l 133 728 z "},"ā":{"ha":703,"x_min":57,"x_max":701,"o":"m 226 -17 q 104 26 151 -17 q 57 139 57 69 q 102 253 57 206 q 231 326 147 300 q 428 351 314 351 l 428 521 q 400 578 428 557 q 324 599 372 599 q 256 585 282 599 q 229 549 229 571 q 239 524 229 535 q 249 489 249 513 q 227 441 249 460 q 172 422 206 422 q 119 442 139 422 q 100 493 100 463 q 133 569 100 535 q 224 622 167 603 q 351 642 281 642 q 517 602 453 642 q 581 499 581 563 l 581 76 q 590 53 581 63 q 611 44 599 44 q 640 58 624 44 q 682 99 657 71 l 701 76 q 556 -17 636 -17 q 476 10 507 -17 q 433 86 444 38 l 428 86 q 344 13 401 42 q 226 -17 288 -17 m 310 60 q 395 99 363 60 q 428 203 428 139 l 428 315 q 271 277 324 315 q 218 165 218 239 q 242 88 218 115 q 310 60 267 60 m 129 801 l 129 893 l 574 893 l 574 801 l 129 801 z "},"ą":{"ha":703,"x_min":57,"x_max":701,"o":"m 226 -17 q 104 26 151 -17 q 57 139 57 69 q 102 253 57 206 q 231 326 147 300 q 428 351 314 351 l 428 521 q 400 578 428 557 q 324 599 372 599 q 256 585 282 599 q 229 549 229 571 q 239 524 229 535 q 249 489 249 513 q 227 441 249 460 q 172 422 206 422 q 119 442 139 422 q 100 493 100 463 q 133 569 100 535 q 224 622 167 603 q 351 642 281 642 q 517 602 453 642 q 581 499 581 563 l 581 76 q 590 53 581 63 q 611 44 599 44 q 640 58 624 44 q 682 99 657 71 l 701 76 q 556 -17 636 -17 q 476 10 507 -17 q 433 86 444 38 l 428 86 q 344 13 401 42 q 226 -17 288 -17 m 310 60 q 395 99 363 60 q 428 203 428 139 l 428 315 q 271 277 324 315 q 218 165 218 239 q 242 88 218 115 q 310 60 267 60 m 497 -337 q 407 -306 442 -337 q 372 -221 372 -274 q 392 -150 372 -185 q 456 -76 411 -115 q 578 14 501 -36 l 628 14 q 509 -99 549 -44 q 469 -207 469 -154 q 533 -281 469 -281 q 574 -272 553 -281 q 626 -240 596 -262 l 632 -240 l 632 -278 q 574 -321 610 -304 q 497 -337 538 -337 z "},"å":{"ha":703,"x_min":57,"x_max":701,"o":"m 226 -17 q 104 26 151 -17 q 57 139 57 69 q 102 253 57 206 q 231 326 147 300 q 428 351 314 351 l 428 521 q 400 578 428 557 q 324 599 372 599 q 256 585 282 599 q 229 549 229 571 q 239 524 229 535 q 249 489 249 513 q 227 441 249 460 q 172 422 206 422 q 119 442 139 422 q 100 493 100 463 q 133 569 100 535 q 224 622 167 603 q 351 642 281 642 q 517 602 453 642 q 581 499 581 563 l 581 76 q 590 53 581 63 q 611 44 599 44 q 640 58 624 44 q 682 99 657 71 l 701 76 q 556 -17 636 -17 q 476 10 507 -17 q 433 86 444 38 l 428 86 q 344 13 401 42 q 226 -17 288 -17 m 310 60 q 395 99 363 60 q 428 203 428 139 l 428 315 q 271 277 324 315 q 218 165 218 239 q 242 88 218 115 q 310 60 267 60 m 351 750 q 252 792 294 750 q 210 892 210 833 q 252 990 210 949 q 351 1032 294 1032 q 451 991 408 1032 q 493 892 493 950 q 451 792 493 833 q 351 750 410 750 m 351 814 q 406 838 383 814 q 428 892 428 861 q 405 944 428 922 q 351 967 382 967 q 298 944 321 967 q 275 892 275 922 q 298 838 275 861 q 351 814 321 814 z "},"ǻ":{"ha":703,"x_min":57,"x_max":701,"o":"m 226 -17 q 104 26 151 -17 q 57 139 57 69 q 102 253 57 206 q 231 326 147 300 q 428 351 314 351 l 428 521 q 400 578 428 557 q 324 599 372 599 q 256 585 282 599 q 229 549 229 571 q 239 524 229 535 q 249 489 249 513 q 227 441 249 460 q 172 422 206 422 q 119 442 139 422 q 100 493 100 463 q 133 569 100 535 q 224 622 167 603 q 351 642 281 642 q 517 602 453 642 q 581 499 581 563 l 581 76 q 590 53 581 63 q 611 44 599 44 q 640 58 624 44 q 682 99 657 71 l 701 76 q 556 -17 636 -17 q 476 10 507 -17 q 433 86 444 38 l 428 86 q 344 13 401 42 q 226 -17 288 -17 m 310 60 q 395 99 363 60 q 428 203 428 139 l 428 315 q 271 277 324 315 q 218 165 218 239 q 242 88 218 115 q 310 60 267 60 m 351 750 q 252 792 294 750 q 210 892 210 833 q 252 990 210 949 q 351 1032 294 1032 q 451 991 408 1032 q 493 892 493 950 q 451 792 493 833 q 351 750 410 750 m 351 814 q 406 838 383 814 q 428 892 428 861 q 405 944 428 922 q 351 967 382 967 q 298 944 321 967 q 275 892 275 922 q 298 838 275 861 q 351 814 321 814 m 165 1126 l 375 1260 q 443 1301 424 1292 q 476 1310 463 1310 q 522 1294 506 1310 q 538 1250 538 1278 q 520 1203 538 1224 q 468 1176 503 1183 l 225 1126 l 165 1126 z "},"ã":{"ha":703,"x_min":57,"x_max":701,"o":"m 226 -17 q 104 26 151 -17 q 57 139 57 69 q 102 253 57 206 q 231 326 147 300 q 428 351 314 351 l 428 521 q 400 578 428 557 q 324 599 372 599 q 256 585 282 599 q 229 549 229 571 q 239 524 229 535 q 249 489 249 513 q 227 441 249 460 q 172 422 206 422 q 119 442 139 422 q 100 493 100 463 q 133 569 100 535 q 224 622 167 603 q 351 642 281 642 q 517 602 453 642 q 581 499 581 563 l 581 76 q 590 53 581 63 q 611 44 599 44 q 640 58 624 44 q 682 99 657 71 l 701 76 q 556 -17 636 -17 q 476 10 507 -17 q 433 86 444 38 l 428 86 q 344 13 401 42 q 226 -17 288 -17 m 310 60 q 395 99 363 60 q 428 203 428 139 l 428 315 q 271 277 324 315 q 218 165 218 239 q 242 88 218 115 q 310 60 267 60 m 107 775 q 135 858 114 818 q 191 923 157 897 q 271 949 225 949 q 340 932 308 949 q 400 899 371 915 q 461 882 429 882 q 522 906 501 882 q 549 953 542 931 l 596 953 q 565 869 586 910 q 512 802 544 828 q 431 776 479 776 q 361 793 392 776 q 302 826 331 810 q 240 843 274 843 q 183 824 206 843 q 153 775 160 804 l 107 775 z "},"æ":{"ha":1049,"x_min":61,"x_max":990,"o":"m 732 -17 q 582 30 649 -17 q 476 153 515 76 q 436 317 436 229 q 472 474 436 400 q 572 595 507 549 q 724 642 638 642 q 856 608 797 642 q 951 513 915 574 q 986 372 986 451 l 986 364 l 532 364 l 532 399 l 825 399 l 825 478 q 714 604 825 604 q 640 577 668 604 q 598 487 611 550 q 585 313 585 424 q 599 138 585 200 q 645 50 613 75 q 733 25 678 25 q 861 64 807 25 q 951 193 915 103 l 990 193 q 934 82 972 129 q 844 9 896 35 q 732 -17 792 -17 m 314 60 q 399 99 367 60 q 432 203 432 139 l 432 315 q 275 277 328 315 q 222 165 222 239 q 247 88 222 115 q 314 60 271 60 m 233 -17 q 108 26 156 -17 q 61 138 61 69 q 106 252 61 204 q 235 326 151 300 q 432 351 318 351 l 432 521 q 404 578 432 557 q 328 599 376 599 q 260 585 286 599 q 233 549 233 571 q 243 524 233 535 q 253 489 253 513 q 231 441 253 460 q 176 422 210 422 q 124 442 143 422 q 104 493 104 463 q 138 569 104 535 q 228 622 171 603 q 356 642 285 642 q 521 602 457 642 q 585 499 585 563 l 585 76 l 476 151 l 471 151 q 376 29 439 75 q 233 -17 314 -17 z "},"ǽ":{"ha":1049,"x_min":61,"x_max":990,"o":"m 732 -17 q 582 30 649 -17 q 476 153 515 76 q 436 317 436 229 q 472 474 436 400 q 572 595 507 549 q 724 642 638 642 q 856 608 797 642 q 951 513 915 574 q 986 372 986 451 l 986 364 l 532 364 l 532 399 l 825 399 l 825 478 q 714 604 825 604 q 640 577 668 604 q 598 487 611 550 q 585 313 585 424 q 599 138 585 200 q 645 50 613 75 q 733 25 678 25 q 861 64 807 25 q 951 193 915 103 l 990 193 q 934 82 972 129 q 844 9 896 35 q 732 -17 792 -17 m 314 60 q 399 99 367 60 q 432 203 432 139 l 432 315 q 275 277 328 315 q 222 165 222 239 q 247 88 222 115 q 314 60 271 60 m 233 -17 q 108 26 156 -17 q 61 138 61 69 q 106 252 61 204 q 235 326 151 300 q 432 351 318 351 l 432 521 q 404 578 432 557 q 328 599 376 599 q 260 585 286 599 q 233 549 233 571 q 243 524 233 535 q 253 489 253 513 q 231 441 253 460 q 176 422 210 422 q 124 442 143 422 q 104 493 104 463 q 138 569 104 535 q 228 622 171 603 q 356 642 285 642 q 521 602 457 642 q 585 499 585 563 l 585 76 l 476 151 l 471 151 q 376 29 439 75 q 233 -17 314 -17 m 506 728 l 669 950 q 715 994 693 982 q 758 1006 736 1006 q 806 989 789 1006 q 822 947 822 972 q 810 909 822 929 q 753 858 797 889 l 565 728 l 506 728 z "},"b":{"ha":792,"x_min":6,"x_max":728,"o":"m 458 -17 q 346 11 394 -17 q 274 81 297 39 l 240 81 l 268 292 q 318 94 268 157 q 443 31 368 31 q 506 53 482 31 q 540 136 529 75 q 550 311 550 197 q 539 488 550 426 q 504 572 528 549 q 442 594 481 594 q 317 532 367 594 q 268 333 268 469 l 240 544 l 274 544 q 347 614 297 586 q 460 642 396 642 q 590 601 529 642 q 690 485 651 560 q 728 313 728 411 q 690 140 728 214 q 590 24 651 65 q 458 -17 528 -17 m 6 0 l 6 35 l 268 35 l 268 0 l 6 0 m 115 21 l 115 1025 l 268 1025 l 268 21 l 115 21 m 6 1013 l 6 1047 l 268 1047 l 268 1013 l 6 1013 z "},"c":{"ha":701,"x_min":68,"x_max":649,"o":"m 390 -17 q 265 11 324 -17 q 163 86 207 39 q 93 192 118 133 q 68 314 68 251 q 93 433 68 375 q 163 539 118 492 q 268 614 207 586 q 401 642 329 642 q 513 622 463 642 q 594 566 564 601 q 624 483 624 531 q 600 419 624 443 q 540 396 576 396 q 481 415 507 396 q 454 474 454 435 q 463 510 454 497 q 479 533 471 522 q 488 560 488 543 q 465 594 488 583 q 400 604 443 604 q 313 581 346 604 q 264 494 279 557 q 249 311 249 431 q 263 136 249 199 q 308 49 276 74 q 394 25 340 25 q 522 67 471 25 q 610 207 572 108 l 649 207 q 556 45 622 107 q 390 -17 490 -17 z "},"ć":{"ha":701,"x_min":68,"x_max":649,"o":"m 390 -17 q 265 11 324 -17 q 163 86 207 39 q 93 192 118 133 q 68 314 68 251 q 93 433 68 375 q 163 539 118 492 q 268 614 207 586 q 401 642 329 642 q 513 622 463 642 q 594 566 564 601 q 624 483 624 531 q 600 419 624 443 q 540 396 576 396 q 481 415 507 396 q 454 474 454 435 q 463 510 454 497 q 479 533 471 522 q 488 560 488 543 q 465 594 488 583 q 400 604 443 604 q 313 581 346 604 q 264 494 279 557 q 249 311 249 431 q 263 136 249 199 q 308 49 276 74 q 394 25 340 25 q 522 67 471 25 q 610 207 572 108 l 649 207 q 556 45 622 107 q 390 -17 490 -17 m 332 728 l 496 950 q 541 994 519 982 q 585 1006 563 1006 q 632 989 615 1006 q 649 947 649 972 q 636 909 649 929 q 579 858 624 889 l 392 728 l 332 728 z "},"č":{"ha":701,"x_min":68,"x_max":649,"o":"m 390 -17 q 265 11 324 -17 q 163 86 207 39 q 93 192 118 133 q 68 314 68 251 q 93 433 68 375 q 163 539 118 492 q 268 614 207 586 q 401 642 329 642 q 513 622 463 642 q 594 566 564 601 q 624 483 624 531 q 600 419 624 443 q 540 396 576 396 q 481 415 507 396 q 454 474 454 435 q 463 510 454 497 q 479 533 471 522 q 488 560 488 543 q 465 594 488 583 q 400 604 443 604 q 313 581 346 604 q 264 494 279 557 q 249 311 249 431 q 263 136 249 199 q 308 49 276 74 q 394 25 340 25 q 522 67 471 25 q 610 207 572 108 l 649 207 q 556 45 622 107 q 390 -17 490 -17 m 336 728 l 154 1006 l 214 1006 l 379 858 l 544 1006 l 604 1006 l 422 728 l 336 728 z "},"ç":{"ha":701,"x_min":68,"x_max":649,"o":"m 390 -17 q 265 11 324 -17 q 163 86 207 39 q 93 192 118 133 q 68 314 68 251 q 93 433 68 375 q 163 539 118 492 q 268 614 207 586 q 401 642 329 642 q 513 622 463 642 q 594 566 564 601 q 624 483 624 531 q 600 419 624 443 q 540 396 576 396 q 481 415 507 396 q 454 474 454 435 q 463 510 454 497 q 479 533 471 522 q 488 560 488 543 q 465 594 488 583 q 400 604 443 604 q 313 581 346 604 q 264 494 279 557 q 249 311 249 431 q 263 136 249 199 q 308 49 276 74 q 394 25 340 25 q 522 67 471 25 q 610 207 572 108 l 649 207 q 556 45 622 107 q 390 -17 490 -17 m 318 -314 q 247 -306 276 -314 q 207 -290 218 -297 l 222 -256 q 256 -266 233 -261 q 300 -271 279 -271 q 361 -253 339 -271 q 383 -201 383 -236 q 279 -125 383 -126 l 326 14 l 368 14 l 335 -92 l 361 -92 q 458 -117 421 -92 q 494 -192 494 -143 q 445 -281 494 -247 q 318 -314 396 -314 z "},"ĉ":{"ha":701,"x_min":68,"x_max":649,"o":"m 390 -17 q 265 11 324 -17 q 163 86 207 39 q 93 192 118 133 q 68 314 68 251 q 93 433 68 375 q 163 539 118 492 q 268 614 207 586 q 401 642 329 642 q 513 622 463 642 q 594 566 564 601 q 624 483 624 531 q 600 419 624 443 q 540 396 576 396 q 481 415 507 396 q 454 474 454 435 q 463 510 454 497 q 479 533 471 522 q 488 560 488 543 q 465 594 488 583 q 400 604 443 604 q 313 581 346 604 q 264 494 279 557 q 249 311 249 431 q 263 136 249 199 q 308 49 276 74 q 394 25 340 25 q 522 67 471 25 q 610 207 572 108 l 649 207 q 556 45 622 107 q 390 -17 490 -17 m 154 728 l 336 1006 l 422 1006 l 604 728 l 544 728 l 379 875 l 214 728 l 154 728 z "},"ċ":{"ha":701,"x_min":68,"x_max":649,"o":"m 390 -17 q 265 11 324 -17 q 163 86 207 39 q 93 192 118 133 q 68 314 68 251 q 93 433 68 375 q 163 539 118 492 q 268 614 207 586 q 401 642 329 642 q 513 622 463 642 q 594 566 564 601 q 624 483 624 531 q 600 419 624 443 q 540 396 576 396 q 481 415 507 396 q 454 474 454 435 q 463 510 454 497 q 479 533 471 522 q 488 560 488 543 q 465 594 488 583 q 400 604 443 604 q 313 581 346 604 q 264 494 279 557 q 249 311 249 431 q 263 136 249 199 q 308 49 276 74 q 394 25 340 25 q 522 67 471 25 q 610 207 572 108 l 649 207 q 556 45 622 107 q 390 -17 490 -17 m 379 807 q 315 834 342 807 q 288 899 288 861 q 315 963 288 936 q 379 990 342 990 q 444 963 417 990 q 471 899 471 936 q 444 834 471 861 q 379 807 417 807 z "},"d":{"ha":789,"x_min":67,"x_max":774,"o":"m 336 -17 q 205 24 267 -17 q 105 140 143 65 q 67 313 67 214 q 105 485 67 411 q 204 601 143 560 q 335 642 265 642 q 449 614 400 642 q 521 544 499 586 l 554 544 l 526 333 q 477 532 526 469 q 353 594 428 594 q 290 572 314 594 q 256 488 267 549 q 244 311 244 426 q 255 136 244 197 q 289 53 265 75 q 351 31 313 31 q 476 94 426 31 q 526 292 526 157 l 554 81 l 521 81 q 450 11 499 39 q 336 -17 401 -17 m 526 0 l 526 35 l 774 35 l 774 0 l 526 0 m 526 21 l 526 1025 l 679 1025 l 679 21 l 526 21 m 389 1013 l 389 1047 l 679 1047 l 679 1013 l 389 1013 z "},"ð":{"ha":804,"x_min":38,"x_max":756,"o":"m 399 -18 q 266 6 331 -18 q 149 73 201 29 q 67 175 97 117 q 38 304 38 233 q 85 463 38 392 q 210 575 132 533 q 385 617 289 617 q 468 607 429 617 q 540 576 507 597 l 544 578 q 513 775 544 689 q 411 919 482 861 q 222 1007 340 978 l 235 1044 q 428 974 335 1026 q 595 839 521 921 q 713 649 669 757 q 756 413 756 542 q 708 181 756 278 q 580 33 661 85 q 399 -18 499 -18 m 403 24 q 497 44 463 24 q 548 120 532 65 q 564 279 564 175 q 561 385 564 325 q 550 497 558 444 q 476 556 519 538 q 382 575 432 575 q 301 552 332 575 q 254 469 269 529 q 239 294 239 408 q 254 126 239 185 q 305 46 269 68 q 403 24 340 24 m 300 774 l 283 819 l 706 965 l 721 919 l 300 774 z "},"ď":{"ha":789,"x_min":67,"x_max":961,"o":"m 336 -17 q 205 24 267 -17 q 105 140 143 65 q 67 313 67 214 q 105 485 67 411 q 204 601 143 560 q 335 642 265 642 q 449 614 400 642 q 521 544 499 586 l 554 544 l 526 333 q 477 532 526 469 q 353 594 428 594 q 290 572 314 594 q 256 488 267 549 q 244 311 244 426 q 255 136 244 197 q 289 53 265 75 q 351 31 313 31 q 476 94 426 31 q 526 292 526 157 l 554 81 l 521 81 q 450 11 499 39 q 336 -17 401 -17 m 526 0 l 526 35 l 774 35 l 774 0 l 526 0 m 526 21 l 526 1025 l 679 1025 l 679 21 l 526 21 m 389 1013 l 389 1047 l 679 1047 l 679 1013 l 389 1013 m 810 689 l 782 721 q 877 810 844 763 q 910 906 910 858 q 908 921 910 917 q 903 925 906 925 q 885 916 897 925 q 858 897 874 907 q 819 888 842 888 q 766 910 782 888 q 750 957 750 932 q 776 1019 750 993 q 847 1046 803 1046 q 931 1008 900 1046 q 961 913 961 969 q 918 786 961 843 q 810 689 875 729 z "},"đ":{"ha":789,"x_min":67,"x_max":806,"o":"m 336 -17 q 205 24 267 -17 q 105 140 143 65 q 67 313 67 214 q 105 485 67 411 q 204 601 143 560 q 335 642 265 642 q 449 614 400 642 q 521 544 499 586 l 554 544 l 526 333 q 477 532 526 469 q 353 594 428 594 q 290 572 314 594 q 256 488 267 549 q 244 311 244 426 q 255 136 244 197 q 289 53 265 75 q 351 31 313 31 q 476 94 426 31 q 526 292 526 157 l 554 81 l 521 81 q 450 11 499 39 q 336 -17 401 -17 m 526 0 l 526 35 l 774 35 l 774 0 l 526 0 m 526 21 l 526 1025 l 679 1025 l 679 21 l 526 21 m 389 1013 l 389 1047 l 679 1047 l 679 1013 l 389 1013 m 299 801 l 299 850 l 806 850 l 806 801 l 299 801 z "},"ḍ":{"ha":789,"x_min":67,"x_max":774,"o":"m 336 -17 q 205 24 267 -17 q 105 140 143 65 q 67 313 67 214 q 105 485 67 411 q 204 601 143 560 q 335 642 265 642 q 449 614 400 642 q 521 544 499 586 l 554 544 l 526 333 q 477 532 526 469 q 353 594 428 594 q 290 572 314 594 q 256 488 267 549 q 244 311 244 426 q 255 136 244 197 q 289 53 265 75 q 351 31 313 31 q 476 94 426 31 q 526 292 526 157 l 554 81 l 521 81 q 450 11 499 39 q 336 -17 401 -17 m 526 0 l 526 35 l 774 35 l 774 0 l 526 0 m 526 21 l 526 1025 l 679 1025 l 679 21 l 526 21 m 389 1013 l 389 1047 l 679 1047 l 679 1013 l 389 1013 m 394 -321 q 330 -294 357 -321 q 303 -229 303 -267 q 330 -165 303 -192 q 394 -137 357 -137 q 459 -165 432 -137 q 486 -229 486 -192 q 459 -294 486 -267 q 394 -321 432 -321 z "},"ǳ":{"ha":1456,"x_min":67,"x_max":1388,"o":"m 336 -17 q 205 24 267 -17 q 105 140 143 65 q 67 313 67 214 q 105 485 67 411 q 204 601 143 560 q 335 642 265 642 q 449 614 400 642 q 521 544 499 586 l 554 544 l 526 333 q 477 532 526 469 q 353 594 428 594 q 290 572 314 594 q 256 488 267 549 q 244 311 244 426 q 255 136 244 197 q 289 53 265 75 q 351 31 313 31 q 476 94 426 31 q 526 292 526 157 l 554 81 l 521 81 q 450 11 499 39 q 336 -17 401 -17 m 526 0 l 526 35 l 774 35 l 774 0 l 526 0 m 526 21 l 526 1025 l 679 1025 l 679 21 l 526 21 m 389 1013 l 389 1047 l 679 1047 l 679 1013 l 389 1013 m 857 21 l 853 49 l 1225 611 l 1356 611 l 1375 576 l 1013 21 l 857 21 m 853 0 l 853 49 l 864 35 l 1161 35 q 1293 85 1239 35 q 1351 235 1347 135 l 1353 257 l 1388 257 l 1388 0 l 853 0 m 883 382 l 883 625 l 1375 625 l 1375 576 l 1364 590 l 1110 590 q 1008 562 1050 590 q 942 486 965 533 q 918 382 919 439 l 883 382 z "},"ǆ":{"ha":1456,"x_min":67,"x_max":1388,"o":"m 336 -17 q 205 24 267 -17 q 105 140 143 65 q 67 313 67 214 q 105 485 67 411 q 204 601 143 560 q 335 642 265 642 q 449 614 400 642 q 521 544 499 586 l 554 544 l 526 333 q 477 532 526 469 q 353 594 428 594 q 290 572 314 594 q 256 488 267 549 q 244 311 244 426 q 255 136 244 197 q 289 53 265 75 q 351 31 313 31 q 476 94 426 31 q 526 292 526 157 l 554 81 l 521 81 q 450 11 499 39 q 336 -17 401 -17 m 526 0 l 526 35 l 774 35 l 774 0 l 526 0 m 526 21 l 526 1025 l 679 1025 l 679 21 l 526 21 m 389 1013 l 389 1047 l 679 1047 l 679 1013 l 389 1013 m 857 21 l 853 49 l 1225 611 l 1356 611 l 1375 576 l 1013 21 l 857 21 m 853 0 l 853 49 l 864 35 l 1161 35 q 1293 85 1239 35 q 1351 235 1347 135 l 1353 257 l 1388 257 l 1388 0 l 853 0 m 883 382 l 883 625 l 1375 625 l 1375 576 l 1364 590 l 1110 590 q 1008 562 1050 590 q 942 486 965 533 q 918 382 919 439 l 883 382 m 1079 728 l 897 1006 l 957 1006 l 1122 858 l 1288 1006 l 1347 1006 l 1165 728 l 1079 728 z "},"e":{"ha":701,"x_min":57,"x_max":643,"o":"m 381 -17 q 255 10 314 -17 q 151 84 196 38 q 82 190 107 131 q 57 313 57 249 q 97 472 57 397 q 207 594 136 547 q 374 642 278 642 q 509 608 449 642 q 604 513 569 574 q 639 372 639 451 l 639 364 l 185 364 l 185 399 l 478 399 l 478 478 q 367 604 478 604 q 292 577 321 604 q 251 486 264 550 q 238 313 238 422 q 251 138 238 200 q 298 50 265 75 q 385 25 331 25 q 513 63 458 25 q 604 193 567 100 l 643 193 q 545 40 615 96 q 381 -17 475 -17 z "},"é":{"ha":701,"x_min":57,"x_max":643,"o":"m 381 -17 q 255 10 314 -17 q 151 84 196 38 q 82 190 107 131 q 57 313 57 249 q 97 472 57 397 q 207 594 136 547 q 374 642 278 642 q 509 608 449 642 q 604 513 569 574 q 639 372 639 451 l 639 364 l 185 364 l 185 399 l 478 399 l 478 478 q 367 604 478 604 q 292 577 321 604 q 251 486 264 550 q 238 313 238 422 q 251 138 238 200 q 298 50 265 75 q 385 25 331 25 q 513 63 458 25 q 604 193 567 100 l 643 193 q 545 40 615 96 q 381 -17 475 -17 m 304 728 l 468 950 q 513 994 492 982 q 557 1006 535 1006 q 604 989 588 1006 q 621 947 621 972 q 608 909 621 929 q 551 858 596 889 l 364 728 l 304 728 z "},"ĕ":{"ha":701,"x_min":57,"x_max":643,"o":"m 381 -17 q 255 10 314 -17 q 151 84 196 38 q 82 190 107 131 q 57 313 57 249 q 97 472 57 397 q 207 594 136 547 q 374 642 278 642 q 509 608 449 642 q 604 513 569 574 q 639 372 639 451 l 639 364 l 185 364 l 185 399 l 478 399 l 478 478 q 367 604 478 604 q 292 577 321 604 q 251 486 264 550 q 238 313 238 422 q 251 138 238 200 q 298 50 265 75 q 385 25 331 25 q 513 63 458 25 q 604 193 567 100 l 643 193 q 545 40 615 96 q 381 -17 475 -17 m 351 728 q 203 777 244 728 q 161 911 161 826 l 208 911 q 244 843 211 864 q 349 822 276 822 q 456 844 422 822 q 493 911 490 865 l 540 911 q 524 817 540 858 q 466 751 507 775 q 351 728 425 728 z "},"ě":{"ha":701,"x_min":57,"x_max":643,"o":"m 381 -17 q 255 10 314 -17 q 151 84 196 38 q 82 190 107 131 q 57 313 57 249 q 97 472 57 397 q 207 594 136 547 q 374 642 278 642 q 509 608 449 642 q 604 513 569 574 q 639 372 639 451 l 639 364 l 185 364 l 185 399 l 478 399 l 478 478 q 367 604 478 604 q 292 577 321 604 q 251 486 264 550 q 238 313 238 422 q 251 138 238 200 q 298 50 265 75 q 385 25 331 25 q 513 63 458 25 q 604 193 567 100 l 643 193 q 545 40 615 96 q 381 -17 475 -17 m 308 728 l 126 1006 l 186 1006 l 351 858 l 517 1006 l 576 1006 l 394 728 l 308 728 z "},"ê":{"ha":701,"x_min":57,"x_max":643,"o":"m 381 -17 q 255 10 314 -17 q 151 84 196 38 q 82 190 107 131 q 57 313 57 249 q 97 472 57 397 q 207 594 136 547 q 374 642 278 642 q 509 608 449 642 q 604 513 569 574 q 639 372 639 451 l 639 364 l 185 364 l 185 399 l 478 399 l 478 478 q 367 604 478 604 q 292 577 321 604 q 251 486 264 550 q 238 313 238 422 q 251 138 238 200 q 298 50 265 75 q 385 25 331 25 q 513 63 458 25 q 604 193 567 100 l 643 193 q 545 40 615 96 q 381 -17 475 -17 m 126 728 l 308 1006 l 394 1006 l 576 728 l 517 728 l 351 875 l 186 728 l 126 728 z "},"ế":{"ha":701,"x_min":57,"x_max":643,"o":"m 381 -17 q 255 10 314 -17 q 151 84 196 38 q 82 190 107 131 q 57 313 57 249 q 97 472 57 397 q 207 594 136 547 q 374 642 278 642 q 509 608 449 642 q 604 513 569 574 q 639 372 639 451 l 639 364 l 185 364 l 185 399 l 478 399 l 478 478 q 367 604 478 604 q 292 577 321 604 q 251 486 264 550 q 238 313 238 422 q 251 138 238 200 q 298 50 265 75 q 385 25 331 25 q 513 63 458 25 q 604 193 567 100 l 643 193 q 545 40 615 96 q 381 -17 475 -17 m 140 728 l 308 883 l 394 883 l 563 728 l 503 728 l 351 799 l 200 728 l 140 728 m 165 908 l 375 1042 q 443 1083 424 1074 q 476 1092 463 1092 q 522 1076 506 1092 q 538 1032 538 1060 q 520 985 538 1006 q 468 958 503 965 l 225 908 l 165 908 z "},"ệ":{"ha":701,"x_min":57,"x_max":643,"o":"m 381 -17 q 255 10 314 -17 q 151 84 196 38 q 82 190 107 131 q 57 313 57 249 q 97 472 57 397 q 207 594 136 547 q 374 642 278 642 q 509 608 449 642 q 604 513 569 574 q 639 372 639 451 l 639 364 l 185 364 l 185 399 l 478 399 l 478 478 q 367 604 478 604 q 292 577 321 604 q 251 486 264 550 q 238 313 238 422 q 251 138 238 200 q 298 50 265 75 q 385 25 331 25 q 513 63 458 25 q 604 193 567 100 l 643 193 q 545 40 615 96 q 381 -17 475 -17 m 351 -321 q 287 -294 314 -321 q 260 -229 260 -267 q 287 -165 260 -192 q 351 -137 314 -137 q 416 -165 389 -137 q 443 -229 443 -192 q 416 -294 443 -267 q 351 -321 389 -321 m 126 728 l 308 1006 l 394 1006 l 576 728 l 517 728 l 351 875 l 186 728 l 126 728 z "},"ề":{"ha":701,"x_min":57,"x_max":643,"o":"m 381 -17 q 255 10 314 -17 q 151 84 196 38 q 82 190 107 131 q 57 313 57 249 q 97 472 57 397 q 207 594 136 547 q 374 642 278 642 q 509 608 449 642 q 604 513 569 574 q 639 372 639 451 l 639 364 l 185 364 l 185 399 l 478 399 l 478 478 q 367 604 478 604 q 292 577 321 604 q 251 486 264 550 q 238 313 238 422 q 251 138 238 200 q 298 50 265 75 q 385 25 331 25 q 513 63 458 25 q 604 193 567 100 l 643 193 q 545 40 615 96 q 381 -17 475 -17 m 140 728 l 308 883 l 394 883 l 563 728 l 503 728 l 351 799 l 200 728 l 140 728 m 478 901 l 235 951 q 183 978 200 958 q 165 1025 165 999 q 181 1069 165 1053 q 226 1085 197 1085 q 260 1076 242 1085 q 328 1035 279 1067 l 538 901 l 478 901 z "},"ể":{"ha":701,"x_min":57,"x_max":649,"o":"m 381 -17 q 255 10 314 -17 q 151 84 196 38 q 82 190 107 131 q 57 313 57 249 q 97 472 57 397 q 207 594 136 547 q 374 642 278 642 q 509 608 449 642 q 604 513 569 574 q 639 372 639 451 l 639 364 l 185 364 l 185 399 l 478 399 l 478 478 q 367 604 478 604 q 292 577 321 604 q 251 486 264 550 q 238 313 238 422 q 251 138 238 200 q 298 50 265 75 q 385 25 331 25 q 513 63 458 25 q 604 193 567 100 l 643 193 q 545 40 615 96 q 381 -17 475 -17 m 140 728 l 308 883 l 394 883 l 563 728 l 503 728 l 351 799 l 200 728 l 140 728 m 515 879 q 523 912 515 899 q 541 937 531 925 q 559 959 551 949 q 567 982 567 969 q 550 1033 567 1022 q 513 1044 533 1044 q 476 1035 490 1044 q 461 1010 461 1025 q 466 998 461 1001 q 475 989 471 994 q 479 971 479 983 q 468 949 479 957 q 435 940 457 940 q 396 954 411 940 q 381 989 381 968 q 400 1055 381 1031 q 449 1090 419 1079 q 510 1100 479 1100 q 610 1072 572 1100 q 649 985 649 1044 q 636 950 649 964 q 607 925 624 936 q 575 903 590 914 q 553 879 560 893 l 515 879 z "},"ễ":{"ha":701,"x_min":57,"x_max":643,"o":"m 381 -17 q 255 10 314 -17 q 151 84 196 38 q 82 190 107 131 q 57 313 57 249 q 97 472 57 397 q 207 594 136 547 q 374 642 278 642 q 509 608 449 642 q 604 513 569 574 q 639 372 639 451 l 639 364 l 185 364 l 185 399 l 478 399 l 478 478 q 367 604 478 604 q 292 577 321 604 q 251 486 264 550 q 238 313 238 422 q 251 138 238 200 q 298 50 265 75 q 385 25 331 25 q 513 63 458 25 q 604 193 567 100 l 643 193 q 545 40 615 96 q 381 -17 475 -17 m 140 719 l 308 875 l 394 875 l 563 719 l 503 719 l 351 790 l 200 719 l 140 719 m 107 949 q 135 1031 114 992 q 191 1097 157 1071 q 271 1122 225 1122 q 340 1106 308 1122 q 400 1072 371 1089 q 461 1056 429 1056 q 522 1080 501 1056 q 549 1126 542 1104 l 596 1126 q 565 1042 586 1083 q 512 976 544 1001 q 431 950 479 950 q 361 967 392 950 q 302 1000 331 983 q 240 1017 274 1017 q 183 997 206 1017 q 153 949 160 978 l 107 949 z "},"ȅ":{"ha":701,"x_min":-3,"x_max":643,"o":"m 381 -17 q 255 10 314 -17 q 151 84 196 38 q 82 190 107 131 q 57 313 57 249 q 97 472 57 397 q 207 594 136 547 q 374 642 278 642 q 509 608 449 642 q 604 513 569 574 q 639 372 639 451 l 639 364 l 185 364 l 185 399 l 478 399 l 478 478 q 367 604 478 604 q 292 577 321 604 q 251 486 264 550 q 238 313 238 422 q 251 138 238 200 q 298 50 265 75 q 385 25 331 25 q 513 63 458 25 q 604 193 567 100 l 643 193 q 545 40 615 96 q 381 -17 475 -17 m 501 728 l 314 858 q 258 909 271 889 q 244 947 244 929 q 261 989 244 972 q 308 1006 278 1006 q 352 994 331 1006 q 397 950 374 982 l 561 728 l 501 728 m 254 728 l 67 858 q 10 909 24 889 q -3 947 -3 929 q 14 989 -3 972 q 61 1006 31 1006 q 105 994 83 1006 q 150 950 126 982 l 314 728 l 254 728 z "},"ë":{"ha":701,"x_min":57,"x_max":643,"o":"m 381 -17 q 255 10 314 -17 q 151 84 196 38 q 82 190 107 131 q 57 313 57 249 q 97 472 57 397 q 207 594 136 547 q 374 642 278 642 q 509 608 449 642 q 604 513 569 574 q 639 372 639 451 l 639 364 l 185 364 l 185 399 l 478 399 l 478 478 q 367 604 478 604 q 292 577 321 604 q 251 486 264 550 q 238 313 238 422 q 251 138 238 200 q 298 50 265 75 q 385 25 331 25 q 513 63 458 25 q 604 193 567 100 l 643 193 q 545 40 615 96 q 381 -17 475 -17 m 483 794 q 430 817 453 794 q 407 871 407 840 q 430 925 407 903 q 483 947 453 947 q 538 925 515 947 q 560 871 560 903 q 538 817 560 840 q 483 794 515 794 m 219 794 q 166 817 189 794 q 143 871 143 840 q 166 925 143 903 q 219 947 189 947 q 274 925 251 947 q 296 871 296 903 q 274 817 296 840 q 219 794 251 794 z "},"ė":{"ha":701,"x_min":57,"x_max":643,"o":"m 381 -17 q 255 10 314 -17 q 151 84 196 38 q 82 190 107 131 q 57 313 57 249 q 97 472 57 397 q 207 594 136 547 q 374 642 278 642 q 509 608 449 642 q 604 513 569 574 q 639 372 639 451 l 639 364 l 185 364 l 185 399 l 478 399 l 478 478 q 367 604 478 604 q 292 577 321 604 q 251 486 264 550 q 238 313 238 422 q 251 138 238 200 q 298 50 265 75 q 385 25 331 25 q 513 63 458 25 q 604 193 567 100 l 643 193 q 545 40 615 96 q 381 -17 475 -17 m 351 807 q 287 834 314 807 q 260 899 260 861 q 287 963 260 936 q 351 990 314 990 q 416 963 389 990 q 443 899 443 936 q 416 834 443 861 q 351 807 389 807 z "},"ẹ":{"ha":701,"x_min":57,"x_max":643,"o":"m 381 -17 q 255 10 314 -17 q 151 84 196 38 q 82 190 107 131 q 57 313 57 249 q 97 472 57 397 q 207 594 136 547 q 374 642 278 642 q 509 608 449 642 q 604 513 569 574 q 639 372 639 451 l 639 364 l 185 364 l 185 399 l 478 399 l 478 478 q 367 604 478 604 q 292 577 321 604 q 251 486 264 550 q 238 313 238 422 q 251 138 238 200 q 298 50 265 75 q 385 25 331 25 q 513 63 458 25 q 604 193 567 100 l 643 193 q 545 40 615 96 q 381 -17 475 -17 m 351 -321 q 287 -294 314 -321 q 260 -229 260 -267 q 287 -165 260 -192 q 351 -137 314 -137 q 416 -165 389 -137 q 443 -229 443 -192 q 416 -294 443 -267 q 351 -321 389 -321 z "},"è":{"ha":701,"x_min":57,"x_max":643,"o":"m 381 -17 q 255 10 314 -17 q 151 84 196 38 q 82 190 107 131 q 57 313 57 249 q 97 472 57 397 q 207 594 136 547 q 374 642 278 642 q 509 608 449 642 q 604 513 569 574 q 639 372 639 451 l 639 364 l 185 364 l 185 399 l 478 399 l 478 478 q 367 604 478 604 q 292 577 321 604 q 251 486 264 550 q 238 313 238 422 q 251 138 238 200 q 298 50 265 75 q 385 25 331 25 q 513 63 458 25 q 604 193 567 100 l 643 193 q 545 40 615 96 q 381 -17 475 -17 m 363 728 l 175 858 q 119 909 132 889 q 106 947 106 929 q 122 989 106 972 q 169 1006 139 1006 q 213 994 192 1006 q 258 950 235 982 l 422 728 l 363 728 z "},"ẻ":{"ha":701,"x_min":57,"x_max":643,"o":"m 381 -17 q 255 10 314 -17 q 151 84 196 38 q 82 190 107 131 q 57 313 57 249 q 97 472 57 397 q 207 594 136 547 q 374 642 278 642 q 509 608 449 642 q 604 513 569 574 q 639 372 639 451 l 639 364 l 185 364 l 185 399 l 478 399 l 478 478 q 367 604 478 604 q 292 577 321 604 q 251 486 264 550 q 238 313 238 422 q 251 138 238 200 q 298 50 265 75 q 385 25 331 25 q 513 63 458 25 q 604 193 567 100 l 643 193 q 545 40 615 96 q 381 -17 475 -17 m 351 719 q 359 753 351 739 q 377 778 367 767 q 395 803 388 790 q 403 832 403 815 q 386 874 403 864 q 349 885 369 885 q 312 875 326 885 q 297 850 297 865 q 302 838 297 842 q 311 829 307 835 q 315 811 315 824 q 304 789 315 797 q 271 781 293 781 q 232 794 247 781 q 217 829 217 808 q 236 895 217 871 q 285 930 256 919 q 346 940 315 940 q 447 914 408 940 q 485 835 485 888 q 472 794 485 810 q 443 766 460 778 q 411 744 426 754 q 389 719 396 733 l 351 719 z "},"ȇ":{"ha":701,"x_min":57,"x_max":643,"o":"m 381 -17 q 255 10 314 -17 q 151 84 196 38 q 82 190 107 131 q 57 313 57 249 q 97 472 57 397 q 207 594 136 547 q 374 642 278 642 q 509 608 449 642 q 604 513 569 574 q 639 372 639 451 l 639 364 l 185 364 l 185 399 l 478 399 l 478 478 q 367 604 478 604 q 292 577 321 604 q 251 486 264 550 q 238 313 238 422 q 251 138 238 200 q 298 50 265 75 q 385 25 331 25 q 513 63 458 25 q 604 193 567 100 l 643 193 q 545 40 615 96 q 381 -17 475 -17 m 133 728 q 189 885 133 825 q 351 946 244 946 q 515 883 463 946 q 568 728 568 821 l 521 728 q 470 811 518 785 q 349 838 422 838 q 230 812 276 838 q 181 728 183 786 l 133 728 z "},"ē":{"ha":701,"x_min":57,"x_max":643,"o":"m 381 -17 q 255 10 314 -17 q 151 84 196 38 q 82 190 107 131 q 57 313 57 249 q 97 472 57 397 q 207 594 136 547 q 374 642 278 642 q 509 608 449 642 q 604 513 569 574 q 639 372 639 451 l 639 364 l 185 364 l 185 399 l 478 399 l 478 478 q 367 604 478 604 q 292 577 321 604 q 251 486 264 550 q 238 313 238 422 q 251 138 238 200 q 298 50 265 75 q 385 25 331 25 q 513 63 458 25 q 604 193 567 100 l 643 193 q 545 40 615 96 q 381 -17 475 -17 m 129 801 l 129 893 l 574 893 l 574 801 l 129 801 z "},"ę":{"ha":701,"x_min":57,"x_max":643,"o":"m 381 -17 q 255 10 314 -17 q 151 84 196 38 q 82 190 107 131 q 57 313 57 249 q 97 472 57 397 q 207 594 136 547 q 374 642 278 642 q 509 608 449 642 q 604 513 569 574 q 639 372 639 451 l 639 364 l 185 364 l 185 399 l 478 399 l 478 478 q 367 604 478 604 q 292 577 321 604 q 251 486 264 550 q 238 313 238 422 q 251 138 238 200 q 298 50 265 75 q 385 25 331 25 q 513 63 458 25 q 604 193 567 100 l 643 193 q 545 40 615 96 q 381 -17 475 -17 m 375 -337 q 285 -306 319 -337 q 250 -221 250 -274 q 269 -150 250 -185 q 334 -76 289 -115 q 456 14 379 -36 l 506 14 q 387 -99 426 -44 q 347 -207 347 -154 q 411 -281 347 -281 q 452 -272 431 -281 q 504 -240 474 -262 l 510 -240 l 510 -278 q 451 -321 488 -304 q 375 -337 415 -337 z "},"ẽ":{"ha":701,"x_min":57,"x_max":643,"o":"m 381 -17 q 255 10 314 -17 q 151 84 196 38 q 82 190 107 131 q 57 313 57 249 q 97 472 57 397 q 207 594 136 547 q 374 642 278 642 q 509 608 449 642 q 604 513 569 574 q 639 372 639 451 l 639 364 l 185 364 l 185 399 l 478 399 l 478 478 q 367 604 478 604 q 292 577 321 604 q 251 486 264 550 q 238 313 238 422 q 251 138 238 200 q 298 50 265 75 q 385 25 331 25 q 513 63 458 25 q 604 193 567 100 l 643 193 q 545 40 615 96 q 381 -17 475 -17 m 107 775 q 135 858 114 818 q 191 923 157 897 q 271 949 225 949 q 340 932 308 949 q 400 899 371 915 q 461 882 429 882 q 522 906 501 882 q 549 953 542 931 l 596 953 q 565 869 586 910 q 512 802 544 828 q 431 776 479 776 q 361 793 392 776 q 302 826 331 810 q 240 843 274 843 q 183 824 206 843 q 153 775 160 804 l 107 775 z "},"ə":{"ha":706,"x_min":58,"x_max":644,"o":"m 328 -17 q 193 18 253 -17 q 98 113 133 53 q 63 253 63 174 l 63 261 l 517 261 l 517 226 l 224 226 l 224 147 q 335 21 224 21 q 410 48 382 21 q 451 139 438 75 q 464 313 464 203 q 450 488 464 425 q 404 575 436 550 q 317 600 372 600 q 190 563 244 600 q 97 432 135 525 l 58 432 q 156 586 86 531 q 321 642 226 642 q 447 615 388 642 q 550 541 506 588 q 619 435 594 494 q 644 313 644 376 q 606 153 644 228 q 495 31 567 78 q 328 -17 424 -17 z "},"f":{"ha":503,"x_min":26,"x_max":551,"o":"m 161 0 l 161 664 q 187 887 161 799 q 265 1019 213 975 q 399 1063 318 1063 q 510 1032 469 1063 q 551 951 551 1001 q 530 893 551 915 q 474 871 508 871 q 424 889 443 871 q 404 936 404 907 q 409 963 404 953 q 419 981 414 972 q 424 1001 424 990 q 392 1025 424 1025 q 332 987 350 1025 q 314 858 314 949 l 314 0 l 161 0 m 26 0 l 26 35 l 471 35 l 471 0 l 26 0 m 26 590 l 26 625 l 485 625 l 485 590 l 26 590 z "},"g":{"ha":719,"x_min":60,"x_max":700,"o":"m 333 -453 l 333 -453 q 193 -426 256 -453 q 95 -354 131 -400 q 60 -251 60 -308 q 88 -157 60 -200 q 167 -87 117 -114 l 167 -82 q 90 -22 115 -60 q 65 72 65 17 q 105 182 65 142 q 217 229 144 222 q 132 310 165 260 q 99 418 99 361 q 132 527 99 476 q 219 610 165 578 q 336 642 274 642 q 435 619 389 642 q 515 558 482 596 q 560 619 531 596 q 625 642 589 642 q 679 623 658 642 q 700 575 700 604 q 685 533 700 549 q 643 517 669 517 q 609 530 618 517 q 594 556 600 543 q 571 568 588 568 q 553 558 560 568 q 544 521 547 547 q 567 472 560 497 q 575 418 575 446 q 542 310 575 361 q 453 227 508 258 q 336 196 399 196 l 249 196 q 157 174 193 196 q 121 114 121 151 q 142 72 121 88 q 197 56 163 56 l 485 56 q 582 37 544 56 q 638 -22 619 18 q 656 -125 656 -62 q 615 -297 656 -224 q 503 -412 575 -371 q 333 -453 431 -453 m 346 -411 l 346 -411 q 470 -379 413 -411 q 563 -295 528 -347 q 599 -183 599 -243 q 576 -112 599 -137 q 514 -86 554 -86 l 221 -86 q 178 -149 196 -104 q 160 -239 160 -194 q 213 -362 160 -314 q 346 -411 265 -411 m 335 233 q 394 249 374 233 q 424 306 415 265 q 432 417 432 346 q 424 526 432 488 q 394 581 415 565 q 335 597 374 597 q 277 582 297 597 q 249 528 257 567 q 242 417 242 489 q 249 305 242 344 q 277 249 257 265 q 335 233 297 233 z "},"ǵ":{"ha":719,"x_min":60,"x_max":700,"o":"m 333 -453 l 333 -453 q 193 -426 256 -453 q 95 -354 131 -400 q 60 -251 60 -308 q 88 -157 60 -200 q 167 -87 117 -114 l 167 -82 q 90 -22 115 -60 q 65 72 65 17 q 105 182 65 142 q 217 229 144 222 q 132 310 165 260 q 99 418 99 361 q 132 527 99 476 q 219 610 165 578 q 336 642 274 642 q 435 619 389 642 q 515 558 482 596 q 560 619 531 596 q 625 642 589 642 q 679 623 658 642 q 700 575 700 604 q 685 533 700 549 q 643 517 669 517 q 609 530 618 517 q 594 556 600 543 q 571 568 588 568 q 553 558 560 568 q 544 521 547 547 q 567 472 560 497 q 575 418 575 446 q 542 310 575 361 q 453 227 508 258 q 336 196 399 196 l 249 196 q 157 174 193 196 q 121 114 121 151 q 142 72 121 88 q 197 56 163 56 l 485 56 q 582 37 544 56 q 638 -22 619 18 q 656 -125 656 -62 q 615 -297 656 -224 q 503 -412 575 -371 q 333 -453 431 -453 m 346 -411 l 346 -411 q 470 -379 413 -411 q 563 -295 528 -347 q 599 -183 599 -243 q 576 -112 599 -137 q 514 -86 554 -86 l 221 -86 q 178 -149 196 -104 q 160 -239 160 -194 q 213 -362 160 -314 q 346 -411 265 -411 m 335 233 q 394 249 374 233 q 424 306 415 265 q 432 417 432 346 q 424 526 432 488 q 394 581 415 565 q 335 597 374 597 q 277 582 297 597 q 249 528 257 567 q 242 417 242 489 q 249 305 242 344 q 277 249 257 265 q 335 233 297 233 m 300 728 l 464 950 q 509 994 488 982 q 553 1006 531 1006 q 600 989 583 1006 q 617 947 617 972 q 604 909 617 929 q 547 858 592 889 l 360 728 l 300 728 z "},"ğ":{"ha":719,"x_min":60,"x_max":700,"o":"m 333 -453 l 333 -453 q 193 -426 256 -453 q 95 -354 131 -400 q 60 -251 60 -308 q 88 -157 60 -200 q 167 -87 117 -114 l 167 -82 q 90 -22 115 -60 q 65 72 65 17 q 105 182 65 142 q 217 229 144 222 q 132 310 165 260 q 99 418 99 361 q 132 527 99 476 q 219 610 165 578 q 336 642 274 642 q 435 619 389 642 q 515 558 482 596 q 560 619 531 596 q 625 642 589 642 q 679 623 658 642 q 700 575 700 604 q 685 533 700 549 q 643 517 669 517 q 609 530 618 517 q 594 556 600 543 q 571 568 588 568 q 553 558 560 568 q 544 521 547 547 q 567 472 560 497 q 575 418 575 446 q 542 310 575 361 q 453 227 508 258 q 336 196 399 196 l 249 196 q 157 174 193 196 q 121 114 121 151 q 142 72 121 88 q 197 56 163 56 l 485 56 q 582 37 544 56 q 638 -22 619 18 q 656 -125 656 -62 q 615 -297 656 -224 q 503 -412 575 -371 q 333 -453 431 -453 m 346 -411 l 346 -411 q 470 -379 413 -411 q 563 -295 528 -347 q 599 -183 599 -243 q 576 -112 599 -137 q 514 -86 554 -86 l 221 -86 q 178 -149 196 -104 q 160 -239 160 -194 q 213 -362 160 -314 q 346 -411 265 -411 m 335 233 q 394 249 374 233 q 424 306 415 265 q 432 417 432 346 q 424 526 432 488 q 394 581 415 565 q 335 597 374 597 q 277 582 297 597 q 249 528 257 567 q 242 417 242 489 q 249 305 242 344 q 277 249 257 265 q 335 233 297 233 m 347 728 q 199 777 240 728 q 157 911 157 826 l 204 911 q 240 843 207 864 q 344 822 272 822 q 452 844 418 822 q 489 911 486 865 l 536 911 q 519 817 536 858 q 462 751 503 775 q 347 728 421 728 z "},"ĝ":{"ha":719,"x_min":60,"x_max":700,"o":"m 333 -453 l 333 -453 q 193 -426 256 -453 q 95 -354 131 -400 q 60 -251 60 -308 q 88 -157 60 -200 q 167 -87 117 -114 l 167 -82 q 90 -22 115 -60 q 65 72 65 17 q 105 182 65 142 q 217 229 144 222 q 132 310 165 260 q 99 418 99 361 q 132 527 99 476 q 219 610 165 578 q 336 642 274 642 q 435 619 389 642 q 515 558 482 596 q 560 619 531 596 q 625 642 589 642 q 679 623 658 642 q 700 575 700 604 q 685 533 700 549 q 643 517 669 517 q 609 530 618 517 q 594 556 600 543 q 571 568 588 568 q 553 558 560 568 q 544 521 547 547 q 567 472 560 497 q 575 418 575 446 q 542 310 575 361 q 453 227 508 258 q 336 196 399 196 l 249 196 q 157 174 193 196 q 121 114 121 151 q 142 72 121 88 q 197 56 163 56 l 485 56 q 582 37 544 56 q 638 -22 619 18 q 656 -125 656 -62 q 615 -297 656 -224 q 503 -412 575 -371 q 333 -453 431 -453 m 346 -411 l 346 -411 q 470 -379 413 -411 q 563 -295 528 -347 q 599 -183 599 -243 q 576 -112 599 -137 q 514 -86 554 -86 l 221 -86 q 178 -149 196 -104 q 160 -239 160 -194 q 213 -362 160 -314 q 346 -411 265 -411 m 335 233 q 394 249 374 233 q 424 306 415 265 q 432 417 432 346 q 424 526 432 488 q 394 581 415 565 q 335 597 374 597 q 277 582 297 597 q 249 528 257 567 q 242 417 242 489 q 249 305 242 344 q 277 249 257 265 q 335 233 297 233 m 122 728 l 304 1006 l 390 1006 l 572 728 l 513 728 l 347 875 l 182 728 l 122 728 z "},"ģ":{"ha":719,"x_min":60,"x_max":700,"o":"m 333 -453 l 333 -453 q 193 -426 256 -453 q 95 -354 131 -400 q 60 -251 60 -308 q 88 -157 60 -200 q 167 -87 117 -114 l 167 -82 q 90 -22 115 -60 q 65 72 65 17 q 105 182 65 142 q 217 229 144 222 q 132 310 165 260 q 99 418 99 361 q 132 527 99 476 q 219 610 165 578 q 336 642 274 642 q 435 619 389 642 q 515 558 482 596 q 560 619 531 596 q 625 642 589 642 q 679 623 658 642 q 700 575 700 604 q 685 533 700 549 q 643 517 669 517 q 609 530 618 517 q 594 556 600 543 q 571 568 588 568 q 553 558 560 568 q 544 521 547 547 q 567 472 560 497 q 575 418 575 446 q 542 310 575 361 q 453 227 508 258 q 336 196 399 196 l 249 196 q 157 174 193 196 q 121 114 121 151 q 142 72 121 88 q 197 56 163 56 l 485 56 q 582 37 544 56 q 638 -22 619 18 q 656 -125 656 -62 q 615 -297 656 -224 q 503 -412 575 -371 q 333 -453 431 -453 m 346 -411 l 346 -411 q 470 -379 413 -411 q 563 -295 528 -347 q 599 -183 599 -243 q 576 -112 599 -137 q 514 -86 554 -86 l 221 -86 q 178 -149 196 -104 q 160 -239 160 -194 q 213 -362 160 -314 q 346 -411 265 -411 m 335 233 q 394 249 374 233 q 424 306 415 265 q 432 417 432 346 q 424 526 432 488 q 394 581 415 565 q 335 597 374 597 q 277 582 297 597 q 249 528 257 567 q 242 417 242 489 q 249 305 242 344 q 277 249 257 265 q 335 233 297 233 m 407 1054 l 435 1022 q 337 951 367 988 q 307 875 307 915 q 309 862 307 865 q 313 858 311 858 q 331 868 319 858 q 360 888 343 878 q 400 897 378 897 q 447 878 428 897 q 467 824 467 860 q 440 758 467 782 q 372 735 414 735 q 289 769 322 735 q 256 864 256 804 q 295 971 256 926 q 407 1054 335 1015 z "}}}
